<svg width="50" height="50" viewBox="0 0 50 50" fill="none" xmlns="http://www.w3.org/2000/svg">
<path d="M23.9607 47.3382L23.9606 47.3381C12.1865 42.0777 5.14258 30.7473 5.14258 16.9818V5.05476L23.8677 0.514009L43.2286 5.0507V16.9818C43.2286 30.7667 36.2066 42.096 24.4719 47.3385L24.2163 47.4524L23.9607 47.3382Z" stroke="white"/>
<path fill-rule="evenodd" clip-rule="evenodd" d="M36.9682 28.4032L36.9144 28.3813C33.4638 26.9516 30.7209 28.2147 28.9785 29.5974C29.8323 27.4203 30.0421 25.4605 30.0798 25.0226C30.3448 24.4892 30.7079 24.1648 31.1886 24.0318C32.4736 23.6752 34.1465 24.7861 34.1629 24.7974L34.6131 25.0998L37.2627 18.5556L28.9823 10.5053L22.4097 11.2537C22.266 11.276 22.1241 11.3028 21.9818 11.3302C20.7105 9.68619 19.1018 8.33464 17.2425 7.55395L24.1672 5.91062L38.6839 9.3543L38.8248 18.1668C38.8248 21.8306 38.1819 25.2805 36.9682 28.4032ZM24.2118 19.0987C24.4497 21.629 24.1655 27.7388 16.4549 29.9657L12.4945 22.9768C12.8055 19.8053 14.2795 16.9949 16.4837 15.0077L16.5591 15.1082C18.4558 17.6385 18.4596 20.3203 16.5687 22.66L16.2934 23.0008L16.9771 23.5487L17.2524 23.2082C19.4182 20.5278 19.4217 17.4653 17.262 14.5853L17.1557 14.4437C18.4787 13.4155 20.0069 12.6832 21.6372 12.2964C23.0268 14.2205 23.9755 16.5914 24.2118 19.0987ZM31.0449 13.8101C30.1151 14.5668 28.958 15.509 29.211 19.6521C29.3715 22.2942 29.2449 24.3904 29.2168 24.7957L29.2155 24.7991L29.211 24.8821C29.2093 24.9095 29.0385 27.6376 27.7281 30.3243C26.0378 33.7913 23.319 35.5632 19.6445 35.594L16.8972 30.7457C22.5599 29.0283 25.6171 24.6647 25.0857 19.0171C24.8663 16.6874 23.968 14.2195 22.5509 12.1171L28.6679 11.4211L31.0933 13.7786C31.0768 13.7885 31.06 13.7974 31.0449 13.8101ZM32.8367 18.4689C33.2383 18.4769 33.6271 18.3275 33.92 18.0526C34.2129 17.7778 34.3867 17.3993 34.4043 16.998L36.2293 18.772L34.1931 23.8007C33.5033 23.4307 32.1606 22.8558 30.9565 23.1894C30.6666 23.2687 30.3938 23.4007 30.1518 23.5789C30.1792 22.6175 30.1854 21.2193 30.0867 19.5989C29.8611 15.9026 30.7453 15.1829 31.6 14.4869C31.6419 14.4526 31.6741 14.4122 31.6995 14.3686L34.3659 16.9606L31.3227 16.9034C31.3069 17.7523 31.9844 18.4531 32.8367 18.4689ZM24.1713 41.9695C15.0797 37.7661 9.66491 28.8987 9.66491 18.1675V9.35259L15.617 7.94001C17.6549 8.45018 19.555 9.75476 21.0533 11.5462C15.8998 12.944 12.0937 17.488 11.6076 23.0351L11.5959 23.1698L19.1302 36.4642L19.3822 36.4676C19.4374 36.4683 19.4909 36.4687 19.5454 36.4687C23.3299 36.4687 25.7629 34.7516 27.3246 32.6427L27.3688 32.6708L27.6054 32.304C27.6143 32.2902 28.5078 30.9205 30.0695 29.8628C32.1178 28.4749 34.3076 28.2486 36.5773 29.188L36.6366 29.2124C34.2325 34.8247 29.9337 39.3079 24.1713 41.9695ZM24.1672 4.11438L7.91016 7.97189V18.1672C7.91016 29.7486 13.8553 39.3038 23.814 43.7273L24.1713 43.8861L24.5286 43.7273C34.5791 39.2626 40.5795 29.7078 40.5795 18.1535L40.4174 7.96949L24.1672 4.11438Z" fill="white"/>
</svg>
