<svg width="50" height="50" viewBox="0 0 50 50" fill="none" xmlns="http://www.w3.org/2000/svg">
<g clip-path="url(#clip0_256_159)">
<path d="M43.6388 5.91947L43.6396 5.91919L44.4631 5.61808L44.4811 6.49479C44.4811 6.49533 44.4811 6.49588 44.4811 6.49643C44.4872 6.92796 44.5566 12.1013 44.3867 17.8464C44.3016 20.7231 44.1566 23.7372 43.9144 26.3684C43.6708 29.015 43.3325 31.225 42.8771 32.523L42.8771 32.5231C41.5769 36.2313 39.8543 38.6644 37.9486 40.4603C36.0337 42.2648 33.919 43.442 31.7811 44.6296L31.757 44.6431C29.6066 45.8375 27.5072 47.0036 25.6682 48.8508L26.0138 49.1949L25.6682 48.8508L25.2296 49.2913L24.7912 48.8509C24.7912 48.8508 24.7912 48.8508 24.7911 48.8508C22.9437 46.9942 20.7967 45.823 18.6007 44.6252L18.5741 44.6107C18.5741 44.6107 18.5741 44.6107 18.5741 44.6107C16.397 43.4229 14.2431 42.2452 12.2994 40.4424C10.3655 38.6486 8.62547 36.2205 7.32861 32.523L6.85679 32.6885L7.32861 32.523C6.87344 31.2254 6.54632 29.0157 6.32016 26.3678C6.09535 23.7358 5.97382 20.721 5.91252 17.8435C5.78996 12.0901 5.90865 6.91042 5.91878 6.48966C5.91878 6.48961 5.91879 6.48955 5.91879 6.4895L5.93665 5.75774L6.65044 5.88824L6.65044 5.88824L6.65322 5.88874C6.74532 5.90504 11.3031 6.65279 15.7954 3.51896C21.7425 -0.628707 28.5236 -0.509454 34.9584 3.91726L34.9584 3.91726C39.7749 7.23043 43.3897 6.0101 43.6388 5.91947Z" stroke="white"/>
<mask id="path-2-inside-1_256_159" fill="white">
<path fill-rule="evenodd" clip-rule="evenodd" d="M38.6705 28.9267C38.3694 28.045 37.9419 27.2118 37.4012 26.4531C36.4287 25.0796 34.3987 22.9924 30.6862 22.1003C32.5012 21.6296 33.913 20.5231 34.0819 17.5942L34.1201 16.9296L33.4994 17.1339C33.4755 17.141 30.9858 17.8078 25.3076 14.1553C23.9158 13.2528 21.7183 12.5564 19.5665 13.1671C19.5893 13.0442 19.6009 12.9195 19.6012 12.7946C19.6012 11.6631 18.6994 10.7428 17.5915 10.7428C16.483 10.7428 15.5815 11.6631 15.5815 12.7946C15.5815 13.6981 16.1569 14.4653 16.953 14.7381C16.0158 15.6849 15.2719 16.9853 14.7583 18.6046C14.6309 19.0039 14.5288 19.4109 14.4526 19.8231L14.3865 19.9889C12.3051 25.2131 13.6812 28.1099 14.6858 30.2246C15.5705 32.086 16.118 33.2496 14.318 35.1917C13.4558 34.0356 12.688 32.6074 12.0515 30.7639C10.8158 27.1853 10.7897 14.5899 10.8115 10.7635C12.264 10.9449 14.9012 10.8342 17.9912 8.67457C20.2944 7.06529 22.7683 6.17814 25.148 6.10814C27.5276 6.17814 30.0015 7.06529 32.3051 8.67457C35.3951 10.8346 38.0319 10.9453 39.4844 10.7635C39.5037 14.0881 39.4858 24.0278 38.6705 28.9267ZM29.824 40.0374C29.104 40.4439 28.3751 40.8578 27.6533 41.3131C28.8008 38.1953 28.364 34.7071 27.2565 32.7239C26.3994 31.1892 24.8005 29.9356 22.5065 28.9956C22.2172 28.4721 21.1605 26.3767 21.7737 24.7599C22.0951 23.9117 22.8569 23.3085 24.0369 22.9674C24.789 22.7499 25.6026 22.6446 26.4226 22.5746V22.5824H26.869C32.6905 22.5824 35.5133 25.3417 36.678 26.9867C37.6472 28.3549 38.0955 29.7749 38.1862 30.926C36.244 36.4099 33.1248 38.1735 29.824 40.0374ZM23.7937 22.091C22.3294 22.5142 21.3697 23.3017 20.9412 24.431C20.3933 25.8764 20.869 27.5274 21.3062 28.5678C18.7419 27.5764 16.8412 26.0485 15.8965 24.2006C15.4465 23.3185 15.2251 22.3706 15.2162 21.3699C15.3976 19.5506 16.1362 18.2917 17.4172 17.6331C19.1519 16.7403 21.334 17.1996 22.328 17.8117C27.8894 21.2321 32.7822 18.891 32.9876 18.7892L33.0055 18.7806C32.353 21.2664 30.1747 21.4099 27.5055 21.5828C26.2669 21.6628 24.9865 21.7456 23.7937 22.0903V22.091ZM19.4465 14.1614C20.0501 13.9396 20.6644 13.8453 21.2637 13.8453C22.6315 13.8453 23.923 14.336 24.8312 14.9253C28.5262 17.3021 30.9758 17.9439 32.364 18.0699C31.6651 18.3485 29.4747 19.0717 26.6933 18.5556C26.8155 17.5967 26.1762 16.7035 25.2344 16.5403C24.4947 16.4117 23.7855 16.7724 23.4201 17.3917C23.2064 17.2777 22.996 17.1574 22.7894 17.031C21.4237 16.191 18.9358 15.8317 17.0158 16.8192C16.759 16.9514 16.488 17.1228 16.2194 17.3406C17.0044 15.7306 18.0851 14.6624 19.4465 14.1614ZM17.5919 13.9349C16.9755 13.9349 16.4744 13.4231 16.4744 12.7942C16.4744 12.1656 16.9755 11.6535 17.5919 11.6535C18.208 11.6535 18.709 12.1653 18.709 12.7942C18.709 13.4231 18.208 13.9349 17.5919 13.9349ZM20.474 40.0367C18.4712 38.906 16.5351 37.8117 14.8883 35.9028C17.209 33.4485 16.4097 31.7649 15.489 29.8267C14.6844 28.1317 13.7187 26.0967 14.4555 22.7535C14.5848 23.4032 14.8035 24.0318 15.1055 24.6214C16.2805 26.9199 18.7433 28.7535 22.0426 29.7856C24.2169 30.6539 25.7105 31.7942 26.4819 33.1749C27.6187 35.2106 27.9512 39.2046 26.1969 42.3142C25.8357 42.5863 25.4864 42.8738 25.1501 43.176C23.6705 41.8406 22.049 40.9256 20.474 40.0367ZM41.2344 8.3485L40.0547 8.78779C39.9369 8.83136 37.1215 9.83207 33.313 7.17064C30.7194 5.35779 27.9047 4.36029 25.1737 4.286L25.1465 4.28564L25.1226 4.28636C22.3919 4.36064 19.5772 5.35814 16.9833 7.171C13.1758 9.83172 10.359 8.83172 10.2487 8.79029L9.05511 8.32314L9.03618 9.62743C9.02653 10.3289 8.80761 26.8489 10.3683 31.3696C12.5315 37.636 16.1301 39.6671 19.6101 41.6317C21.3815 42.6317 23.0551 43.576 24.5187 45.0703L25.1501 45.7142L25.7812 45.0703C27.2447 43.576 28.9172 42.6321 30.6883 41.6321C34.1676 39.6674 37.7648 37.6364 39.9283 31.3696C41.489 26.8489 41.2701 10.3289 41.2605 9.62743L41.2344 8.34886V8.3485Z"/>
</mask>
<path fill-rule="evenodd" clip-rule="evenodd" d="M38.6705 28.9267C38.3694 28.045 37.9419 27.2118 37.4012 26.4531C36.4287 25.0796 34.3987 22.9924 30.6862 22.1003C32.5012 21.6296 33.913 20.5231 34.0819 17.5942L34.1201 16.9296L33.4994 17.1339C33.4755 17.141 30.9858 17.8078 25.3076 14.1553C23.9158 13.2528 21.7183 12.5564 19.5665 13.1671C19.5893 13.0442 19.6009 12.9195 19.6012 12.7946C19.6012 11.6631 18.6994 10.7428 17.5915 10.7428C16.483 10.7428 15.5815 11.6631 15.5815 12.7946C15.5815 13.6981 16.1569 14.4653 16.953 14.7381C16.0158 15.6849 15.2719 16.9853 14.7583 18.6046C14.6309 19.0039 14.5288 19.4109 14.4526 19.8231L14.3865 19.9889C12.3051 25.2131 13.6812 28.1099 14.6858 30.2246C15.5705 32.086 16.118 33.2496 14.318 35.1917C13.4558 34.0356 12.688 32.6074 12.0515 30.7639C10.8158 27.1853 10.7897 14.5899 10.8115 10.7635C12.264 10.9449 14.9012 10.8342 17.9912 8.67457C20.2944 7.06529 22.7683 6.17814 25.148 6.10814C27.5276 6.17814 30.0015 7.06529 32.3051 8.67457C35.3951 10.8346 38.0319 10.9453 39.4844 10.7635C39.5037 14.0881 39.4858 24.0278 38.6705 28.9267ZM29.824 40.0374C29.104 40.4439 28.3751 40.8578 27.6533 41.3131C28.8008 38.1953 28.364 34.7071 27.2565 32.7239C26.3994 31.1892 24.8005 29.9356 22.5065 28.9956C22.2172 28.4721 21.1605 26.3767 21.7737 24.7599C22.0951 23.9117 22.8569 23.3085 24.0369 22.9674C24.789 22.7499 25.6026 22.6446 26.4226 22.5746V22.5824H26.869C32.6905 22.5824 35.5133 25.3417 36.678 26.9867C37.6472 28.3549 38.0955 29.7749 38.1862 30.926C36.244 36.4099 33.1248 38.1735 29.824 40.0374ZM23.7937 22.091C22.3294 22.5142 21.3697 23.3017 20.9412 24.431C20.3933 25.8764 20.869 27.5274 21.3062 28.5678C18.7419 27.5764 16.8412 26.0485 15.8965 24.2006C15.4465 23.3185 15.2251 22.3706 15.2162 21.3699C15.3976 19.5506 16.1362 18.2917 17.4172 17.6331C19.1519 16.7403 21.334 17.1996 22.328 17.8117C27.8894 21.2321 32.7822 18.891 32.9876 18.7892L33.0055 18.7806C32.353 21.2664 30.1747 21.4099 27.5055 21.5828C26.2669 21.6628 24.9865 21.7456 23.7937 22.0903V22.091ZM19.4465 14.1614C20.0501 13.9396 20.6644 13.8453 21.2637 13.8453C22.6315 13.8453 23.923 14.336 24.8312 14.9253C28.5262 17.3021 30.9758 17.9439 32.364 18.0699C31.6651 18.3485 29.4747 19.0717 26.6933 18.5556C26.8155 17.5967 26.1762 16.7035 25.2344 16.5403C24.4947 16.4117 23.7855 16.7724 23.4201 17.3917C23.2064 17.2777 22.996 17.1574 22.7894 17.031C21.4237 16.191 18.9358 15.8317 17.0158 16.8192C16.759 16.9514 16.488 17.1228 16.2194 17.3406C17.0044 15.7306 18.0851 14.6624 19.4465 14.1614ZM17.5919 13.9349C16.9755 13.9349 16.4744 13.4231 16.4744 12.7942C16.4744 12.1656 16.9755 11.6535 17.5919 11.6535C18.208 11.6535 18.709 12.1653 18.709 12.7942C18.709 13.4231 18.208 13.9349 17.5919 13.9349ZM20.474 40.0367C18.4712 38.906 16.5351 37.8117 14.8883 35.9028C17.209 33.4485 16.4097 31.7649 15.489 29.8267C14.6844 28.1317 13.7187 26.0967 14.4555 22.7535C14.5848 23.4032 14.8035 24.0318 15.1055 24.6214C16.2805 26.9199 18.7433 28.7535 22.0426 29.7856C24.2169 30.6539 25.7105 31.7942 26.4819 33.1749C27.6187 35.2106 27.9512 39.2046 26.1969 42.3142C25.8357 42.5863 25.4864 42.8738 25.1501 43.176C23.6705 41.8406 22.049 40.9256 20.474 40.0367ZM41.2344 8.3485L40.0547 8.78779C39.9369 8.83136 37.1215 9.83207 33.313 7.17064C30.7194 5.35779 27.9047 4.36029 25.1737 4.286L25.1465 4.28564L25.1226 4.28636C22.3919 4.36064 19.5772 5.35814 16.9833 7.171C13.1758 9.83172 10.359 8.83172 10.2487 8.79029L9.05511 8.32314L9.03618 9.62743C9.02653 10.3289 8.80761 26.8489 10.3683 31.3696C12.5315 37.636 16.1301 39.6671 19.6101 41.6317C21.3815 42.6317 23.0551 43.576 24.5187 45.0703L25.1501 45.7142L25.7812 45.0703C27.2447 43.576 28.9172 42.6321 30.6883 41.6321C34.1676 39.6674 37.7648 37.6364 39.9283 31.3696C41.489 26.8489 41.2701 10.3289 41.2605 9.62743L41.2344 8.34886V8.3485Z" fill="white"/>
<path d="M38.6705 28.9267L34.885 30.2191L42.6162 29.5834L38.6705 28.9267ZM37.4012 26.4531L34.1366 28.7645L34.1438 28.7747L37.4012 26.4531ZM30.6862 22.1003L29.682 18.2284L29.7516 25.9896L30.6862 22.1003ZM34.0819 17.5942L38.0753 17.8245L38.0753 17.8238L34.0819 17.5942ZM34.1201 16.9296L38.1135 17.1592L38.4508 11.2932L32.8696 13.1301L34.1201 16.9296ZM33.4994 17.1339L34.6435 20.9667L34.6969 20.9508L34.7499 20.9334L33.4994 17.1339ZM25.3076 14.1553L23.1313 17.5114L23.1375 17.5154L23.1436 17.5194L25.3076 14.1553ZM19.5665 13.1671L15.6333 12.4391L14.4609 18.7741L20.6587 17.0151L19.5665 13.1671ZM19.6012 12.7946L23.6012 12.8044V12.7946L19.6012 12.7946ZM16.953 14.7381L19.7958 17.5521L24.2805 13.0212L18.2499 10.9542L16.953 14.7381ZM14.7583 18.6046L18.5691 19.8204L18.5711 19.8138L14.7583 18.6046ZM14.4526 19.8231L18.1682 21.3045L18.3143 20.9381L18.386 20.5501L14.4526 19.8231ZM14.3865 19.9889L10.671 18.5075L10.6706 18.5084L14.3865 19.9889ZM14.6858 30.2246L11.0728 31.9411L11.0731 31.9415L14.6858 30.2246ZM14.318 35.1917L11.1114 37.583L13.9847 41.4358L17.2517 37.9107L14.318 35.1917ZM12.0515 30.7639L15.8326 29.4586L15.8325 29.4583L12.0515 30.7639ZM10.8115 10.7635L11.3073 6.79434L6.83725 6.236L6.8116 10.7407L10.8115 10.7635ZM17.9912 8.67457L15.7002 5.39566L15.6997 5.39597L17.9912 8.67457ZM25.148 6.10814L25.2656 2.10987L25.148 2.10641L25.0303 2.10987L25.148 6.10814ZM32.3051 8.67457L34.5968 5.39615L34.5959 5.3955L32.3051 8.67457ZM39.4844 10.7635L43.4843 10.7403L43.4582 6.23496L38.9877 6.79447L39.4844 10.7635ZM29.824 40.0374L31.7903 43.5208L31.7909 43.5204L29.824 40.0374ZM27.6533 41.3131L23.8995 39.9316L19.8351 50.975L29.7876 44.6962L27.6533 41.3131ZM27.2565 32.7239L30.7489 30.7736L30.7487 30.7734L27.2565 32.7239ZM22.5065 28.9956L19.0054 30.9301L19.6866 32.1629L20.9898 32.6969L22.5065 28.9956ZM21.7737 24.7599L25.5137 26.1784L25.5141 26.1774L21.7737 24.7599ZM24.0369 22.9674L25.1476 26.8101L25.1481 26.81L24.0369 22.9674ZM26.4226 22.5746H30.4226V18.2186L26.0824 18.5891L26.4226 22.5746ZM26.4226 22.5824H22.4226V26.5824H26.4226V22.5824ZM36.678 26.9867L33.4133 29.298L33.414 29.299L36.678 26.9867ZM38.1862 30.926L41.9567 32.2613L42.2406 31.4596L42.1738 30.6117L38.1862 30.926ZM23.7937 22.091L24.9043 25.9337L27.7937 25.0986V22.091H23.7937ZM20.9412 24.431L17.2014 23.0117L17.2009 23.0132L20.9412 24.431ZM21.3062 28.5678L19.8637 32.2986L28.638 35.6911L24.9939 27.0183L21.3062 28.5678ZM15.8965 24.2006L12.3334 26.0183L12.3349 26.0214L15.8965 24.2006ZM15.2162 21.3699L11.2359 20.973L11.2144 21.1888L11.2163 21.4056L15.2162 21.3699ZM17.4172 17.6331L19.2461 21.1906L19.2479 21.1897L17.4172 17.6331ZM22.328 17.8117L20.2303 21.2176L20.2325 21.2189L22.328 17.8117ZM32.9876 18.7892L31.2566 15.1831L31.2339 15.1941L31.2112 15.2053L32.9876 18.7892ZM33.0055 18.7806L36.8744 19.7962L39.0698 11.4327L31.2745 15.1746L33.0055 18.7806ZM27.5055 21.5828L27.7633 25.5745L27.764 25.5744L27.5055 21.5828ZM23.7937 22.0903L22.6834 18.2475L19.7937 19.0824V22.0903H23.7937ZM19.4465 14.1614L18.0669 10.4068L18.0649 10.4075L19.4465 14.1614ZM24.8312 14.9253L22.654 18.2808L22.6606 18.2851L22.6672 18.2894L24.8312 14.9253ZM32.364 18.0699L33.845 21.7857L32.7258 14.0863L32.364 18.0699ZM26.6933 18.5556L22.7254 18.0502L22.2479 21.7991L25.9636 22.4885L26.6933 18.5556ZM25.2344 16.5403L24.5493 20.4812L24.5514 20.4815L25.2344 16.5403ZM23.4201 17.3917L21.5373 20.9209L24.9181 22.7246L26.8652 19.4242L23.4201 17.3917ZM22.7894 17.031L20.6938 20.4381L20.7023 20.4433L22.7894 17.031ZM17.0158 16.8192L15.1863 13.2621L15.1855 13.2625L17.0158 16.8192ZM16.2194 17.3406L12.624 15.5876L18.7393 20.4471L16.2194 17.3406ZM20.474 40.0367L18.5076 43.52L18.508 43.5202L20.474 40.0367ZM14.8883 35.9028L11.9819 33.1546L9.49951 35.7798L11.8596 38.5156L14.8883 35.9028ZM15.489 29.8267L11.8755 31.5421L11.876 31.543L15.489 29.8267ZM14.4555 22.7535L18.3785 21.9726L10.5492 21.8926L14.4555 22.7535ZM15.1055 24.6214L18.6671 22.8007L18.6658 22.7981L15.1055 24.6214ZM22.0426 29.7856L23.526 26.0709L23.3834 26.0139L23.2369 25.9681L22.0426 29.7856ZM26.4819 33.1749L29.9743 31.2247L29.9738 31.2239L26.4819 33.1749ZM26.1969 42.3142L28.6034 45.5093L29.2704 45.0069L29.6807 44.2796L26.1969 42.3142ZM25.1501 43.176L22.4702 46.1455L25.1442 48.5588L27.8236 46.1513L25.1501 43.176ZM41.2344 8.3485H45.2344V2.5906L39.8385 4.59998L41.2344 8.3485ZM40.0547 8.78779L41.4418 12.5396L41.4507 12.5363L40.0547 8.78779ZM33.313 7.17064L31.0214 10.4491L31.0218 10.4494L33.313 7.17064ZM25.1737 4.286L25.2824 0.287481L25.2544 0.286718L25.2263 0.286348L25.1737 4.286ZM25.1465 4.28564L25.1992 0.285991L25.1132 0.284859L25.0272 0.287425L25.1465 4.28564ZM25.1226 4.28636L25.2314 8.28489L25.2419 8.28458L25.1226 4.28636ZM16.9833 7.171L19.2745 10.4498L19.2747 10.4496L16.9833 7.171ZM10.2487 8.79029L8.79083 12.5152L8.81677 12.5253L8.84285 12.5351L10.2487 8.79029ZM9.05511 8.32314L10.513 4.59827L5.13926 2.4951L5.05553 8.2651L9.05511 8.32314ZM9.03618 9.62743L5.0366 9.56939L5.03656 9.57245L9.03618 9.62743ZM10.3683 31.3696L14.1494 30.0643L14.1493 30.0642L10.3683 31.3696ZM19.6101 41.6317L17.6436 45.115L17.6437 45.115L19.6101 41.6317ZM24.5187 45.0703L21.661 47.8692L21.6627 47.8709L24.5187 45.0703ZM25.1501 45.7142L22.2941 48.5148L25.1509 51.4282L28.0069 48.514L25.1501 45.7142ZM25.7812 45.0703L28.638 47.87L28.6388 47.8692L25.7812 45.0703ZM30.6883 41.6321L32.655 45.1152L32.6551 45.1151L30.6883 41.6321ZM39.9283 31.3696L43.7093 32.6749L43.7093 32.6749L39.9283 31.3696ZM41.2605 9.62743L45.2601 9.57245L45.2599 9.55916L45.2596 9.54589L41.2605 9.62743ZM41.2344 8.34886H37.2344V8.38964L37.2352 8.4304L41.2344 8.34886ZM42.4559 27.6343C42.0297 26.3858 41.4242 25.2059 40.6585 24.1316L34.1438 28.7747C34.4596 29.2177 34.7092 29.7043 34.885 30.2191L42.4559 27.6343ZM40.6658 24.1418C39.2701 22.1706 36.4826 19.3793 31.6208 18.211L29.7516 25.9896C32.3148 26.6055 33.5872 27.9886 34.1366 28.7645L40.6658 24.1418ZM31.6903 25.9722C33.0775 25.6124 34.7291 24.9007 36.0392 23.3712C37.3596 21.8297 37.9555 19.9006 38.0753 17.8245L30.0885 17.3639C30.0636 17.7956 29.9998 18.033 29.9631 18.1371C29.9305 18.2296 29.9194 18.2183 29.9634 18.1669C30.0716 18.0406 30.1098 18.1174 29.682 18.2284L31.6903 25.9722ZM38.0753 17.8238L38.1135 17.1592L30.1267 16.7L30.0885 17.3646L38.0753 17.8238ZM32.8696 13.1301L32.2489 13.3343L34.7499 20.9334L35.3706 20.7291L32.8696 13.1301ZM32.3552 13.301C33.8243 12.8625 32.5534 14.06 27.4716 10.7912L23.1436 17.5194C29.4183 21.5555 33.1266 21.4195 34.6435 20.9667L32.3552 13.301ZM27.4839 10.7991C25.4372 9.47194 22.0498 8.30428 18.4744 9.31905L20.6587 17.0151C20.9999 16.9182 21.4155 16.9055 21.8917 17.0066C22.3786 17.1099 22.8229 17.3114 23.1313 17.5114L27.4839 10.7991ZM23.4997 13.895C23.5663 13.5353 23.6003 13.1703 23.6012 12.8044L15.6012 12.7847C15.6015 12.6688 15.6122 12.5531 15.6333 12.4391L23.4997 13.895ZM23.6012 12.7946C23.6012 9.53224 20.986 6.74279 17.5915 6.74279V14.7428C16.4128 14.7428 15.6012 13.7941 15.6012 12.7946L23.6012 12.7946ZM17.5915 6.74279C14.1964 6.74279 11.5815 9.53223 11.5815 12.7946H19.5815C19.5815 13.7941 18.7695 14.7428 17.5915 14.7428V6.74279ZM11.5815 12.7946C11.5815 15.424 13.2587 17.7004 15.656 18.522L18.2499 10.9542C19.0551 11.2302 19.5815 11.9723 19.5815 12.7946H11.5815ZM14.1101 11.9242C12.6301 13.4194 11.6042 15.3185 10.9455 17.3953L18.5711 19.8138C18.9396 18.6521 19.4015 17.9504 19.7958 17.5521L14.1101 11.9242ZM10.9476 17.3887C10.769 17.9483 10.626 18.5186 10.5192 19.0962L18.386 20.5501C18.4316 20.3033 18.4928 20.0596 18.5691 19.8204L10.9476 17.3887ZM10.737 18.3417L10.671 18.5075L18.1021 21.4703L18.1682 21.3045L10.737 18.3417ZM10.6706 18.5084C9.411 21.6699 9.10543 24.3833 9.41106 26.779C9.70944 29.1179 10.5708 30.8842 11.0728 31.9411L18.2988 28.5081C17.7962 27.4503 17.4672 26.7108 17.3467 25.7666C17.2335 24.8792 17.2806 23.5321 18.1025 21.4693L10.6706 18.5084ZM11.0731 31.9415C11.187 32.1812 11.2738 32.3645 11.3497 32.5332C11.4241 32.6987 11.4706 32.8122 11.5007 32.894C11.5629 33.0632 11.5162 32.996 11.5103 32.795C11.5072 32.6893 11.516 32.5712 11.5407 32.4515C11.565 32.3331 11.5982 32.2456 11.6212 32.1953C11.6613 32.1076 11.642 32.1946 11.3842 32.4727L17.2517 37.9107C18.569 36.4895 19.5708 34.7421 19.5069 32.5607C19.4548 30.7836 18.6331 29.2115 18.2986 28.5076L11.0731 31.9415ZM17.5245 32.8004C16.9354 32.0105 16.35 30.9575 15.8326 29.4586L8.27049 32.0691C9.02591 34.2574 9.97622 36.0608 11.1114 37.583L17.5245 32.8004ZM15.8325 29.4583C15.6902 29.0463 15.4883 28.0022 15.3132 26.2658C15.1489 24.6368 15.0345 22.6981 14.957 20.7014C14.8021 16.714 14.8007 12.6767 14.8115 10.7863L6.8116 10.7407C6.80058 12.6767 6.80134 16.8503 6.96299 21.0119C7.04369 23.0897 7.16613 25.2099 7.35359 27.0686C7.53022 28.8199 7.79502 30.6922 8.2706 32.0694L15.8325 29.4583ZM10.3158 14.7327C12.6199 15.0205 16.279 14.7513 20.2826 11.9532L15.6997 5.39597C13.5233 6.91709 11.9082 6.8694 11.3073 6.79434L10.3158 14.7327ZM20.2822 11.9535C22.0637 10.7087 23.7966 10.1496 25.2656 10.1064L25.0303 2.10987C21.74 2.20666 18.525 3.42189 15.7002 5.39566L20.2822 11.9535ZM25.0303 10.1064C26.4993 10.1496 28.2322 10.7087 30.0143 11.9536L34.5959 5.3955C31.7708 3.4219 28.556 2.20666 25.2656 2.10987L25.0303 10.1064ZM30.0134 11.953C34.0169 14.7515 37.676 15.021 39.9811 14.7325L38.9877 6.79447C38.3877 6.86955 36.7733 6.9176 34.5968 5.39615L30.0134 11.953ZM35.4845 10.7867C35.5044 14.229 35.4716 23.7825 34.7247 28.27L42.6162 29.5834C43.5 24.2731 43.5029 13.9472 43.4843 10.7403L35.4845 10.7867ZM27.8577 36.5541C27.1418 36.9582 26.3338 37.4161 25.519 37.9301L29.7876 44.6962C30.4164 44.2995 31.0662 43.9295 31.7903 43.5208L27.8577 36.5541ZM31.4072 42.6947C32.9386 38.5337 32.4522 33.8238 30.7489 30.7736L23.7642 34.6741C23.9735 35.0489 24.2375 35.8179 24.31 36.8684C24.3805 37.8889 24.2544 38.9672 23.8995 39.9316L31.4072 42.6947ZM30.7487 30.7734C29.2995 28.1786 26.8154 26.4385 24.0232 25.2943L20.9898 32.6969C22.7856 33.4328 23.4993 34.1998 23.7643 34.6744L30.7487 30.7734ZM26.0077 27.0612C25.9811 27.0132 25.9169 26.8923 25.844 26.727C25.7698 26.5586 25.7005 26.3755 25.6508 26.1997C25.5993 26.0173 25.5871 25.9071 25.5856 25.8696C25.5841 25.8325 25.5965 25.9602 25.5137 26.1784L18.0336 23.3414C17.2774 25.3353 17.6393 27.2678 17.9525 28.3758C18.292 29.5769 18.7848 30.5308 19.0054 30.9301L26.0077 27.0612ZM25.5141 26.1774C25.4628 26.3127 25.3912 26.4436 25.3039 26.5607C25.2175 26.6766 25.1316 26.7578 25.0667 26.8092C24.9441 26.9063 24.9278 26.8736 25.1476 26.8101L22.9262 19.1247C20.9992 19.6817 18.9475 20.93 18.0332 23.3425L25.5141 26.1774ZM25.1481 26.81C25.5218 26.7019 26.0273 26.6229 26.7628 26.5601L26.0824 18.5891C25.1779 18.6663 24.0563 18.7979 22.9257 19.1249L25.1481 26.81ZM22.4226 22.5746V22.5824H30.4226V22.5746H22.4226ZM26.4226 26.5824H26.869V18.5824H26.4226V26.5824ZM26.869 26.5824C31.1701 26.5824 32.86 28.5164 33.4133 29.298L39.9426 24.6754C38.1667 22.167 34.2108 18.5824 26.869 18.5824V26.5824ZM33.414 29.299C33.9744 30.0901 34.1656 30.8221 34.1985 31.2403L42.1738 30.6117C42.0253 28.7278 41.3201 26.6198 39.9419 24.6744L33.414 29.299ZM34.4157 29.5907C33.6412 31.7773 32.7094 33.0396 31.7639 33.9351C30.7388 34.9061 29.5613 35.5921 27.8572 36.5544L31.7909 43.5204C33.3874 42.6189 35.42 41.4911 37.2653 39.7433C39.1901 37.9201 40.789 35.5586 41.9567 32.2613L34.4157 29.5907ZM22.683 18.2483C20.3591 18.92 18.1913 20.4034 17.2014 23.0117L24.6809 25.8503C24.6657 25.8905 24.6398 25.9417 24.6024 25.9933C24.5653 26.0446 24.5317 26.0759 24.5161 26.0887C24.4877 26.1119 24.5761 26.0286 24.9043 25.9337L22.683 18.2483ZM17.2009 23.0132C16.0733 25.988 17.1092 28.9052 17.6185 30.1173L24.9939 27.0183C24.8576 26.694 24.7539 26.3596 24.7128 26.0763C24.6705 25.7855 24.7215 25.7433 24.6815 25.8488L17.2009 23.0132ZM22.7486 24.8369C20.788 24.0789 19.8227 23.0932 19.4581 22.3799L12.3349 26.0214C13.8596 29.0038 16.6958 31.0738 19.8637 32.2986L22.7486 24.8369ZM19.4597 22.383C19.3062 22.0821 19.2197 21.7487 19.216 21.3342L11.2163 21.4056C11.2305 22.9926 11.5869 24.5549 12.3334 26.0183L19.4597 22.383ZM19.1964 21.7669C19.2442 21.2878 19.344 21.1082 19.3518 21.0949C19.3542 21.0908 19.3414 21.1124 19.31 21.1422C19.2784 21.1722 19.2519 21.1876 19.2461 21.1906L15.5884 14.0757C12.767 15.5261 11.51 18.2248 11.2359 20.973L19.1964 21.7669ZM19.2479 21.1897C19.2701 21.1782 19.4437 21.1106 19.7921 21.142C19.9499 21.1562 20.0932 21.1872 20.2005 21.2205C20.3212 21.2579 20.3236 21.275 20.2303 21.2176L24.4256 14.4058C23.3114 13.7196 21.8973 13.299 20.5086 13.1741C19.0839 13.046 17.299 13.1952 15.5866 14.0766L19.2479 21.1897ZM20.2325 21.2189C27.574 25.734 34.1357 22.6846 34.764 22.3731L31.2112 15.2053C31.4288 15.0974 28.2048 16.7301 24.4234 14.4045L20.2325 21.2189ZM34.7186 22.3953L34.7364 22.3867L31.2745 15.1746L31.2566 15.1831L34.7186 22.3953ZM29.1365 17.7651C29.1146 17.8486 29.138 17.7127 29.3073 17.5293C29.4712 17.3519 29.6141 17.301 29.579 17.3144C29.5136 17.3395 29.3179 17.3985 28.8839 17.4549C28.4458 17.5118 27.943 17.5461 27.247 17.5911L27.764 25.5744C28.9047 25.5006 30.7976 25.4154 32.4445 24.7836C33.3692 24.4289 34.3459 23.8652 35.185 22.9563C36.0297 22.0416 36.5701 20.9556 36.8744 19.7962L29.1365 17.7651ZM27.2476 17.5911C26.0905 17.6658 24.3663 17.7612 22.6834 18.2475L24.904 25.9331C25.6067 25.7301 26.4433 25.6597 27.7633 25.5745L27.2476 17.5911ZM19.7937 22.0903V22.091H27.7937V22.0903H19.7937ZM20.8262 17.9159C20.9439 17.8726 21.0859 17.8453 21.2637 17.8453V9.84529C20.2429 9.84529 19.1563 10.0065 18.0669 10.4068L20.8262 17.9159ZM21.2637 17.8453C21.4744 17.8453 21.7231 17.8843 21.9894 17.9704C22.2577 18.0571 22.4899 18.1744 22.654 18.2808L27.0084 11.5697C25.5729 10.6383 23.5368 9.84529 21.2637 9.84529V17.8453ZM22.6672 18.2894C26.7497 20.9155 29.8112 21.8546 32.0023 22.0535L32.7258 14.0863C32.1404 14.0332 30.3026 13.6887 26.9951 11.5612L22.6672 18.2894ZM30.8831 14.3542C30.5772 14.4761 29.1917 14.9509 27.423 14.6228L25.9636 22.4885C29.7578 23.1925 32.753 22.2209 33.845 21.7857L30.8831 14.3542ZM30.6613 19.0611C31.0431 16.0633 29.0489 13.1417 25.9174 12.599L24.5514 20.4815C23.3035 20.2653 22.5878 19.1302 22.7254 18.0502L30.6613 19.0611ZM25.9194 12.5994C23.4457 12.1694 21.1362 13.3909 19.975 15.3592L26.8652 19.4242C26.4347 20.154 25.5438 20.6541 24.5493 20.4812L25.9194 12.5994ZM25.3029 13.8626C25.1584 13.7855 25.0162 13.7041 24.8765 13.6187L20.7023 20.4433C20.9759 20.6107 21.2543 20.7699 21.5373 20.9209L25.3029 13.8626ZM24.885 13.6239C23.5653 12.8122 21.9546 12.3577 20.3863 12.2493C18.7957 12.1394 16.932 12.3643 15.1863 13.2621L18.8453 20.3763C19.0196 20.2867 19.3599 20.1975 19.8346 20.2303C20.0574 20.2457 20.2639 20.2857 20.4333 20.3365C20.5163 20.3613 20.5818 20.3862 20.6292 20.4068C20.6774 20.4279 20.6977 20.4405 20.6938 20.4381L24.885 13.6239ZM15.1855 13.2625C14.697 13.5139 14.1929 13.834 13.6995 14.2342L18.7393 20.4471C18.783 20.4116 18.8211 20.3888 18.8461 20.3759L15.1855 13.2625ZM19.8148 19.0937C20.2629 18.1747 20.6567 17.9783 20.8281 17.9152L18.0649 10.4075C15.5135 11.3466 13.7459 13.2866 12.624 15.5876L19.8148 19.0937ZM17.5919 9.93493C19.2624 9.93493 20.4744 11.2926 20.4744 12.7942H12.4744C12.4744 15.5537 14.6885 17.9349 17.5919 17.9349V9.93493ZM20.4744 12.7942C20.4744 14.2953 19.2632 15.6535 17.5919 15.6535V7.6535C14.6877 7.6535 12.4744 10.036 12.4744 12.7942H20.4744ZM17.5919 15.6535C15.9202 15.6535 14.709 14.2949 14.709 12.7942H22.709C22.709 10.0356 20.4958 7.6535 17.5919 7.6535V15.6535ZM14.709 12.7942C14.709 11.2935 15.9202 9.93493 17.5919 9.93493V17.9349C20.4958 17.9349 22.709 15.5528 22.709 12.7942H14.709ZM22.4405 36.5535C20.3825 35.3916 19.0467 34.5994 17.9171 33.29L11.8596 38.5156C14.0235 41.024 16.5599 42.4204 18.5076 43.52L22.4405 36.5535ZM17.7947 38.651C19.4611 36.8887 20.462 34.8787 20.4029 32.5689C20.3524 30.5972 19.4793 28.9045 19.1021 28.1104L11.876 31.543C12.1236 32.0644 12.2557 32.3506 12.3449 32.5993C12.4235 32.8184 12.4075 32.85 12.4055 32.7736C12.4045 32.7325 12.408 32.6821 12.418 32.6315C12.428 32.5814 12.4391 32.5577 12.4355 32.5658C12.4257 32.5879 12.333 32.7833 11.9819 33.1546L17.7947 38.651ZM19.1025 28.1113C18.6893 27.2409 18.4411 26.6878 18.3012 26.0506C18.1759 25.4798 18.1177 24.7216 18.3617 23.6144L10.5492 21.8926C9.51532 26.5839 10.9757 29.6466 11.8755 31.5421L19.1025 28.1113ZM10.5324 23.5344C10.7339 24.5466 11.0747 25.526 11.5452 26.4446L18.6658 22.7981C18.5323 22.5375 18.4356 22.2597 18.3785 21.9726L10.5324 23.5344ZM11.5438 26.442C13.3561 29.9873 16.8834 32.3628 20.8483 33.6032L23.2369 25.9681C20.6033 25.1442 19.2048 23.8526 18.6671 22.8007L11.5438 26.442ZM20.5593 33.5004C22.2762 34.186 22.8367 34.8516 22.99 35.1259L29.9738 31.2239C28.5842 28.7368 26.1576 27.1217 23.526 26.0709L20.5593 33.5004ZM22.9895 35.1251C23.1522 35.4164 23.4195 36.2193 23.4236 37.3563C23.4275 38.4472 23.1855 39.5113 22.713 40.3488L29.6807 44.2796C30.9625 42.0075 31.4314 39.5198 31.4235 37.3274C31.4158 35.1811 30.9484 32.9691 29.9743 31.2247L22.9895 35.1251ZM23.7904 39.1191C23.3371 39.4605 22.8988 39.8214 22.4767 40.2007L27.8236 46.1513C28.0741 45.9262 28.3343 45.712 28.6034 45.5093L23.7904 39.1191ZM27.83 40.2065C25.9737 38.5311 23.9712 37.4174 22.4401 36.5532L18.508 43.5202C20.1269 44.4339 21.3673 45.1501 22.4702 46.1455L27.83 40.2065ZM39.8385 4.59998L38.6588 5.03926L41.4507 12.5363L42.6303 12.097L39.8385 4.59998ZM38.6677 5.03597C38.998 4.91385 38.8325 5.03459 38.3253 5.00189C37.854 4.97148 36.9027 4.7993 35.6042 3.89187L31.0218 10.4494C36.1989 14.0672 40.4744 12.8973 41.4418 12.5396L38.6677 5.03597ZM35.6046 3.89215C32.4735 1.70356 28.9137 0.386253 25.2824 0.287481L25.0649 8.28452C26.8958 8.33432 28.9653 9.01201 31.0214 10.4491L35.6046 3.89215ZM25.2263 0.286348L25.1992 0.285991L25.0939 8.2853L25.121 8.28566L25.2263 0.286348ZM25.0272 0.287425L25.0033 0.288139L25.2419 8.28458L25.2659 8.28386L25.0272 0.287425ZM25.0138 0.287838C21.3828 0.386615 17.8232 1.70396 14.6919 3.89236L19.2747 10.4496C21.3313 9.01232 23.401 8.33467 25.2314 8.28488L25.0138 0.287838ZM14.6921 3.89224C13.3942 4.79919 12.4425 4.97174 11.9708 5.00233C11.4577 5.0356 11.2979 4.91162 11.6545 5.04547L8.84285 12.5351C9.82534 12.9039 14.1045 14.0626 19.2745 10.4498L14.6921 3.89224ZM11.7065 5.06542L10.513 4.59827L7.59726 12.048L8.79083 12.5152L11.7065 5.06542ZM5.05553 8.2651L5.0366 9.56939L13.0358 9.68547L13.0547 8.38119L5.05553 8.2651ZM5.03656 9.57245C5.03147 9.94233 4.97342 14.3144 5.11506 19.1826C5.18577 21.6132 5.3075 24.2144 5.51669 26.5246C5.71483 28.7127 6.02111 31.0349 6.5873 32.6749L14.1493 30.0642C13.9352 29.4439 13.6836 28.0058 13.4841 25.8031C13.2957 23.7224 13.1801 21.3021 13.1117 18.9499C12.975 14.2526 13.0312 10.014 13.0358 9.68241L5.03656 9.57245ZM6.58727 32.6748C7.86437 36.3743 9.63883 39.0018 11.7292 41.0031C13.7484 42.9362 15.9483 44.1579 17.6436 45.115L21.5766 38.1485C19.7919 37.1409 18.4526 36.3647 17.2616 35.2245C16.1419 34.1525 15.0355 32.6312 14.1494 30.0643L6.58727 32.6748ZM17.6437 45.115C19.4783 46.1507 20.6544 46.8414 21.661 47.8692L27.3763 42.2714C25.4558 40.3106 23.2847 39.1127 21.5765 38.1484L17.6437 45.115ZM21.6627 47.8709L22.2941 48.5148L28.0061 42.9136L27.3747 42.2697L21.6627 47.8709ZM28.0069 48.514L28.638 47.87L22.9244 42.2705L22.2933 42.9145L28.0069 48.514ZM28.6388 47.8692C29.6457 46.8412 30.821 46.1507 32.655 45.1152L28.7216 38.1489C27.0135 39.1134 24.8438 40.3108 22.9235 42.2714L28.6388 47.8692ZM32.6551 45.1151C34.3502 44.158 36.5496 42.9363 38.5683 41.0031C40.6582 39.0017 42.4322 36.3743 43.7093 32.6749L36.1473 30.0642C35.2609 32.6317 34.1545 34.1532 33.0351 35.2252C31.8446 36.3653 30.5057 37.1415 28.7215 38.149L32.6551 45.1151ZM43.7093 32.6749C44.2755 31.0349 44.5818 28.7127 44.78 26.5246C44.9891 24.2144 45.1109 21.6132 45.1816 19.1826C45.3232 14.3144 45.2652 9.94233 45.2601 9.57245L37.2608 9.68241C37.2654 10.014 37.3216 14.2526 37.185 18.9499C37.1165 21.3021 37.001 23.7224 36.8126 25.8031C36.6131 28.0058 36.3615 29.4439 36.1473 30.0642L43.7093 32.6749ZM45.2596 9.54589L45.2336 8.26731L37.2352 8.4304L37.2613 9.70898L45.2596 9.54589ZM45.2344 8.34886V8.3485H37.2344V8.34886H45.2344Z" fill="white" mask="url(#path-2-inside-1_256_159)"/>
</g>
<defs>
<clipPath id="clip0_256_159">
<rect width="50" height="50" fill="white"/>
</clipPath>
</defs>
</svg>
