<svg width="50" height="50" viewBox="0 0 50 50" fill="none" xmlns="http://www.w3.org/2000/svg">
<path d="M5.57894 5.60565L6.27209 5.69935L6.27209 5.69935L6.27439 5.69966C6.35207 5.70979 9.22832 6.07293 12.9133 5.67309C16.5881 5.27436 21.1432 4.10884 24.5055 0.998831L24.8853 0.647849L25.301 0.954768C25.301 0.954791 25.301 0.954815 25.3011 0.954838C33.4123 6.94734 43.3885 5.73083 43.6285 5.69909L5.57894 5.60565ZM5.57894 5.60565L5.56197 6.30946L5.56197 6.30958C5.55171 6.73064 5.43216 11.9324 5.55524 17.7105C5.61679 20.5999 5.7389 23.6274 5.96487 26.2704C6.1922 28.9292 6.52106 31.1483 6.97874 32.4514C8.28296 36.1644 10.0326 38.6028 11.9775 40.4044C13.932 42.2149 16.0981 43.3977 18.2872 44.5905L18.3118 44.6039C20.5209 45.8069 22.68 46.9827 24.5381 48.8475C24.5381 48.8475 24.5381 48.8475 24.5381 48.8476L24.9808 49.2917L25.4235 48.8475L25.4235 48.8475C27.2722 46.9932 29.3822 45.8227 31.5437 44.6236L31.5696 44.6092C31.5696 44.6092 31.5697 44.6092 31.5697 44.6092C33.719 43.4166 35.8455 42.2343 37.771 40.4221C39.6874 38.6186 41.4194 36.1751 42.727 32.4515L42.727 32.4514C43.1849 31.1477 43.525 28.9284 43.77 26.2708C44.0135 23.6286 44.1593 20.602 44.2449 17.7134C44.416 11.9371 44.3458 6.73656 44.3398 6.3151L44.3285 5.60568L43.6318 5.69865L5.57894 5.60565Z" stroke="white"/>
<path fill-rule="evenodd" clip-rule="evenodd" d="M31.5529 39.1302C35.5962 34.5893 36.2294 30.2978 35.6837 26.575C36.2822 27.2548 36.9253 27.6137 37.608 27.644C37.638 27.6452 37.668 27.6458 37.6976 27.6458C38.2553 27.6458 38.802 27.4139 39.3099 26.9755C39.1471 28.5657 38.9297 29.8949 38.6388 30.7301C36.9874 35.4755 34.3996 37.4805 31.5529 39.1302ZM25.148 43.1779C23.6308 41.8253 21.9443 40.9012 20.3066 40.0037C17.9274 38.6997 15.6398 37.4452 13.809 34.9494C15.8754 36.0669 17.9872 36.4938 19.9591 36.4935C23.0333 36.4935 25.7662 35.4643 27.4507 34.4314C31.7526 31.794 33.7267 27.0465 33.7339 22.6288C33.88 23.0393 34.0202 23.4592 34.1513 23.8872L34.1432 23.8912L34.1738 23.9613C35.6025 28.6854 35.8057 34.4581 28.5861 40.7858C27.4069 41.4625 26.234 42.2097 25.148 43.1779ZM23.7028 13.4529L24.709 15.6465C24.6304 15.6168 24.5534 15.5898 24.4808 15.5651C24.3891 15.5345 24.2982 15.5048 24.2119 15.4665C22.991 14.9254 21.2295 15.0435 20.1354 15.1948L20.9677 13.7975C21.4208 13.6871 22.6786 13.4108 23.7028 13.4529ZM26.9848 33.6523C24.1298 35.4029 18.0579 37.1401 12.7029 33.1672C12.3233 32.4437 11.9728 31.6376 11.6572 30.7301C10.9237 28.6234 10.6521 23.3945 10.5636 18.6625L13.8201 15.7406C13.3245 18.8262 13.517 21.5531 14.3955 23.8623C15.492 26.7429 17.3443 28.1696 18.7055 28.8594C21.6276 30.3403 25.0269 29.782 26.9706 27.5023C29.7408 24.2522 27.9589 20.4935 27.1979 18.8887C27.1023 18.6874 27.0231 18.521 26.973 18.395C26.8091 17.9833 26.6234 17.6111 26.4217 17.2772L26.4439 17.2666L24.9384 13.9846L25.6301 14.6671L27.0939 13.1463L24.569 13.1791L24.4995 13.027L25.2964 11.4625L29.599 12.6384C30.4493 14.4973 31.5706 17.0561 31.9572 17.9418L32.0258 18.1446C32.1214 18.4269 32.2288 18.7184 32.3412 19.0149C33.7564 23.8766 32.2195 30.4426 26.9848 33.6523ZM10.5562 10.5493C11.5864 10.6192 13.323 10.6686 15.3576 10.4497C19.3349 10.0223 22.6993 8.74042 25.148 6.72784C27.5967 8.74042 30.9611 10.0223 34.938 10.4497C36.9729 10.6686 38.7102 10.6195 39.7401 10.5493C39.7797 13.1066 39.8424 20.1699 39.4457 25.4325C38.8841 26.2905 38.2457 26.7605 37.647 26.7341C36.808 26.6971 35.9202 25.704 35.1476 23.9385L35.0031 23.6076C34.6055 22.2988 34.1249 21.088 33.6907 19.9948C33.515 19.5523 33.3465 19.1261 33.1909 18.715C33.1132 18.4521 33.0305 18.1923 32.937 17.9394C32.9319 17.9248 32.8806 17.8057 32.7954 17.6096L32.73 17.4174L32.7139 17.4232C32.2374 16.3305 31.1023 13.7508 30.3267 12.0622L30.2382 11.8699L24.8296 10.3918L23.7343 12.5419C22.3341 12.4875 20.6379 12.9408 20.5618 12.9618L20.387 13.0091L18.3127 16.4921L19.3409 16.2576C19.3694 16.2516 22.2744 15.6024 23.8515 16.3011C23.9637 16.3505 24.0797 16.3903 24.1975 16.4295C24.3544 16.4823 24.5025 16.5322 24.6242 16.6098C25.2103 16.9848 25.7342 17.7198 26.1383 18.7353C26.1941 18.875 26.2813 19.0599 26.3872 19.2827C27.1296 20.8494 28.6749 24.1086 26.2895 26.9069C24.6155 28.8712 21.6622 29.3394 19.1082 28.0448C14.4125 25.6657 13.881 19.5454 14.949 14.6109L15.2446 13.2456L10.545 17.4621C10.5075 14.5192 10.5349 11.9024 10.5562 10.5493ZM41.4962 8.51576L40.5023 8.65026C40.409 8.6624 31.1146 9.85437 25.7575 4.8546L25.148 4.28564L24.5381 4.8546C19.1943 9.84225 9.88572 8.6627 9.79399 8.65026L8.79975 8.51576L8.77547 9.53132C8.75898 10.2342 8.38209 26.8003 9.96043 31.3355C12.1407 37.6004 15.8569 39.6367 19.4506 41.6058C21.2886 42.6129 23.0249 43.5641 24.5121 45.0699L25.148 45.7142L25.7839 45.0699C27.2714 43.5641 29.0074 42.6132 30.8453 41.6058C34.4391 39.6367 38.1552 37.6004 40.3352 31.3355C41.9142 26.8003 41.5373 10.2342 41.5205 9.53132L41.4962 8.51576Z" fill="white"/>
</svg>
