<svg width="50" height="50" viewBox="0 0 50 50" fill="none" xmlns="http://www.w3.org/2000/svg">
<g opacity="0.7">
<path d="M42.786 7.32143H42.7938L42.8016 7.32118L43.4006 7.30247L42.3938 26.1877L42.3937 26.1895C42.2749 28.5837 41.1865 31.1784 39.5584 33.7595C37.9346 36.3336 35.801 38.8521 33.6491 41.0862C29.3519 45.5473 25.0253 48.8294 24.6661 49.0988C24.6656 49.0992 24.6651 49.0996 24.6646 49.1L24.286 49.3789L23.9112 49.1028C23.9111 49.1027 23.9109 49.1026 23.9107 49.1024C23.5326 48.804 19.3315 45.4873 15.1638 41.0505C13.067 38.8183 10.9893 36.3138 9.41205 33.7773C7.83007 31.2331 6.78017 28.7018 6.67839 26.4071C6.67838 26.4069 6.67837 26.4067 6.67836 26.4065L5.87944 7.30176L6.52085 7.3212L6.52842 7.32143H6.53599C6.5324 7.32143 6.58775 7.32198 6.67038 7.32148C6.75574 7.32096 6.87836 7.31935 7.03481 7.31503C7.34767 7.30638 7.79594 7.28687 8.35223 7.24346C9.46428 7.1567 11.0108 6.97426 12.7717 6.59126C16.2849 5.82713 20.6931 4.25564 24.1946 1.01209L24.5889 0.657212L25.0054 0.994364C25.0057 0.994599 25.006 0.994833 25.0062 0.995067C32.7515 7.32158 42.6125 7.32143 42.7857 7.32143H42.786Z" stroke="white"/>
<path d="M22.1071 16.5715L22.8214 14.1072L19.5 15.8215L22.1071 16.5715Z" fill="white"/>
<path d="M37.6787 25.9107C37.643 26.4464 37.5359 27.0179 37.393 27.625C36.9644 26.9464 36.3216 26.3393 35.5359 25.9464C34.0716 25.2321 32.393 25.3036 30.8573 26.2321L23.2859 31.5179C21.4644 32.6964 19.9287 33.4107 18.3216 31.2679C19.643 30.2679 24.4287 26.5893 28.6073 23.6964C28.7501 23.5893 28.9287 23.4821 29.0716 23.3393C29.3216 23.1607 29.5716 22.9821 29.7501 22.8393C31.0001 22.0893 31.8573 20.6607 32.0716 19.0536C32.3216 17.1964 31.6787 15.375 30.2859 13.9464L30.2501 13.9107C27.393 11.4464 25.1787 10.0179 25.0716 9.94643L24.8573 9.80357L16.893 13.9107L16.8573 14.125C16.7859 14.4464 16.7144 16.5893 16.7144 17.5179V17.8393L18.2144 18.4464C17.6787 18.6964 17.1073 18.9821 16.7144 19.5179L14.7144 19.4821V20.4107L16.3216 20.4464C16.2144 20.8036 16.1787 21.2679 16.2144 21.7679L16.2501 22.2321L17.1787 22.1607L17.143 21.6964C17.0359 20.0179 17.7501 19.625 19.0001 19.125L19.4287 18.9464V18.9107L21.9644 19.9464L25.2859 17.3393C25.4644 17.5893 25.6787 17.9821 25.643 18.4107C25.6073 18.7679 25.4287 19.0893 25.0359 19.375L14.0359 27.3036C13.3573 27.7321 12.4644 28.5179 11.893 29.5536C11.2859 28.3036 10.9644 27.125 10.9287 26.125L10.3216 11.6607C12.7859 11.5536 19.3573 10.8393 24.393 6.58929C29.8216 10.6964 36.0716 11.5179 38.4287 11.6607L37.6787 25.9107ZM30.6787 37.6964C28.0716 40.4107 25.5001 42.625 24.3573 43.5179C23.5001 42.8036 21.7144 41.3393 19.7144 39.4107C19.9287 39.4464 20.1787 39.4464 20.4287 39.4464C21.1787 39.4464 22.0001 39.3036 22.8216 38.9821C24.8573 38.2679 30.2501 34.125 30.4644 33.9464L30.8216 33.6607L30.2501 32.9464L29.893 33.2321C29.8216 33.2679 24.393 37.4464 22.4644 38.125C20.893 38.6964 19.5359 38.6607 18.2859 38.0179C18.143 37.875 18.0359 37.7679 17.893 37.625C15.393 35.0536 13.5359 32.6607 12.3573 30.5536C12.7859 29.0893 14.3573 28.0536 14.4644 28.0179L25.4644 19.9821C26.0716 19.5179 26.393 18.9821 26.4644 18.375C26.5359 17.2679 25.643 16.3393 25.6073 16.3036L25.3573 16.0179L21.7859 18.8393L17.643 17.1607C17.6787 16.0536 17.7144 14.9464 17.7501 14.4821L24.8573 10.875C25.4644 11.3036 27.393 12.5893 29.6787 14.5893C30.8573 15.8036 31.393 17.3393 31.1787 18.9107C31.0001 20.2679 30.2859 21.4107 29.2859 22.0536C29.0716 22.1964 28.7859 22.4107 28.5359 22.5893C28.393 22.6964 28.2144 22.8393 28.1073 22.9107C23.2501 26.2679 17.5001 30.7321 17.4644 30.7679L17.143 31.0179L17.3573 31.375C18.393 32.9821 19.5359 33.4821 20.6073 33.4821C21.8573 33.4821 23.0359 32.7321 23.8216 32.2321L31.393 26.9821C33.0716 25.9821 34.4644 26.4107 35.143 26.7321C36.0359 27.1964 36.7144 27.9821 37.0001 28.8393C35.893 31.4464 33.7859 34.4464 30.6787 37.6964ZM39.393 9.80357C39.1787 9.80357 31.1787 9.76786 24.9287 4.625L24.3216 4.125L23.7501 4.66071C18.1073 9.91071 9.46442 9.80357 9.393 9.80357L8.42871 9.76786L9.10728 26.1607C9.46442 34.2321 23.2501 44.9464 23.8573 45.4107L24.4287 45.8393L25.0001 45.4107C25.5716 44.9464 39.143 34.375 39.5716 25.9821L40.4287 9.76786L39.393 9.80357Z" fill="white"/>
</g>
</svg>
