<svg width="234" height="300" viewBox="0 0 234 300" fill="none" xmlns="http://www.w3.org/2000/svg">
<path fill-rule="evenodd" clip-rule="evenodd" d="M214.707 178.435C212.527 172.051 209.431 166.017 205.515 160.523C198.473 150.577 183.773 135.463 156.889 129.003C170.032 125.594 180.256 117.582 181.479 96.3724L181.756 91.5595L177.261 93.0388C177.088 93.0905 159.059 97.919 117.941 71.4698C107.863 64.9345 91.9497 59.8914 76.3678 64.3138C76.5324 63.424 76.6164 62.5212 76.6186 61.6164C76.6186 53.4233 70.0885 46.7586 62.0661 46.7586C54.0385 46.7586 47.5109 53.4233 47.5109 61.6164C47.5109 68.1595 51.6773 73.7147 57.4419 75.6905C50.6557 82.5465 45.2686 91.9629 41.5497 103.689C40.627 106.581 39.8876 109.528 39.3359 112.513L38.8574 113.713C23.785 151.544 33.7497 172.521 41.0247 187.834C47.4307 201.313 51.3954 209.739 38.3609 223.803C32.1178 215.431 26.5574 205.089 21.9488 191.739C13.0005 165.825 12.8117 74.6172 12.9695 46.9086C23.4876 48.2224 42.5842 47.4207 64.96 31.7819C81.6385 20.1284 99.5531 13.7043 116.785 13.1974C134.017 13.7043 151.932 20.1284 168.613 31.7819C190.988 47.4233 210.082 48.225 220.601 46.9086C220.74 70.9836 220.611 142.96 214.707 178.435ZM150.646 258.892C145.432 261.835 140.154 264.833 134.927 268.13C143.237 245.553 140.074 220.293 132.054 205.932C125.847 194.819 114.269 185.741 97.6574 178.934C95.5626 175.143 87.91 159.97 92.3505 148.262C94.6781 142.12 100.195 137.752 108.739 135.282C114.186 133.707 120.077 132.944 126.015 132.437V132.494H129.248C171.403 132.494 191.844 152.475 200.278 164.387C207.297 174.295 210.543 184.578 211.2 192.913C197.136 232.624 174.548 245.395 150.646 258.892ZM106.978 128.935C96.3747 132 89.4255 137.703 86.3221 145.88C82.3548 156.347 85.7997 168.303 88.9652 175.836C70.3962 168.657 56.6324 157.593 49.7919 144.212C46.5333 137.824 44.9298 130.96 44.8652 123.714C46.179 110.54 51.5273 101.423 60.804 96.6543C73.3652 90.1888 89.1669 93.5147 96.3643 97.9474C136.637 122.716 172.068 105.763 173.555 105.026L173.684 104.964C168.959 122.964 153.186 124.003 133.857 125.255C124.888 125.834 115.616 126.434 106.978 128.93V128.935ZM75.4988 71.5138C79.8695 69.9078 84.3178 69.225 88.6574 69.225C98.5626 69.225 107.914 72.7785 114.491 77.0457C141.248 94.2569 158.987 98.9043 169.039 99.8172C163.978 101.834 148.117 107.072 127.976 103.334C128.86 96.3905 124.231 89.9224 117.411 88.7405C112.055 87.8095 106.919 90.4215 104.273 94.906C102.725 94.0803 101.202 93.2093 99.7057 92.294C89.8161 86.2112 71.8005 83.6095 57.8971 90.7604C56.0376 91.7172 54.0747 92.9586 52.1299 94.5362C57.8143 82.8776 65.6402 75.1422 75.4988 71.5138ZM62.0686 69.8741C57.6048 69.8741 53.9764 66.1681 53.9764 61.6138C53.9764 57.0621 57.6048 53.3535 62.0686 53.3535C66.5298 53.3535 70.1583 57.0595 70.1583 61.6138C70.1583 66.1681 66.5298 69.8741 62.0686 69.8741ZM82.9393 258.887C68.4359 250.699 54.4161 242.775 42.4911 228.952C59.2962 211.179 53.5083 198.988 46.8411 184.953C41.0143 172.678 34.0212 157.942 39.3566 133.733C40.293 138.437 41.877 142.989 44.0635 147.259C52.5721 163.903 70.4066 177.181 94.298 184.655C110.043 190.942 120.858 199.2 126.445 209.198C134.676 223.94 137.084 252.861 124.381 275.379C121.765 277.349 119.236 279.431 116.801 281.62C106.086 271.95 94.3445 265.324 82.9393 258.887ZM233.273 29.4207L224.731 32.6017C223.877 32.9172 203.49 40.1638 175.911 20.8914C157.13 7.76379 136.748 0.540518 116.971 0.00258725L116.775 0L116.601 0.00517204C96.8273 0.543103 76.4454 7.76638 57.6617 20.894C30.0902 40.1612 9.69277 32.9198 8.89364 32.6198L0.250536 29.2371L0.113468 38.6819C0.0436406 43.7612 -1.54171 163.389 9.76002 196.125C25.4247 241.503 51.4833 256.21 76.6833 270.437C89.5109 277.678 101.63 284.516 112.228 295.337L116.801 300L121.37 295.337C131.969 284.516 144.08 277.681 156.905 270.44C182.1 256.213 208.148 241.505 223.815 196.125C235.117 163.389 233.532 43.7612 233.462 38.6819L233.273 29.4233V29.4207Z" fill="#212028" fill-opacity="0.9"/>
</svg>
