<svg xmlns="http://www.w3.org/2000/svg" viewBox="0 0 632.79 991.48"><defs><style>.cls-1{fill:none;stroke:#000;stroke-miterlimit:10;stroke-width:5px;}</style></defs><g id="Layer_2" data-name="Layer 2"><g id="Layer_1-2" data-name="Layer 1"><path class="cls-1" d="M284.48,155c-13-15-17-28-17-28s9-44,5-56,23-36,23-36c21,0,33-6,33-6a42,42,0,0,1,24-2s0-22-33-23c0,0-39-13-65,38,0,0-19,26-17,55,0,0,4,23,0,33s-35,47-17,82c0,0,19,30,18,62,0,0-6,32,34,43,0,0,42,4,35,44l73-40s13-32,35-47c0,0,56-50-11-142,14-18,0-37,0-37-10-15-14-24-14-24-.23-.86-.46-1.7-.69-2.53C370-2.46,351.2,21.07,351.2,21.07"/><path class="cls-1" d="M367.48,88c-4-14-17-8-26-7s-9,7-9,7-1,12,0,18"/><path class="cls-1" d="M317.48,88s1-7-13-7-16-5-24,6c0,0-5,7-8.13,9.81"/><path class="cls-1" d="M316.48,127s6-3,8,1,6,0,6,0a6.18,6.18,0,0,1,7-1"/><path class="cls-1" d="M326.48,130s-11-7-37,21-4,46-4,46,21,16-11,35"/><path class="cls-1" d="M352.48,27s27,16,24,76c0,0,5,16-7,39,0,0-16-13-29-12"/><path class="cls-1" d="M277.18,173.14s9.3,1.84,25.3-16.16,25-13,25-13"/><path class="cls-1" d="M96.39,241.82S144.48,269,153.48,288s12,36,57,87a172.62,172.62,0,0,1,4,44c-65-58-69-84-76-98s-75-57-75-57c132-90,153-91,153-91"/><path class="cls-1" d="M417.24,151.43S489.48,185,474.48,205c0,0,77,40,100,81s24,75,24,75S446,340.43,428.26,256.2"/><path class="cls-1" d="M238.36,327s8.12,36,64.12,66c0,0,18-27,62-44,0,0,42-19.06,40-65.53"/><path class="cls-1" d="M330.48,160s19,22,5,52-41,57,7,93c0,0,21,15.44-8,41.22"/><path class="cls-1" d="M359.48,182s12,21-19,60c0,0-22,27,9,47"/><path class="cls-1" d="M214.48,419s15,23-17,46c0,0-22,13,23,48,0,0,41-46,26-128s-8-113-8-113"/><path class="cls-1" d="M307.22,387.07S319.48,392,327.48,408c0,0,35.29-30.8,67-59,36-32,23-77,23-77"/><path class="cls-1" d="M360.48,379s2,52-17,187"/><path class="cls-1" d="M339.48,440s11.27,50.79,6.64,106.9"/><path class="cls-1" d="M307.48,440s19,61,0,134"/><path class="cls-1" d="M265.48,643c27-71-22.24-277-22.24-277"/><path class="cls-1" d="M598.48,361s43,79,29,117-101-26-101-26-25,22-53,49h-37l-43,65s28,59,54,39,45-48,76-50,76-28,96-67"/><path class="cls-1" d="M71.71,269.28S26.48,301,37.48,317l18,26"/><path class="cls-1" d="M37.32,304.63S67.48,304,77.48,319"/><path class="cls-1" d="M105.48,292s-156,131-84,201c0,0,63-103,124-26,0,0,27,37,33,76s30,49,55,64c0,0,30,18,32,36,0,0,0,2,1.38-3.92"/><path class="cls-1" d="M519.48,428s41-33,67-18S558.48,410,519.48,428Z"/><path class="cls-1" d="M511.48,466s-70-47-30-82c7.14-6.24-18.83-75.63-18.83-75.63"/><path class="cls-1" d="M140,324.23S104.48,371,142.48,402"/><path class="cls-1" d="M403.12,340s50.78-29.48,67.07-10.24"/><path class="cls-1" d="M111.22,595.84S149.48,625,151.48,649c-28,103-33,75-33,75C75.48,528,174,524,174,524"/><path class="cls-1" d="M151.48,649s11,47,41,54,74-14,74-14l7-23-43.88-61.3"/><path class="cls-1" d="M323.48,403s-28,3-24,26c0,0,0,13,25,15,0,0,25,4,19-28,0,0-2-10-11-12"/><path class="cls-1" d="M273.57,566a148.12,148.12,0,0,0,47.91,8"/><path class="cls-1" d="M273.57,613.63S286.48,621,321.48,618V566l42-4v60l-42,4v-8"/><path class="cls-1" d="M363.48,570s16-2,31-5.48"/><path class="cls-1" d="M363.49,615.7s32.53-2.2,55.26-14.46"/><path class="cls-1" d="M271.41,663.08S391.48,703,423.48,830c0,0,7,28,7,44s-5-19-42-29-134,66-141,74-21,26,12,65c0,0,19,20-43-20-67-43.24,25-229,30-237,0,0,2.47-16.41-11.76-26.7"/><line class="cls-1" x1="297.53" y1="618.48" x2="294.92" y2="673.42"/><line class="cls-1" x1="343.36" y1="625.98" x2="344.41" y2="706.04"/><line class="cls-1" x1="384.86" y1="612.62" x2="404.58" y2="779.97"/><path class="cls-1" d="M419.48,648l113-72s13-18-9-19l-112,71s-11.92,7.52-6,17C410.48,653,419.48,648,419.48,648Z"/><path class="cls-1" d="M430.48,507c-5-4-11,0-11,0l-21,17s-10.81,10.46,6.1,25.23"/><path class="cls-1" d="M397.48,524c-24,1-21-25-21-25l21-17s23-3,22,25"/><path class="cls-1" d="M397.48,482c5-11-4-10-4-10l-25,19s-7,8,8,8"/><line class="cls-1" x1="453.01" y1="624.98" x2="509.28" y2="709.3"/><line class="cls-1" x1="491.85" y1="600.24" x2="536.3" y2="667.28"/><path class="cls-1" d="M420.3,821.3c72.28-77.88,146-181,173-297.29"/><path class="cls-1" d="M249.78,971.19s68.71-46.43,145.6-123.93"/></g></g></svg>