<svg width="231" height="300" viewBox="0 0 231 300" fill="none" xmlns="http://www.w3.org/2000/svg">
<path d="M19.7771 156.678C20.034 160.531 20.8045 164.64 21.8319 169.007C24.9141 164.127 29.5374 159.76 35.1881 156.935C45.7189 151.798 57.7908 152.312 68.8353 158.99L123.287 197.003C136.387 205.479 147.431 210.616 158.989 195.205C149.486 188.014 115.068 161.558 85.0169 140.753C83.9895 139.983 82.7052 139.212 81.6778 138.185C79.8799 136.901 78.0819 135.616 76.7977 134.589C67.8079 129.195 61.6436 118.921 60.1025 107.363C58.3045 94.0068 62.9278 80.9075 72.9449 70.6336L73.2018 70.3767C93.7497 52.6541 109.674 42.3801 110.445 41.8664L111.986 40.839L169.263 70.3767L169.52 71.9178C170.034 74.2295 170.548 89.6404 170.548 96.3185V98.6301L159.76 102.997C163.613 104.795 167.722 106.849 170.548 110.702L184.931 110.445V117.123L173.373 117.38C174.144 119.949 174.4 123.288 174.144 126.884L173.887 130.223L167.209 129.709L167.465 126.37C168.236 114.298 163.099 111.473 154.109 107.877L151.027 106.592V106.336L132.791 113.784L108.904 95.0342C107.62 96.8322 106.078 99.6575 106.335 102.74C106.592 105.308 107.876 107.62 110.702 109.675L189.811 166.695C194.692 169.777 201.113 175.428 205.222 182.877C209.589 173.887 211.9 165.411 212.157 158.219L216.524 54.1952C198.801 53.4247 151.541 48.2877 115.325 17.7226C76.284 47.2603 31.3354 53.1678 14.3833 54.1952L19.7771 156.678ZM70.1196 241.438C88.8696 260.959 107.363 276.884 115.582 283.305C121.746 278.168 134.589 267.637 148.972 253.767C147.431 254.024 145.633 254.024 143.835 254.024C138.442 254.024 132.534 252.997 126.626 250.685C111.986 245.548 73.2018 215.753 71.6607 214.469L69.0922 212.414L73.2018 207.277L75.7703 209.332C76.284 209.589 115.325 239.64 129.195 244.521C140.496 248.63 150.257 248.373 159.246 243.75C160.274 242.723 161.044 241.952 162.072 240.925C180.051 222.431 193.407 205.223 201.883 190.068C198.801 179.538 187.5 172.089 186.729 171.832L107.62 114.041C103.253 110.702 100.942 106.849 100.428 102.483C99.9141 94.5206 106.335 87.8425 106.592 87.5856L108.39 85.5308L134.075 105.822L163.87 93.75C163.613 85.7877 163.356 77.8253 163.099 74.4863L111.986 48.5445C107.62 51.6267 93.7497 60.8733 77.3114 75.2568C68.8354 83.9897 64.9826 95.0342 66.5237 106.336C67.8079 116.096 72.9449 124.315 80.1367 128.938C81.6778 129.966 83.7326 131.507 85.5305 132.791C86.5579 133.562 87.8422 134.589 88.6128 135.103C123.544 159.247 164.897 191.353 165.154 191.61L167.465 193.408L165.924 195.976C158.476 207.534 150.257 211.13 142.551 211.13C133.561 211.13 125.085 205.736 119.435 202.14L64.9826 164.384C52.9107 157.192 42.8936 160.274 38.0134 162.586C31.5922 165.925 26.7121 171.575 24.6573 177.74C32.6196 196.49 47.7737 218.065 70.1196 241.438ZM7.44835 40.839C8.98945 40.839 66.5237 40.5822 111.472 3.59589L115.839 0L119.948 3.85274C160.531 41.6096 222.688 40.839 223.202 40.839L230.137 40.5822L225.257 158.476C222.688 216.524 123.544 293.579 119.178 296.918L115.068 300L110.959 296.918C106.849 293.579 9.2463 217.551 6.16411 157.192L-0.000261584 40.5822L7.44835 40.839Z" fill="#A8A8A8"/>
<path d="M131.763 89.512L126.626 71.7894L150.513 84.1182L131.763 89.512Z" fill="#A8A8A8"/>
</svg>
