<svg width="246" height="300" viewBox="0 0 246 300" fill="none" xmlns="http://www.w3.org/2000/svg">
<path fill-rule="evenodd" clip-rule="evenodd" d="M218.634 183.212L218.229 183.047C192.267 172.262 171.63 181.79 158.52 192.22C164.943 175.797 166.522 161.015 166.806 157.712C168.8 153.688 171.532 151.241 175.149 150.238C184.817 147.548 197.404 155.928 197.527 156.013L200.915 158.294L220.85 108.931L158.548 48.2069L109.095 53.8526C108.015 54.0207 106.947 54.2224 105.876 54.4293C96.3104 42.0285 84.2065 31.8336 70.2168 25.9448L122.319 13.5491L231.543 39.525L232.604 105.998C232.604 133.634 227.767 159.657 218.634 183.212ZM122.654 113.028C124.445 132.114 122.306 178.2 64.2912 194.997L34.4931 142.28C36.8329 118.358 47.923 97.1586 64.5079 82.169L65.0754 82.9267C79.3463 102.013 79.3747 122.242 65.1477 139.891L63.0762 142.461L68.2201 146.594L70.2916 144.026C86.5875 123.807 86.6133 100.707 70.3638 78.9828L69.5641 77.9146C79.5182 70.1587 91.0169 64.6351 103.283 61.7172C113.739 76.231 120.877 94.1147 122.654 113.028ZM174.068 73.1353C167.072 78.8431 158.365 85.95 160.269 117.202C161.476 137.131 160.524 152.943 160.313 156L160.302 156.026L160.269 156.652C160.256 156.859 158.971 177.437 149.112 197.703C136.394 223.854 115.937 237.22 88.2901 237.453L67.619 200.881C110.225 187.927 133.228 155.012 129.23 112.412C127.579 94.8388 120.82 76.2233 110.158 60.3647L156.183 55.1147L174.431 72.8974C174.308 72.9724 174.181 73.0397 174.068 73.1353ZM187.549 108.277C190.571 108.337 193.496 107.21 195.7 105.137C197.904 103.064 199.211 100.209 199.344 97.1819L213.075 110.563L197.754 148.495C192.564 145.704 182.462 141.367 173.402 143.884C171.221 144.482 169.169 145.478 167.348 146.822C167.554 139.57 167.6 129.023 166.857 116.801C165.16 88.919 171.813 83.4905 178.244 78.2405C178.559 77.9819 178.801 77.6767 178.992 77.3483L199.055 96.9L176.157 96.4681C176.039 102.872 181.136 108.158 187.549 108.277ZM122.35 285.543C53.944 253.836 13.2029 186.949 13.2029 106.003V39.5121L57.9864 28.8569C73.3202 32.7052 87.6168 42.5457 98.8901 56.0586C60.1147 66.6026 31.4775 100.878 27.8195 142.72L27.7317 143.736L84.4206 244.016L86.3167 244.042C86.732 244.047 87.1344 244.05 87.5446 244.05C116.019 244.05 134.325 231.098 146.075 215.191L146.408 215.403L148.188 212.635C148.255 212.532 154.978 202.2 166.728 194.222C182.14 183.753 198.616 182.046 215.694 189.132L216.14 189.316C198.051 231.649 165.707 265.466 122.35 285.543ZM122.319 0L0 29.0974V106.001C0 193.36 44.732 265.435 119.662 298.803L122.35 300L125.038 298.803C200.659 265.125 245.806 193.053 245.806 105.897L244.586 29.0793L122.319 0Z" fill="#DEA354"/>
</svg>
