<svg xmlns="http://www.w3.org/2000/svg" viewBox="0 0 56 56"><defs><style>.cls-1{fill:none;}.cls-2{fill:#333;}</style></defs><title>Asset 39</title><g id="Layer_2" data-name="Layer 2"><g id="Layer_1-2" data-name="Layer 1"><rect class="cls-1" width="56" height="56"/><path class="cls-2" d="M40.46,24.89h0L36,18.14h0L28,6.2,6.54,38.39,28,49.12,49.46,38.39ZM29,19.38V11.3l4,6.06Zm-2,0-4-2,4-6.06Zm0,2.24v6.76l-8.54-4.27L21.84,19Zm0,9v6.76L14,30.86l3.38-5.07Zm2,9,14.16-7.08,3.38,5.07L29,46.38Zm13-8.76L29,37.38V30.62l9.66-4.83Zm-29.2,1.68L27,39.62v6.76L9.46,37.61Z"/></g></g></svg>