<svg xmlns="http://www.w3.org/2000/svg" viewBox="0 0 56 56"><defs><style>.cls-1{fill:none;}.cls-2{fill:#333;}</style></defs><title>Asset 40</title><g id="Layer_2" data-name="Layer 2"><g id="Layer_1-2" data-name="Layer 1"><rect class="cls-1" width="56" height="56"/><path class="cls-2" d="M45.36,43,40.84,10.87,32,12.11V7H22V43H20V7H10V43H8v2h4v3h2V45H42v3h2V45h4V43ZM18,9v4H12V9ZM14,43H12V15h6V43ZM39.14,13.13l.55,3.92-5.94.84L33.2,14ZM30,9V34H24V9ZM24,43V39h6v4Zm8,0V19.8L35.26,43Zm5.28,0L34,19.87,40,19l3.37,24H37.28Z"/></g></g></svg>