<svg xmlns="http://www.w3.org/2000/svg" viewBox="0 0 56 56"><defs><style>.cls-1{fill:#333;}.cls-2{fill:none;}</style></defs><title>Asset 41</title><g id="Layer_2" data-name="Layer 2"><g id="Layer_1-2" data-name="Layer 1"><path class="cls-1" d="M46.12,22.09a3.19,3.19,0,0,0,1.06-2.27V13.45A2.86,2.86,0,0,0,46.75,12C44.93,9,37.67,7.29,30,7c-.68,0-1.36,0-2,0S26.63,7,26,7C18.32,7.29,11.07,9,9.25,12a2.83,2.83,0,0,0-.43,1.49v6.37a3.19,3.19,0,0,0,1.06,2.27,3.19,3.19,0,0,0-1.06,2.27h0v6.37a3.47,3.47,0,0,0,1.57,2.72,3.5,3.5,0,0,0-1.57,2.73h0v6.37C8.82,46.78,18.47,49,28,49s19.18-2.22,19.18-6.45V36.18h0a3.5,3.5,0,0,0-1.57-2.73,3.47,3.47,0,0,0,1.57-2.72V24.36h0A3.19,3.19,0,0,0,46.12,22.09ZM43.29,32.56h0c-3.12,1.62-9,2.62-15.28,2.62s-12.16-1-15.28-2.62h0c-1.18-.6-1.89-1.29-1.89-1.83V27.39c3.31,2.26,10.27,3.43,17.18,3.43s13.87-1.17,17.18-3.43v3.34c0,.54-.71,1.23-1.89,1.83ZM28,9c9.83,0,16.32,2.32,17.1,4.1a.93.93,0,0,1,.08.35h0c0,1.82-6.71,4.45-17.18,4.45s-17.16-2.63-17.18-4.45h0a.93.93,0,0,1,.08-.35C11.68,11.32,18.17,9,28,9ZM10.82,16.48c3.31,2.26,10.27,3.43,17.18,3.43s13.87-1.17,17.18-3.43v3.34c0,.42-.43.93-1.2,1.43-2.79,1.84-9.07,3-16,3-1.3,0-2.57,0-3.8-.12a33.57,33.57,0,0,1-11-2.26A9.59,9.59,0,0,1,12,21.25h0c-.77-.5-1.19-1-1.19-1.43Zm.7,6.81h0l.22.12.46.23.29.13L13,24l.33.13.5.19.35.12.53.17.38.11.56.16.4.1.59.15.43.1.61.12a3.73,3.73,0,0,0,.46.09l.64.12.47.08.66.1.5.07.68.09.51.06.72.07.51.05.75.06.51,0,.79.05.5,0c.29,0,.59,0,.88,0l.44,0h2.66l.44,0c.29,0,.59,0,.88,0l.5,0,.79-.05.51,0,.75-.06.52-.05.71-.07.51-.06.68-.09.5-.07.66-.1.48-.08.63-.12a3.73,3.73,0,0,0,.46-.09l.6-.12.44-.1L40,25l.42-.11.55-.16.38-.11.53-.17.35-.12.51-.19L43,24l.5-.22.25-.11.53-.27.16-.08h0a1.61,1.61,0,0,1,.7,1.07c0,1.82-6.69,4.46-17.18,4.46s-17.18-2.64-17.18-4.46A1.61,1.61,0,0,1,11.52,23.29ZM28,47c-10.49,0-17.18-2.64-17.18-4.45V39.21c3.31,2.26,10.27,3.43,17.18,3.43s13.87-1.17,17.18-3.43v3.34C45.18,44.36,38.49,47,28,47Z"/><rect class="cls-2" width="56" height="56"/></g></g></svg>