<svg xmlns="http://www.w3.org/2000/svg" viewBox="0 0 56 56"><defs><style>.cls-1{fill:none;}.cls-2{fill:#333;}</style></defs><title>Asset 42</title><g id="Layer_2" data-name="Layer 2"><g id="Layer_1-2" data-name="Layer 1"><rect class="cls-1" width="56" height="56"/><path class="cls-2" d="M44,47V32h1V30H44V26h1V24H43.75L40,10.86V4H38v6.86L36,18H20l-2-7.14V4H16v6.86L12.25,24H11v2h1v4H11v2h1V47H8v2H48V47Zm-2,0H36V32h6ZM22,26h1v2.71l-1,.57Zm3-6h2v6.42l-2,1.14Zm4,0h2v7.56l-2-1.14Zm4,6h1v3.28l-1-.57Zm9,4H36V26h6Zm-5.67-6L39,14.64,41.67,24Zm-2.08,0H33V20h2.39ZM23,20v4H21.75l-1.14-4Zm-6-5.36L19.67,24H14.33ZM14,26h6v4H14Zm0,6h6V47H14Zm14,6a3,3,0,0,0-3,3v6H22V31.58l6-3.43,6,3.43V47H31V41A3,3,0,0,0,28,38Z"/><circle class="cls-2" cx="28" cy="32" r="1"/></g></g></svg>