<svg xmlns="http://www.w3.org/2000/svg" viewBox="0 0 590.04 275.83"><defs><style>.cls-1{fill:#47433c;}.cls-2{fill:#61605c;}.cls-3{fill:#57534a;}.cls-4{fill:#747570;}.cls-5{fill:#363332;}.cls-6{fill:#141115;}.cls-7{fill:#1c1c1b;}.cls-8{fill:#393736;}.cls-9{fill:#262523;}.cls-10{fill:#2e2c2c;}.cls-11{fill:#1f1e1f;}</style></defs><g id="Layer_2" data-name="Layer 2"><g id="Layer_1-2" data-name="Layer 1"><path class="cls-1" d="M496.4,107.58c-2.54,3.93-6.67,6.18-10.3,8.63-16.41,11.06-33.29,21.41-49.74,32.4-8.18,5.47-15.66,11.93-21.08,20.37-3.87,6-3.56,8.12,2.51,12,3.53,2.25,6.85,4.87,11,6.18,3.8,1.2,6.61,4.17,9.15,7.25a3.15,3.15,0,0,1-2.53,1.27c-3.71-2.3-6.23-6.22-10.56-7.66l-.9,0c-21.14,17.21-46.23,25.71-72.12,32.3a275.44,275.44,0,0,1-41,7.28,219.94,219.94,0,0,1-51.28-.81c-22.07-3-43.11-9.36-63.55-17.75-8.73-3.58-17.52-7.46-25.12-13.35.49-1.86,2.29-.14,3.1-1.13l6,3.48a1.74,1.74,0,0,0,2.07,1.43l1.93.87c.5,1.3,1.64,1.19,2.72,1.24l1.28.58a1.73,1.73,0,0,0,1.89,1.37L191,204a11.75,11.75,0,0,0,8.92,3.47c5.65,1,10.21,4.59,15.72,6.08,9.88,2.68,19.76,5.25,29.78,7.47a200,200,0,0,0,31.35,4.64,189.36,189.36,0,0,0,36.71-1.08,376.85,376.85,0,0,0,42.33-8c20.36-5.13,39.71-12.63,57.48-23.95,1.53-1,3-2.11,4.42-3.23,2.11-1.64,3.22-2.78-.08-4.92-11.18-7.28-10.55-6.2-3-19,4.93-8.38,13-14,21-19.42,16.09-11,33.07-20.72,48.9-32.16q4.57-3.32,9.26-6.47C494.53,106.88,495.59,105.63,496.4,107.58Z"/><path class="cls-2" d="M147,150.48c-15.61-8.57-29.26-19.77-42.44-31.59C92,107.55,79.52,96,66.72,84.77,60.49,79.32,53.82,74.35,48.5,68c-7.12-8.54-12.09-18.18-13.37-29.38-.23-2-1.54-3.75-.88-5.82,2.22-.22,1.49,2.41,2.89,3,.66,2.27,1.33,4.54,2,6.81l0-.16c.18,1.15.35,2.31.52,3.47-.85,1-.26,1.54.71,1.9C46.47,61.12,55.55,71.86,67.1,81.13c9.06,7.28,17.54,15.44,26,23.56,8,7.67,16.75,14.44,25.2,21.58a363.63,363.63,0,0,0,31.62,23.32C148.85,149.61,147.71,149.33,147,150.48Z"/><path class="cls-1" d="M325,270.54a327.31,327.31,0,0,0,54.5-15.77q25.32-10,49.85-21.75c9.9-4.77,19-10.69,28.41-16.14,6.73-3.89,11.88-9.68,16.92-15.51a1.91,1.91,0,0,1,1.25,1.78c-4.52,8-11.73,13.32-19.21,18.11A279.41,279.41,0,0,1,418,241.73c-14.16,6.2-28.3,12.48-42.81,17.83A223.24,223.24,0,0,1,338.89,270c-1.41-.87-2.73-1.06-3.82.51-1.87,1.32-4.15.9-6.2,1.43C327.83,270.81,326,271.92,325,270.54Z"/><path class="cls-2" d="M3.06,29.74C3.94,40.14,7,50,10.81,59.62a141.65,141.65,0,0,0,30.44,47.19c2.27,2.33,5.07,4.31,6.39,7.49-3.1,1.68.21,2.78.39,4.16-1.09.77-2.1.43-2.41-.66-1.34-4.75-5.32-7.42-8.56-10.49-4.34-4.1-7.65-8.88-11.16-13.6-2.75-3.72-4.89-8-7.78-11.36a45.63,45.63,0,0,1-7.75-12.89C9.29,66.82,7.22,64.33,7,61.52c-.37-6.06-4-11.07-4.83-17.09-.33-2.62.71-5.11-.18-7.57l0-7.1Z"/><path class="cls-1" d="M577.93,66.19c-.15-6.64,3-12.55,4.32-18.86A249.58,249.58,0,0,0,587,18.08a18.7,18.7,0,0,1,.73-2.88,4.43,4.43,0,0,0-.3-3.33c-1.78-2.51-1.93-1-2.57.82a119.92,119.92,0,0,1-13.94,26.76c-2.75,4-4.19,3.81-6.67-.36-3.43-5.77-7-11.46-10.47-17.18,1-.41,1-1.3,1.1-2.13,4.74,4.28,7.5,10,10.62,15.35,2.39,4.1,3.35,2.79,5.15-.11a203.75,203.75,0,0,0,15-30.4A12.9,12.9,0,0,0,586.74,2,2.26,2.26,0,0,1,588.66,0C590,.21,590,1.61,590,2.79c0,6.44.38,12.89-.61,19.29l-.48,1.68c-.06.67-.12,1.34-.19,2-1.32,1.57-.73,3.42-.72,5.18l-1.41,8.8c-.17.48-.33,1-.49,1.42l-.69,4.6-.48,1a1.87,1.87,0,0,1-.2,1c-1,.87-.85,2-.75,3.14-.53,2.29-1.05,4.59-1.57,6.88-.17.33-.33.65-.49,1,.36,2-1,3.36-1.59,5l-.42.89C579.61,65.64,579.49,66.83,577.93,66.19ZM587.6,9.08l.08-.41-.55.11a.79.79,0,0,0,.15.36S587.49,9.1,587.6,9.08Z"/><path class="cls-1" d="M504.93,150.58c-2.31-2,.36-2.5,1.13-3.12,19.21-15.34,37.42-31.72,52.65-51.12,4.39-5.59,8.14-11.68,12.21-17.52.46-.67.6-2.07,2-1.14,1.33,2.72-.88,4.44-2,6.23a226.18,226.18,0,0,1-36.52,42.75c-8.57,8-17.17,15.85-26.56,22.85a1.76,1.76,0,0,0-1.85,1.41Z"/><path class="cls-1" d="M551.71,23.79c2.31,7.9.2,15.44-1.48,23.13-1.43,6.53-5.38,11.87-7.38,18.08a1.83,1.83,0,0,1-.89,2.16,1.39,1.39,0,0,0-1.72.51q-8.67,10-17.33,20l.07-.08-19,15c-.86,0-1.71-.14-2.07-1.12,6.74-5.88,13.63-11.61,20.2-17.67,13.63-12.58,24.31-27,27.48-45.88.74-4.42-.15-8.81.29-13.19Z"/><path class="cls-1" d="M171,173.54q-2.06-4-4.13-8l1.2-.14,3.24,2.19c2.36,2.5,2.62,5.53,2.57,8.79,0,2.88-.87,4.68-3.87,5.44a53.27,53.27,0,0,0-6.44,2.51c-2,.2-1.2,2.73-2.79,3.25-4.92-1.67-7.82,1.88-10.6,4.62-9,8.86-16,11.82-30,4.23a14.86,14.86,0,0,0-10.05-1.94c-.63.09-1,.3-.43.94l.51,1.69c-.2,1-.1,1.91,1,2.36a2.24,2.24,0,0,1,.48,2.35c-1.41.57-1.74-1.05-2.73-1.33v0l-.8-1.05-.08-.14c-.19-1.65.6-3.5-1-4.83-.8-2.71,1.42-3.68,2.91-5.08l1.24,1.25c0,.62-.09,1.59.74,1.55,6.88-.37,12.61,3.27,18.84,5.19,2.61.81,5.58,2.17,7.72-.74,2-2.67-.09-4.93-1.37-7.17l2.72-1c1.92,1.44,1.45,5.36,3.22,5.47,2.7.17,4.74-2.61,6.66-4.6,4.19-4.34,10-5.4,15.14-7.8,2.32-1.08,5.14-1.43,6.44-4.11C172.35,176.07,172.45,174.75,171,173.54Z"/><path class="cls-3" d="M48,118.46c-.18-1.38-3.49-2.48-.39-4.16,8.26,8.39,17.52,15.66,26.42,23.33l-.06-.08c.87,1.69,1.84,3.21,4.12,2l-.11-.07c-1.4,2.35,1,2.72,2,3.62,2.66,2.37,5.75,4.27,8,7.16l1.32,1.19L92,153.87a1.77,1.77,0,0,0,2,1.68l.06,0,1,1.92H92.89c-.62-.4-1.25-.79-1.88-1.18a2.94,2.94,0,0,0-2.09-1.72c-5.75-2.64-9.13-8.24-14.47-11.46-6-3.6-10-9.4-15.1-14C55.5,125.66,51.69,122.14,48,118.46Z"/><path class="cls-1" d="M194.78,251c3.46,0,5.94,2.92,9.32,3.17.51,1.4,1.68,1.33,2.85,1.28l4,2c-.31.64-.62,1.29-.94,1.93l-1-.37a7.08,7.08,0,0,0-5.92-2.64c-10.07-3.42-20.09-6.95-29.94-11-5.74-2.37-11.93-3.66-17.2-7.18-1.51-2.1-4-2.22-6.14-2.9a.78.78,0,0,1-.73-.57l-2-2.41.2-1.55L172,242.3a1.41,1.41,0,0,0,1.73.65,8.8,8.8,0,0,1,4.29,1.34,1.68,1.68,0,0,0,2.06,1c2.92.4,5.38,2.49,8.46,2.25l2.35.77.89,1,1.2.57A1.46,1.46,0,0,0,194.78,251Z"/><path class="cls-4" d="M210.05,259.33c.32-.64.63-1.29.94-1.93,19.67,5,38.53,13.11,58.95,15.2-1.31,1.51-3.6-.06-4.87,1.55-7.56,0-14.51-3-21.79-4.38-8.62-1.62-16.72-5.11-25-8C215.57,260.82,212.19,262.1,210.05,259.33Z"/><path class="cls-1" d="M444,194.49c1.88-4.65,5.94-7.29,9.64-10.13a222.74,222.74,0,0,1,25-16.7l.35,1.93,0,0-1.1.91c-4.62,3.17-9.25,6.31-13.85,9.51-1.92,1.34-3.77,2.52-.09,4.34,3.07,1.53,5.77,3.8,8.63,5.73l-2.73,1.42c-3.07-1.91-6.13-3.84-9.21-5.73-1.25-.76-2.45-1.61-4-.31-3.73,3.18-8,5.75-10.78,10Z"/><path class="cls-3" d="M147.28,230.7c-.07.52-.14,1-.2,1.55l-.93.13-.14-.06a2.07,2.07,0,0,0-2.21-.79l-1.87-.35c-1.8-1.5-3.12-3.73-5.87-3.74l-4-2.89a3.05,3.05,0,0,0-3.31-2.2c-.89.19-1.6.7-2.52-.43-3.76-4.61-7.36-9.42-13-12.1-.37-.18-.19-1.52-.27-2.32.19-1,.38-1.92.58-2.89,5.68,3.42,8.92,9.51,14.43,13.12.16,1.65,1.36,1.79,2.64,1.8Z"/><path class="cls-5" d="M444,194.49l1.9.93c.41,2.13,1.92,2.68,3.72,2.2,6.81-1.84,13.81-3.08,20.25-6.14l2.73-1.42c2.59.86,5,1.95,5.61,5a5.32,5.32,0,0,0,0,3.81c-.38,1.63-.44,3.42-2.26,4.29a1.91,1.91,0,0,0-1.25-1.78c.14-2,2.67-3.88.63-5.94-1.81-1.82-4.08-.75-6.12-.23-6.39,1.6-12.72,3.42-19.13,4.88-3.84.88-7.72,1-10.22-3Z"/><path class="cls-4" d="M22.15,33.77c-.45,2-.13,4.63-2.82,5.18s-5-.4-6.14-3.45C10.9,29.24,8.39,23.06,6,16.85c2-1.27-.5-3,.42-4.35,2.81,1.27,2.68,4,3.6,6.44,1.79,4.64,5.1,8.6,6.31,13.61.42,1.74,1.83,3.25,3.86,1.16Z"/><path class="cls-3" d="M325,270.54c1,1.38,2.81.27,3.85,1.4-10.37,1.46-20.62,4-31.18,3.62-2.11-.06-4.54,1.17-6.23-1.19,4.84-2.35,10.11-1.75,15.23-2.22C312.8,271.59,318.91,271.07,325,270.54Z"/><path class="cls-1" d="M92.89,157.5H95a5.29,5.29,0,0,0,.8.06c6.64,4.92,14,8.9,19.87,14.8,1.07,1.07,3.69,2.94-.64,3.11-6.28-4.89-12.43-9.94-18.92-14.54A19.38,19.38,0,0,1,92.89,157.5Z"/><path class="cls-3" d="M139.83,188.5l-2.72,1c-4.62-3.55-8.54-8.27-14.92-8.89l-1.17.72-.89.75-.33-1.9c.94-1.63-1.22-2.94-.49-4.56A36,36,0,0,1,139.83,188.5Z"/><path class="cls-3" d="M22.15,33.77l-2-.06c.67-6,5.12-10.07,7.82-15,1.35-2.48,2.51-5.32,5-7.09,0,.79.09,1.58.13,2.37a3.93,3.93,0,0,0,.06,1Q27.67,24.37,22.15,33.77Z"/><path class="cls-3" d="M168.07,165.43l-1.2.14c-6.61-5-12.74-10.68-19.83-15.09.67-1.15,1.81-.87,2.84-.89l1.1.58c.64,1.6,2,2,3.54,2.22L157,153.9c.2,1.55,1.39,1.66,2.57,1.76l.28.06.06.27a1.86,1.86,0,0,0,1.9,1.59l1.15.9a6.56,6.56,0,0,0,4.85,5.11l.13.17C168,164.32,168,164.87,168.07,165.43Z"/><path class="cls-5" d="M33.11,14c0-.79-.09-1.58-.13-2.37A17.91,17.91,0,0,1,37.09,5.8l2.1-.12c0,.7,0,1.39,0,2.09a8.09,8.09,0,0,0-1.59,6.44l-.43,1.55c-1.06.61-1.1,1.27-.11,2a1.26,1.26,0,0,1-.07,1c-.65.23-.89.56-.26,1.09q-.11,3.36-.2,6.72l-2.11-.86c0-2.28,0-4.56,0-6.84.63-.35.69-.73.07-1.16.06-.63.11-1.26.16-1.89C35.61,13.93,34.51,13.83,33.11,14Z"/><path class="cls-3" d="M2.06,29.76l0,7.1C-1.45,35.6,1.3,33,.87,31-.71,24.08.25,17,.72,10c.05-.78.34-1.65,1.45-1.65,0,2.24-.51,4.54,1,6.56C2.66,19.43,1.88,24,2.21,28.54Z"/><path class="cls-3" d="M160.78,187.61c1.59-.52.82-3.05,2.79-3.25-.89,2.08.6,2.8,2,3.78,2.88,2,5.65,4.25,8.46,6.39-.81,1-2.61-.73-3.1,1.13A33.09,33.09,0,0,1,160.78,187.61Z"/><path class="cls-2" d="M265.07,274.15c1.27-1.61,3.56,0,4.87-1.55l16.58.71c1.47,2-.32,2.3-1.48,2.31C278.35,275.73,271.62,276.06,265.07,274.15Z"/><path class="cls-3" d="M479,169.59l-.35-1.93c3.55-3.53,8.16-5.48,12.23-8.23l1.48,1.35A54.3,54.3,0,0,1,479,169.59Z"/><path class="cls-6" d="M551.71,23.79l-1.86,1c-1-.86-.65-2-.73-3.08,1.11-.86.64-1.49-.3-2.05-.63-1.5-1.49-3.26.16-4.35,1.21-.8,2.37.23,2.84,1.65a.68.68,0,0,0,.74.88l2.32,2c-.13.83-.14,1.72-1.1,2.13h0c-.29-1.2-.78-2.31-2.28-1.81-.68.22-.71,1-.07,1.54C551.53,22.36,551.62,23.07,551.71,23.79Z"/><path class="cls-5" d="M3.12,14.89c-1.46-2-1-4.32-1-6.56,3.88-1.11,3.16,2.42,4.21,4.17C5.47,13.87,8,15.58,6,16.85Z"/><path class="cls-1" d="M572.93,77.68c-.34-4.14,2-7.25,4-10.53a1,1,0,0,1,1.77.3L578,69.94C576.76,72.81,576.92,76.6,572.93,77.68Z"/><path class="cls-4" d="M34.38,25.68l2.11.86c-.13,3.1,1.67,6.06.65,9.21-1.4-.57-.67-3.2-2.89-3Z"/><path class="cls-2" d="M136.06,227.44c2.75,0,4.07,2.24,5.87,3.74-.46.69-1,2.53-1.79,1-1.29-2.26-2.66-3.46-5.31-3.7C134.23,228.47,135.63,227.85,136.06,227.44Z"/><path class="cls-2" d="M113.57,204.61c-.2,1-.39,1.93-.58,2.89-4.13-.72-4.91-3.37-4-7,1,.28,1.32,1.9,2.73,1.33,0,0,0,0,0,0-1.18,2.13.42,2.39,1.85,2.77Z"/><path class="cls-3" d="M501.88,101.52c.36,1,1.21,1.07,2.07,1.12-2.19,2.13-4.27,4.43-7.53,4.92C496,103.54,500.21,103.67,501.88,101.52Z"/><path class="cls-4" d="M111.18,190.65l-1.24-1.25a26.93,26.93,0,0,1,7.63-6.75l.59,1Z"/><path class="cls-3" d="M199.9,207.48A11.75,11.75,0,0,1,191,204,33.19,33.19,0,0,1,199.9,207.48Z"/><path class="cls-2" d="M149.85,235.23c2.18.68,4.63.8,6.14,2.9C153.11,238.92,150.73,238.66,149.85,235.23Z"/><path class="cls-2" d="M167.8,163.59a6.56,6.56,0,0,1-4.85-5.11C165.14,159.64,167.24,160.89,167.8,163.59Z"/><path class="cls-4" d="M203.13,256.32a7.08,7.08,0,0,1,5.92,2.64C206.74,258.84,203.88,259.94,203.13,256.32Z"/><path class="cls-2" d="M168.07,165.43c0-.56-.09-1.11-.14-1.67,2.1.44,4.09,1,3.38,3.86Z"/><path class="cls-4" d="M37.56,14.21a8.09,8.09,0,0,1,1.59-6.44C40,10.25,39.07,12.3,37.56,14.21Z"/><path class="cls-1" d="M500,154.55c-.09-2.88,1.74-4.34,5-4C504.45,153.37,502.24,154,500,154.55Z"/><path class="cls-2" d="M128.75,222.35a3.05,3.05,0,0,1,3.31,2.2C130.24,224.88,128.45,225.17,128.75,222.35Z"/><path class="cls-1" d="M494.23,156.9c1.83-.94,2.74-4.14,5.7-2.33-.25,2.42-2.68,2.46-4,3.7l-.92-.66Z"/><path class="cls-1" d="M492.35,160.78l-1.48-1.35a7,7,0,0,1,3.36-2.53l.75.71c0,.34,0,.69,0,1A4.78,4.78,0,0,1,492.35,160.78Z"/><path class="cls-2" d="M154.52,152.39c-1.53-.18-2.9-.62-3.54-2.22C152.88,149.77,153.7,151.09,154.52,152.39Z"/><path class="cls-2" d="M146.15,232.38l.93-.13,2,2.41C147.29,235,146.53,233.93,146.15,232.38Z"/><path class="cls-3" d="M186.7,201.55c-1.08-.05-2.22.06-2.72-1.24A2,2,0,0,1,186.7,201.55Z"/><path class="cls-2" d="M88.92,154.6A2.94,2.94,0,0,1,91,156.32C89.48,156.76,88.78,156.18,88.92,154.6Z"/><path class="cls-2" d="M159.56,155.66c-1.18-.1-2.37-.21-2.57-1.76C158.17,154,159.41,154.05,159.56,155.66Z"/><path class="cls-3" d="M588,31c0-1.76-.6-3.61.72-5.18C588.86,27.55,589.07,29.34,588,31Z"/><path class="cls-2" d="M107,194.48c1.65,1.33.86,3.18,1,4.83C106.48,198,107.26,196.12,107,194.48Z"/><path class="cls-2" d="M161.8,157.58a1.86,1.86,0,0,1-1.9-1.59A1.71,1.71,0,0,1,161.8,157.58Z"/><path class="cls-3" d="M182.05,199.44A1.74,1.74,0,0,1,180,198,1.84,1.84,0,0,1,182.05,199.44Z"/><path class="cls-3" d="M189.87,203.5a1.73,1.73,0,0,1-1.89-1.37C189.23,201.73,189.59,202.55,189.87,203.5Z"/><path class="cls-3" d="M335.07,270.51c1.09-1.57,2.41-1.38,3.82-.51Z"/><path class="cls-4" d="M37,17.76c-1-.73-1-1.39.11-2A1.35,1.35,0,0,1,37,17.76Z"/><path class="cls-1" d="M548.82,19.65c.94.56,1.41,1.19.3,2.05Z"/><path class="cls-4" d="M40.32,47.77c-1-.36-1.56-.86-.71-1.9A1.33,1.33,0,0,1,40.32,47.77Z"/><path class="cls-3" d="M584,50.87c-.1-1.13-.25-2.27.75-3.14A3.42,3.42,0,0,1,584,50.87Z"/><path class="cls-2" d="M478.21,198.86a5.32,5.32,0,0,1,0-3.81A3.21,3.21,0,0,1,478.21,198.86Z"/><path class="cls-3" d="M505.94,150.92a1.76,1.76,0,0,1,1.85-1.41A2.14,2.14,0,0,1,505.94,150.92Z"/><path class="cls-4" d="M39.19,5.68l-2.1.12C37.73,4.64,38.41,4.26,39.19,5.68Z"/><path class="cls-2" d="M143.8,231.53a2.07,2.07,0,0,1,2.21.79C145.16,232.37,144.33,232.37,143.8,231.53Z"/><path class="cls-4" d="M119.8,180.16l.33,1.9-1,.54c-.31-.2-.62-.4-.94-.59Z"/><path class="cls-3" d="M578,69.94l.66-2.49A2,2,0,0,1,578,69.94Z"/><path class="cls-3" d="M579.89,64.65l.42-.89Z"/><path class="cls-7" d="M363.05,140a1,1,0,0,1,.68-.45C363.66,139.9,363.58,140.28,363.05,140Z"/><path class="cls-3" d="M588.89,23.76l.48-1.68C589.88,22.83,589.49,23.33,588.89,23.76Z"/><path class="cls-3" d="M495,158.64c0-.34,0-.69,0-1l.92.66Z"/><path class="cls-3" d="M477.92,170.48l1.1-.91Z"/><path class="cls-4" d="M36.69,19.82c-.63-.53-.39-.86.26-1.09Z"/><path class="cls-4" d="M117.57,182.65a2.26,2.26,0,0,1,.63-.64c.32.19.63.39.94.59l-1,1Z"/><path class="cls-1" d="M552.56,17.83a.68.68,0,0,1-.74-.88Z"/><path class="cls-2" d="M108.16,199.45l.8,1.05Z"/><path class="cls-3" d="M581.9,58.73c.16-.33.32-.65.49-1C582.22,58.08,582.06,58.4,581.9,58.73Z"/><path class="cls-3" d="M584.91,46.77l.48-1Z"/><path class="cls-4" d="M39.09,42.4l0,.16Z"/><path class="cls-3" d="M586.08,41.17c.16-.47.32-.94.49-1.42C586.4,40.23,586.24,40.7,586.08,41.17Z"/><path class="cls-3" d="M289.42,273.29c.85.07,2-.43,2.07,1.09C290.13,275.29,289.26,275.28,289.42,273.29Z"/><path class="cls-8" d="M422.13,223.48c.11-7.95-5-12.35-11.06-16-.79-.48-2.29-.31-2.29-1.46,0-1.36,1.37-1.75,2.53-1.86,3.11-.28,6.31-1.14,9.24.66,3.45,2.12,3.94.28,3.71-2.65a8.18,8.18,0,0,1,0-1c.16-2.53-1.32-6,1.57-7.22,3.53-1.53,5.14,2.24,7,4.33,2.61,3,4.78,6.33,8.45,8.26,1,.51,2.3,1.53,1.83,2.6-.83,1.9-2.88,2.64-4.78,3.23-1.59.5-1.89-.68-2.16-1.91a5.32,5.32,0,0,0-1-2.24c-1.64-2-3.38-5.31-5.75-4.56-2.13.67-.72,4.2-.24,6.26.57,2.48.21,3.46-2.4,3.33-1.88-.09-2.55.66-1.15,2.2s5.32,1.35,4.49,4.23c-.88,3.05-4.56,2.62-7.18,3.35-.32.09-.61.23-.92.34Z"/><path class="cls-5" d="M311.05,240.53c-1.55,5.91.09,11.86-.13,17.79-.05,1.56.09,3.09-1.63,3.7s-2.69-.88-3.56-2c-1.67-2.22-2.61-5-5.35-6.78-1.39,1.89-1,4.11-.82,6.05.3,2.77-1.13,4-3.31,4.76-1.26.44-2.79.7-3.74-.39s.27-2.07.67-3.12c2.22-5.84,3.36-11.75.61-17.76-1-2.15-1.73-4.34,1.45-5,2.62-.51,5.65-.59,6,3.2.32,3.51,2.74,5.77,4,9,3.05-2.9.45-5.25.13-7.56-.11-.87-2.82-1.12-2.08-2.73s2.53-2.13,4.28-2a24.62,24.62,0,0,1,3.37.62Z"/><path class="cls-5" d="M190.9,248.34l-2.35-.77L187,245.5a6.25,6.25,0,0,0-1.71-4.12c0-1,0-2,0-3,.86-.68.85-1.35,0-2-1.61-2.72-3.18-5.2-6.45-1.5-.57.65-2.19.54-3.32.5s-3,.6-3.54-.95c-.59-1.83,1.65-1.58,2.44-2.42,3.77-4.06,7.72-8.07,8.69-13.83.2-1.19-.06-2.19,1.45-2.62,3.3-.93,11.18,2.56,12.52,5.63,1.49,3.41-.87,8.91-5.1,11.06a5.45,5.45,0,0,0-3,4.2c-1.19,2.09-1.73,4.14.43,6l.72.92c.35,3.16,2.67,1.85,4.37,1.93-.08.38-.17.75-.26,1.13-1.38-.11-2.13.49-2.17,1.9l0,0Zm-4.68-19.84c3.64.17,5.7-1,6-4a3.59,3.59,0,0,0-4.11-3.9c-3.24.33-2.59,4.13-3.79,6.28C183.48,228.49,185.75,228.46,186.22,228.5Z"/><path class="cls-9" d="M203.93,235.44c-3.76,1.3-3,6.06-6,7.9l-.92.79c-.93.28-2,.14-2.62,1.19-.38-.63-.76-1.26-1.15-1.89.34-2.39,2.35-3.88,3.21-6l.63-1,4.28-9c1.14-1.21.52-1.79-.76-2.14-.5-.54-.84-1.1-.38-1.83l.87-.79c6.52-.14,7.75,1.25,7.31,8.26-.05,1.27-1.54,3.18,1.39,3.12,2-1.59,4.2-2.67,5.63-5.27s4.49-.89,6.5.27c2.33,1.33.5,2.44-.48,3.83a49.09,49.09,0,0,0-3.33,6.55c-1.95.3-2.35-.32-2.33-2.4,0-1.76-1.21-1.64-1.71.13-4.14.88-4.54,5.76-8,7.41-1-1.45-.58-2.92-.37-4.53S206.89,236,203.93,235.44Z"/><path class="cls-5" d="M382.25,233.32c-1.69-1.82-1.14-5.32-4.46-5.91l.11.07c1.06-2.16-.69-2.21-2-2.63.32-.72,0-1.14-.68-1.37.12-3.68,2.95-4,5.56-4.17,3.44-.18,2,2.59,2.24,4.28a16.28,16.28,0,0,0,5.66,9.66c1.22,1.08,2.47,1.77,4,.95s2.58-2.37,1.89-4.13c-1.57-4-1.66-8.84-5.63-11.7-1-.73-1.29-1.58-.51-2.46a7.07,7.07,0,0,1,4.26-2.33c1.08-.17,2.23.43,2.09,1.57-.65,5.26,3,9.36,3.71,14.24.63,4.24.34,8.36-4.14,10.11s-8-.13-10.46-4.13A1.88,1.88,0,0,0,382.25,233.32Z"/><path class="cls-7" d="M380,247.36l-2-.41-.95-.61-.1-.06c-1-1.34-2-1.11-3,.09l-.1,0-5.82-1.06-.08-.06c.07-2.78-1.73-3.1-3.88-3l-.1-.09-1-.88a5.62,5.62,0,0,1-2.87-5c.78-1.83,1.56-3.66-.67-5.09,0-.57.05-1.14.08-1.71,1.26-.46,1.68-1.12.48-2.14,2.67-4.91,7.27-6.25,12.81-3.74a3.4,3.4,0,0,0,3,2.8l.06.06.69,1c.46.55.91.53,1.33-.05l-.11-.07c-1.42,1,.18,2,0,3-1.69,3,.06,5.46,1.38,8q1.35,2.1,2.68,4.2c-.09.55.1.87.69.88a1.41,1.41,0,0,1,.75.51c0,.26,0,.52.05.78l.64-.3c1.28,1.54.83,2.46-1,2.88ZM364.4,234.54c.34.93.69,1.86,1,2.78,1.77,4.6,3.94,5.27,7.69,2.24,2.89-2.34.2-4.78,0-7.18,1.07-1.15.54-1.75-.73-2.1-1.88-2.95-3.9-5.53-7.87-3C362.23,229.67,362.41,232.09,364.4,234.54Z"/><path class="cls-1" d="M266.51,238.82c1.14,1.31,2.19,1.91,4.1.9,1.64-.87,3.64-1.72,5.68-.42,1.25.8,3.64.09,3.54,2.64-.1,2.26.26,5.21-2.13,6.1s-1.64,1.51-1,3.06c1.69,4-.45,9.4-4.44,11.89s-7.51,1.64-11.22-2.63l-.12.07c.56-1.33,1.1-2.66,1.67-4s1.34-2.36,3-2c1.46.3,1.6,1.48,1.58,2.7s-.45,3.11,1.17,3.37,2.26-1.65,2.92-3c1.42-2.76,1.47-5.23-1.14-7.56-1.93-1.72-3.82-3.63-3.27-6.78.21-1.24-1.1-.71-1.82-.74Z"/><path class="cls-9" d="M410.87,214.47c3.94,2.77,6.55,7.19,11.26,9l-.12-.12c-1.36,4.46-3.12,5.14-6.95,2.4-1.6-1.14-3-2.21-4.83-.65-1.42,1.21-3.69,1.33-2.83,4.68s-2.88,4.15-5.42,5.19c-.22-1.52.32-3.17-.79-4.53,0-5.1.49-10.22-1.16-15.19a1.85,1.85,0,0,0-1.71-1.88c1.07-3.2,3-4.91,6.55-3.7a1.75,1.75,0,0,0,2.32,1.57.74.74,0,0,1,.66.44A3.06,3.06,0,0,0,410.87,214.47ZM408,218.14l-.87-.78c-1.22-.65-2.43-1.17-3.1.69a3.64,3.64,0,0,0,.32,3.72c1.64,2,3.23.42,4.8-.29.72,0,1.31-.29,1.33-1s-.56-1.07-1.27-1.12Z"/><path class="cls-10" d="M237.7,243.47a28.62,28.62,0,0,1,3.47.08c2.46.35,2,2.27,1.75,3.83s-1.13,2.32-2.82,1.46c-2-1-3.91-1.24-4.95,1.24-.56,1.31-1.58,3-.53,4.17,1.64,1.79,3.91,1.39,6,.36.88-.44,1.68-1.12,2.76-.67-.1,1.15-.21,2.31-.31,3.46h0c-3.34,1.8-6.67-.74-10,0l-1.91-.41c-.41-1.56-1.9-1.85-3-2.57.47-1,.94-2,1.4-2.95.19-.3.38-.6.58-.9l.36-1c1.28-.35,1.82-1,.68-2.1,1.24-3.95,2.75-7.89.92-12.08L232,235c1.43-1.52,3.16-1.26,5-.95,3.66.63,7.33,1.14,11,1.7-.21,2.41,1.64,7-3.94,3.69l-1.12-.71c-1.54-1.81-3.17-1.77-4.85-.21-.27.94-.53,1.88-.79,2.82C235.64,242.39,235.94,243.08,237.7,243.47Z"/><path class="cls-11" d="M344.83,241.47c-1.44-.21-2,.36-2.05,1.86a17.18,17.18,0,0,0,2,7.94c1.66,3.35.58,5.14-2.74,6.09-1.67-.81-2-2.6-2.87-4,0-.67-.07-1.35-.11-2,1.31-1.35,1-2.37-.64-3.11-.11-1.29-.23-2.58-.34-3.88,1.56-2.81.36-5-1.53-7.12.15-1.92-3.77-1.78-2.34-4s4.15-1.73,6.3-1.09c3,.91,5.32,3.06,7.5,5.28,0,2.57,2.2,2.95,3.94,3.76,0,1.36.06,2.71.08,4.07l-1.07.14a2.12,2.12,0,0,1-.84-.37,1.7,1.7,0,0,0-2.07-1.67l-1-.37-.94-.62-.11-.08A.91.91,0,0,0,344.83,241.47Z"/><path class="cls-11" d="M266.51,238.82l-1.5,3.63c-3.83,5.44-3.75,11.76-4.08,18l.12-.07c-1.24-.68-1.71,1.52-3,.78-.23-2.55-.19-5.21-2.68-6.89-.32-1.09-.64-2.18-1-3.27.49-1,.52-2.07-.74-2.35s-1.74.61-1.67,1.79c-.15,1-.29,1.9-.44,2.84-2.48.41-1,4.5-4.43,4.55.62-2.23,1.3-4.24.9-6.35.12-.65.24-1.31.37-2,1.35-.39,1.94-1,.59-2.13l.33-2,1.71-7.72a3.33,3.33,0,0,1,3.2.36c-.28,2.24,1,4,2,5.79,1.3,2.42,2.87,2.46,3.71-.53l2.93-4,3.55-.58Z"/><path class="cls-1" d="M232,235l.05.36c-3.9-.13-4.1,3.11-4.85,5.59A102.15,102.15,0,0,0,224.82,251c-.58,3-2.85,2.63-4.6,2-2-.67-1.8-2.72-.84-4.13,2.76-4,3.19-8.88,4.78-13.32.61-1.69-.69-4.6,2.15-4.83S231.4,231.79,232,235Z"/><path class="cls-9" d="M148,221.14c-2.89.87-5.17-.54-7.41-2-5-3.28-5-4.14-.25-7.4a11.58,11.58,0,0,0,1.94-2.22l.78-.89.12-.13.88-.89c.9-1.45,1.49-3.13,3-4.12a1.45,1.45,0,0,0,1-1.55.85.85,0,0,1,.76-.53,1.49,1.49,0,0,0,1.26-1.68l.11-.22c1.27-.56,1-3.28,3.06-2.47,1.46.59.66,2.31.76,3.55A10.29,10.29,0,0,1,154,202c-4.46,4.41-8.27,9.25-10,15.41C142.5,221.74,147,219.49,148,221.14Z"/><path class="cls-7" d="M162,229.45a.93.93,0,0,1-.87-.27c0-.92-.05-1.85-.08-2.77l1.88.05.1.07c.12.73.42,1,1,.37a18.78,18.78,0,0,0,10.13-7.42c2.76-1.62,3.7-3.54,1-6l-.07-.14c-.25-2-1.33-2.31-3-1.36-2.46.07-3.5,2.31-5.28,3.43-1.81.24-3.24-.23-3.92-2.11,3.07-4.18,7.62-4.24,12.06-4,3.41.17,4.65,6.11,2.36,10.72a23.7,23.7,0,0,1-8.26,9.47Z"/><path class="cls-7" d="M316.36,253.25c-.1-1-.19-1.92-.28-2.88,2-1.51,2.35-2.66-.65-3.12l-.17-1.84c2.08-3.11-1.6-5.28-1.33-8.1a5,5,0,0,1,3.9-.56c.56,1.27-.11,3.1,1.73,3.78l.13,2.9c-1,1.95-1.28,3.75,1,5.06a9.33,9.33,0,0,1,1.32,4.83,1.71,1.71,0,0,0,1.52,2.2.91.91,0,0,1,.46.84c0,.79.39,1.05,1.13.87,3.71-.36,3.56-4,5.27-6.11l2.34.24.85,1.14a.94.94,0,0,1,0,.66c-.9,0-1.48.33-1.5,1.31-.47,1.27-.93,2.54-1.39,3.81l-.75.52-2,.56c-2.86.18-5.34-2-8.28-1.37l-.29-.35c.61-1.49,0-2.15-1.5-2.17l0,0A1.67,1.67,0,0,0,316.36,253.25Z"/><path class="cls-1" d="M154,202a10.29,10.29,0,0,0,.08-1.46c-.1-1.24.7-3-.76-3.55-2-.81-1.79,1.91-3.06,2.47.23-1.54-.83-3.68,1.16-4.42,1.55-.59,3.12.57,4.44,1.56,8.18,6.11,8.87,12.21,2.12,18.65.47-2.22,1.32-4.72-2.68-3.75.59-1.5,1.58-3,1.67-4.5C157.07,204.92,158.14,201.79,154,202Z"/><path class="cls-6" d="M155.28,211.53c4-1,3.15,1.53,2.68,3.75-2.89,2.67-5.1,6.51-10,5.86-1-1.65-5.51.6-4.06-3.7C149.5,218.85,152.39,215.2,155.28,211.53Z"/><path class="cls-3" d="M214,237.16c.5-1.77,1.72-1.89,1.71-.13,0,2.08.38,2.7,2.33,2.4-.38,2.91-1.26,5.74-1,8.76.12,1.38.17,3.1-1.57,3.8-1.43.58-2.51-.28-3.5-1.18a3.26,3.26,0,0,1-.59-4.44C213.05,243.5,214.76,240.68,214,237.16Z"/><path class="cls-8" d="M330.45,248.37l-.18-1.64a.93.93,0,0,0,0-1.41c-.15-3.3.85-7.31-4.73-7.11-1,0-1.79-1.08-1.84-2.07s.9-1.72,1.93-1.86c2.79-.37,5.55-1.79,6.78,2.95a28.4,28.4,0,0,1,.94,11Z"/><path class="cls-6" d="M352,245.26c0-1.36-.05-2.71-.08-4.07,3.62-2.16-.54-5.44,1.12-7.88,1.45,1.58,1.26,4.25,3.57,5.23l1.11,2.89c-1.14,2.43,1.67,3.77,1.63,5.89-.41,1.9-1.82,2.15-3.43,2.09L354.05,248c-.07-.57-.41-.75-.95-.66l-1.1-1Z"/><path class="cls-1" d="M161,226.41c0,.92.05,1.85.08,2.77-5.15-2.32-2.7-6.44-2.14-9.91a10.41,10.41,0,0,1,4-6c.68,1.88,2.11,2.35,3.92,2.11a3.11,3.11,0,0,1-1.73,2.09c-1.59-.7-3.33-2-4.22.8s-2,5.49.16,8.18Z"/><path class="cls-3" d="M248.05,251.46c.4,2.11-.28,4.12-.9,6.35,3.47-.05,1.95-4.14,4.43-4.55.42,1.36-.09,2.55-.52,3.82-.8,2.34-2.24,4.05-4.72,3-2.72-1.16-.17-3.1,0-4.63C246.53,254.07,247.46,252.79,248.05,251.46Z"/><path class="cls-3" d="M353,233.3c-1.67,2.45,2.49,5.73-1.13,7.89-1.74-.81-3.89-1.19-3.94-3.76,1-.09,2.09,1.28,3.07-.08-.07.36-.15.72-.23,1.07l.67.06c-.17-.36-.35-.72-.53-1.08.75-2.72-1.28-3.76-3-5l5.12.53Z"/><path class="cls-3" d="M251.05,237.69l-1.71,7.72c-.87-.77,1-3.47-1.89-2.77s-3-1.42-3.45-3.25c5.58,3.32,3.73-1.28,3.94-3.69Z"/><path class="cls-3" d="M203.93,235.44c3,.59,2,3,1.77,4.6s-.67,3.08.37,4.53c-1.92,1.45-3.43,1.16-2.85-1.4S203.55,238,203.93,235.44Z"/><path class="cls-6" d="M353.06,232.93l-5.12-.53c-1.11-2.85-1.11-2.85,4-4.35a2.21,2.21,0,0,0,1.81,1.45l.24,2.9Z"/><path class="cls-3" d="M313.93,237.31c-.27,2.82,3.41,5,1.33,8.1-1.06-1.92-.17-5.52-4.21-4.88l-.09-2.3Z"/><path class="cls-3" d="M259.94,243.31c-.84,3-2.41,2.95-3.71.53-.94-1.76-2.26-3.55-2-5.79C257.15,238.73,255.9,243.86,259.94,243.31Z"/><path class="cls-2" d="M379.16,238.42c-1.32-2.52-3.07-4.95-1.38-8C379.3,232.91,380.55,235.44,379.16,238.42Z"/><path class="cls-3" d="M336.51,237.26c1.89,2.08,3.09,4.31,1.53,7.12C337.26,242.07,336,239.86,336.51,237.26Z"/><path class="cls-2" d="M233,257.36c3.34-.7,6.67,1.84,10,0C239.68,261.14,236.35,258.6,233,257.36Z"/><path class="cls-2" d="M353.06,232.93l.92-.53c2.37,1.41,2.62,3.72,2.62,6.14-2.31-1-2.12-3.65-3.57-5.23C353,233.3,353.06,232.93,353.06,232.93Z"/><path class="cls-3" d="M255.4,254.25c2.49,1.68,2.45,4.34,2.68,6.89C255,259.69,256.21,256.58,255.4,254.25Z"/><path class="cls-2" d="M359.34,247.32c0-2.12-2.77-3.46-1.63-5.89a6.26,6.26,0,0,1,2.47,6A6.1,6.1,0,0,1,359.34,247.32Z"/><path class="cls-3" d="M189.33,242.44c-2.16-1.85-1.62-3.9-.43-6C190.06,238.38,189.26,240.44,189.33,242.44Z"/><path class="cls-3" d="M319.68,258c2.94-.61,5.42,1.55,8.28,1.37C324.84,261.11,322.29,259.36,319.68,258Z"/><path class="cls-3" d="M401.19,230.45c1.11,1.36.57,3,.79,4.53C398.45,234,400.56,232.11,401.19,230.45Z"/><path class="cls-3" d="M359.49,231.27c2.23,1.43,1.45,3.26.67,5.09C358.84,234.81,359.35,233,359.49,231.27Z"/><path class="cls-2" d="M320.69,248.49c-2.28-1.31-2-3.11-1-5.06C321.05,244.92,320.84,246.71,320.69,248.49Z"/><path class="cls-3" d="M339.13,253.39c.89,1.37,1.2,3.16,2.87,4C338.66,257.43,338.11,256.67,339.13,253.39Z"/><path class="cls-10" d="M330.45,248.37l2.87-.1.24,2.94a1.49,1.49,0,0,0-.83.15l-2.34-.24Z"/><path class="cls-3" d="M359.34,247.32a6.1,6.1,0,0,0,.84.13c.11,1.32,1.1,2.94-.84,3.67-1.61.61-2.69-.33-3.43-1.71C357.52,249.47,358.93,249.22,359.34,247.32Z"/><path class="cls-2" d="M228.09,254.38c1.12.72,2.61,1,3,2.57C229.51,256.79,227.17,257.49,228.09,254.38Z"/><path class="cls-3" d="M315.43,247.25c3,.46,2.68,1.61.65,3.12C314.92,249.53,315,248.42,315.43,247.25Z"/><path class="cls-3" d="M193.2,243.43c.39.63.77,1.26,1.15,1.89l.07,0c-1.7-.08-4,1.23-4.37-1.93Z"/><path class="cls-3" d="M364.12,242.32c2.15-.15,3.95.17,3.88,3C366.46,244.6,364.87,244,364.12,242.32Z"/><path class="cls-2" d="M375.82,226.48a3.4,3.4,0,0,1-3-2.8l2.4-.2c.69.23,1,.65.68,1.37Z"/><path class="cls-2" d="M410.87,214.47a3.06,3.06,0,0,1-3-2.78A2.81,2.81,0,0,1,410.87,214.47Z"/><path class="cls-3" d="M368.08,245.33l5.82,1.06C371.61,248,369.79,246.92,368.08,245.33Z"/><path class="cls-3" d="M185.25,241.38A6.25,6.25,0,0,1,187,245.5C184.32,245,185,243.1,185.25,241.38Z"/><path class="cls-2" d="M319.56,240.53c-1.84-.68-1.17-2.51-1.73-3.78C320.28,237.16,320.09,238.76,319.56,240.53Z"/><path class="cls-1" d="M162,229.45l7.1,0A6.37,6.37,0,0,1,162,229.45Z"/><path class="cls-2" d="M130.64,219.53c-1.28,0-2.48-.15-2.64-1.8C129.08,218,131.19,216.84,130.64,219.53Z"/><path class="cls-3" d="M252,250.42c-.07-1.18.43-2.06,1.67-1.79s1.23,1.32.74,2.35A1.76,1.76,0,0,0,252,250.42Z"/><path class="cls-3" d="M338.38,248.26c1.68.74,1.95,1.76.64,3.11C337.73,250.56,338.19,249.38,338.38,248.26Z"/><path class="cls-3" d="M209.75,234.05c-2.93.06-1.44-1.85-1.39-3.12A2.73,2.73,0,0,1,209.75,234.05Z"/><path class="cls-1" d="M266.42,238.74l-3.55.58C263.78,237.45,265,237.39,266.42,238.74Z"/><path class="cls-2" d="M243,257.4c.1-1.15.21-2.31.31-3.46C245.87,255.33,244.36,256.36,243,257.4Z"/><path class="cls-3" d="M238,238.47c1.68-1.56,3.31-1.6,4.85.21Z"/><path class="cls-3" d="M435.45,195.67A3.15,3.15,0,0,0,438,194.4c1.19.2,1,1.38,1.51,2.1C438.11,196.37,436.61,196.82,435.45,195.67Z"/><path class="cls-2" d="M111.22,199.51c-1.11-.45-1.21-1.34-1-2.36C111.16,197.68,112,198.27,111.22,199.51Z"/><path class="cls-1" d="M113.55,204.67c-1.43-.38-3-.64-1.85-2.77C113.83,201.82,113.61,203.3,113.55,204.67Z"/><path class="cls-2" d="M407.19,211.25a1.75,1.75,0,0,1-2.32-1.57C406,209.74,407,209.94,407.19,211.25Z"/><path class="cls-2" d="M353.74,229.5a2.21,2.21,0,0,1-1.81-1.45C353.23,227.67,354.46,227.37,353.74,229.5Z"/><path class="cls-3" d="M360.05,227.42c1.2,1,.78,1.68-.48,2.14A1.42,1.42,0,0,1,360.05,227.42Z"/><path class="cls-3" d="M237.7,243.47c-1.76-.39-2.06-1.08-.46-2.18C237.39,242,237.55,242.74,237.7,243.47Z"/><path class="cls-3" d="M192,248.32c0-1.41.79-2,2.17-1.9C194.05,247.76,193.2,248.24,192,248.32Z"/><path class="cls-2" d="M231.11,247.39c1.14,1.15.6,1.75-.68,2.1A1.76,1.76,0,0,1,231.11,247.39Z"/><path class="cls-3" d="M249,247.37c1.35,1.14.76,1.74-.59,2.13C248.16,248.66,248.14,247.89,249,247.37Z"/><path class="cls-2" d="M323.53,255.52a1.71,1.71,0,0,1-1.52-2.2C323.15,253.62,323.93,254.16,323.53,255.52Z"/><path class="cls-3" d="M317.89,255.47c1.51,0,2.11.68,1.5,2.17A2,2,0,0,1,317.89,255.47Z"/><path class="cls-3" d="M180.09,245.32a1.68,1.68,0,0,1-2.06-1C179,244,179.61,244.58,180.09,245.32Z"/><path class="cls-3" d="M374,246.37c.95-1.2,1.93-1.43,3-.09Z"/><path class="cls-3" d="M380,247.36h3C382,248.71,381,248.51,380,247.36Z"/><path class="cls-3" d="M316.36,253.25a1.67,1.67,0,0,1,1.5,2.19C316.77,255.11,316.14,254.47,316.36,253.25Z"/><path class="cls-4" d="M207,255.4c-1.17,0-2.34.12-2.85-1.28A2.54,2.54,0,0,1,207,255.4Z"/><path class="cls-3" d="M398.32,213.38a1.85,1.85,0,0,1,1.71,1.88C399.24,214.84,398.1,214.73,398.32,213.38Z"/><path class="cls-3" d="M200.56,225.29c1.28.35,1.9.93.76,2.14C201.06,226.72,200.81,226,200.56,225.29Z"/><path class="cls-3" d="M348,243.36a1.7,1.7,0,0,1,2.07,1.67A2.21,2.21,0,0,1,348,243.36Z"/><path class="cls-2" d="M382.25,233.32a1.88,1.88,0,0,1,1.7,2.05A2.55,2.55,0,0,1,382.25,233.32Z"/><path class="cls-1" d="M150.13,199.71a1.49,1.49,0,0,1-1.26,1.68C149,200.65,149.23,199.91,150.13,199.71Z"/><path class="cls-1" d="M148.11,201.92a1.45,1.45,0,0,1-1,1.55C147.14,202.77,147.25,202.09,148.11,201.92Z"/><path class="cls-3" d="M185.22,236.38c.87.67.88,1.34,0,2C185.23,237.73,185.23,237.05,185.22,236.38Z"/><path class="cls-4" d="M332.06,254.47c0-1,.6-1.33,1.5-1.31C333.85,254.5,332.63,254.12,332.06,254.47Z"/><path class="cls-3" d="M424,188l.9,0-.45.09Z"/><path class="cls-2" d="M109.7,195.46c-.58-.64-.2-.85.43-.94Z"/><path class="cls-1" d="M144.07,207.59l-.88.89Z"/><path class="cls-1" d="M143.07,208.61l-.78.89C142.22,208.92,142.52,208.66,143.07,208.61Z"/><path class="cls-3" d="M201.05,222.67l-.87.79C200.12,222.81,200.37,222.51,201.05,222.67Z"/><path class="cls-3" d="M197,236.46l-.63,1C196.14,236.8,196.53,236.59,197,236.46Z"/><path class="cls-3" d="M344.83,241.47a.91.91,0,0,1,1.14.82A1,1,0,0,1,344.83,241.47Z"/><path class="cls-3" d="M363,241.35l1,.88C363.39,242.28,363.09,242,363,241.35Z"/><path class="cls-3" d="M173.74,243a1.41,1.41,0,0,1-1.73-.65Z"/><path class="cls-3" d="M346.08,242.37l.94.62C346.43,243.19,346.11,243,346.08,242.37Z"/><path class="cls-2" d="M382.53,243.5c-.59,0-.78-.33-.69-.88C382.39,242.66,382.68,242.91,382.53,243.5Z"/><path class="cls-3" d="M197,244.13l.92-.79C197.87,243.94,197.63,244.27,197,244.13Z"/><path class="cls-2" d="M384,244.49l-.64.3c0-.26,0-.52-.05-.78Z"/><path class="cls-4" d="M330.24,245.32a.93.93,0,0,1,0,1.41Z"/><path class="cls-3" d="M352,245.26v1.05l-1.08-.91Z"/><path class="cls-3" d="M377.06,246.34l.95.61C377.4,247.22,377.17,246.87,377.06,246.34Z"/><path class="cls-3" d="M353.1,247.32c.54-.09.88.09.95.66C353.41,248.22,353.17,247.9,353.1,247.32Z"/><path class="cls-3" d="M190.9,248.34h1c0,.34-.11.67-.16,1Z"/><path class="cls-3" d="M194.78,251a1.46,1.46,0,0,1-1.79-1Z"/><path class="cls-2" d="M230.07,250.53c-.2.3-.39.6-.58.9C229.27,250.86,229.56,250.63,230.07,250.53Z"/><path class="cls-4" d="M332.73,251.36a1.49,1.49,0,0,1,.83-.15c0,.43,0,.86,0,1.29Z"/><path class="cls-2" d="M325.12,257.23c-.74.18-1.14-.08-1.13-.87Z"/><path class="cls-3" d="M329.92,258.8l.75-.52C330.65,258.79,330.41,259,329.92,258.8Z"/><path class="cls-10" d="M55.1,113.59c-1.37-.5-8-8.61-7.84-9.65s1-1.13,1.81-1.39c7-2.41,9.52-8.32,11.68-14.9,2.69,1.29,4.62,3.73,6.88,5.74l-1.56,1.16c-5.73,2.6-8.47,8.31-12.71,12.44-1.84,1.81.59,3,2.6,3.45,6.93,1.55,10.3-2.82,13.3-7.87l.83-1.76.1-2.2c1.54-.06,1.91,1.71,3.21,2a2.18,2.18,0,0,1,.17,3c-1.51.43-1.52,1.51-1.19,2.74-2.38,4.2-5.44,7.4-10.74,7.36Z"/><path class="cls-8" d="M96,147.41c-3.08.46-4.8-1.13-3.4-4s-.13-4.12-1.55-5.79c-.32-1.85,1.13-4.45-2.13-5.07,1.41-.74,2.78-1.56,4.24-2.19,2.6-1.13,4.38-2.41,1.56-5.15a2.17,2.17,0,0,1-.41-3c1.11-1.11,2.67-.61,4,0-.34,1.74,0,3.23,1.82,3.93s2.07,2.25,2.13,3.91a.54.54,0,0,1-.31.62c-2.27.61-1.85,2.11-1.21,3.67-.11.42-.23.85-.35,1.27C97.87,139.08,95.39,142.68,96,147.41Z"/><path class="cls-1" d="M116.94,166.77c-6-5.4-2.77-15.54,6.1-19,6.76-2.61,12.37.19,13.1,6.56.05.42-.32.89-.49,1.34-2-.44-.93-3-2.5-3.73-1.73.67-.52,2.8-1.87,3.59-.66-1.69,1.06-4.27-1.47-5.13s-4.4.78-6,2.54a45.67,45.67,0,0,0-4.14,4.9c-1.59,2.34-3,4.86-.65,7.61C118.16,165.66,117.33,165.85,116.94,166.77Z"/><path class="cls-9" d="M104,138.45c5.2-4.56,10.45-4.28,13.18.71L116,140.57c-6.55-3.14-8.89,2.67-12.46,5.85-1.76,2.47-3.18,4.92.67,6.85l-.11.15a2.26,2.26,0,0,1-2.38,2.22c-3.07-3.81-1.89-7.66.07-11.38C102.8,142.39,104.16,140.73,104,138.45Z"/><path class="cls-10" d="M116.94,166.77c.39-.92,1.22-1.11,2.08-1.28,6.78,0,8.91-5.71,12.26-9.92,1.35-.79.14-2.92,1.87-3.59,1.57.76.51,3.29,2.5,3.73C133.4,165.4,125.7,170,116.94,166.77Z"/><path class="cls-9" d="M76.1,124.57l.16-2c.83-.92,1-1.6-.61-1.58l0,0c.06-.53.12-1,.19-1.58.86.11,1.71.16,2.2-.78,3.87,1.76,7.5,2.28,10.24-1.92l3-.1.24,3.77c-.18.36-.36.73-.55,1.09-2.11,3.56-6.1,1.52-8.91,3-.33-.44-.69-.49-1.06,0l-1,.16C78.71,124.5,77.4,125.72,76.1,124.57Z"/><path class="cls-1" d="M75.86,119.4c-.07.53-.13,1-.19,1.58-2.54-.42-3.74,1.83-5.46,2.9a5.07,5.07,0,0,1-5.06.53c-1-.39-1.85-1-1.74-2.12a1.8,1.8,0,0,1,1.7-1.56c2.5-.12,4.12-1.86,6-3.12l.94-.91A4.61,4.61,0,0,1,75,114.55C76.38,116,74,118.07,75.86,119.4Z"/><path class="cls-11" d="M88.89,132.5c3.26.62,1.81,3.22,2.13,5.07-2.62-.74-5.23-1-7.39,1-1.74,1.65-3.72.77-5.62.85l.11.07c0-1.32-1.67-1-2-2,.38-.62-1.08-3.13,1.53-1.49a1.66,1.66,0,0,0,2.43-.5Z"/><path class="cls-3" d="M80.05,135.51a1.66,1.66,0,0,1-2.43.5c-2.61-1.64-1.15.87-1.53,1.49-.7.09-1.42-1-2.09.05l.06.08c.86-4.32-.62-9,2-13.06,1.3,1.15,2.61-.07,3.92,0C78.19,128.22,76.9,131.87,80.05,135.51Z"/><path class="cls-3" d="M104,138.45c.18,2.28-1.18,3.94-2.16,5.81-2,3.72-3.14,7.57-.06,11.38.13.5.27,1,.4,1.51-5.59-1.23-4.29-5.64-3.67-9.08A16.78,16.78,0,0,1,104,138.45Z"/><path class="cls-9" d="M77.94,106.41c3.83,1.73,7,4.53,10.33,6.94l-2.3.32c-2.9-1.91-5.51-1.4-7.9,1C77.07,111.9,78.73,109.13,77.94,106.41Z"/><path class="cls-7" d="M102.16,157.15c-.13-.51-.27-1-.4-1.51a2.26,2.26,0,0,0,2.37-2.22c.33,0,.78.12,1,0,1.25-1.08,2.3-2.68,4.29-1.88,1.47.58,1.06,2,.78,3a4.11,4.11,0,0,1-4.09,2.93A30.5,30.5,0,0,1,102.16,157.15Z"/><path class="cls-6" d="M116,140.57l1.13-1.41a23.39,23.39,0,0,1,3.66,1.32c1.09.61,3.52-1.39,3.29,1.36-.15,1.83-2.1,1.68-3.61,1.78-.91.06-2-.32-2.62.85-1.55.46-2.7.26-2.76-1.69l.13-.17c.65-.11.91-.47.73-1.12C116,141.19,116,140.88,116,140.57Z"/><path class="cls-3" d="M77.94,106.41c.79,2.72-.87,5.49.13,8.21-.09,1.33-.72,2.66,0,4-.49.94-1.34.89-2.2.78-1.85-1.33.52-3.44-.9-4.85C77.49,112.4,76,108.76,77.94,106.41Z"/><path class="cls-2" d="M96,147.41c-.58-4.73,1.9-8.33,4.42-11.91C100,139.88,98.14,143.69,96,147.41Z"/><path class="cls-3" d="M102.26,129.94c-.06-1.66-.26-3.2-2.13-3.91s-2.16-2.19-1.82-3.93c1.59,1.13,3.26,2.16,4.74,3.41C105.21,127.33,104.69,128.85,102.26,129.94Z"/><path class="cls-5" d="M66.07,94.55l1.56-1.16c2.65,1.84,6,3.17,5.76,7.25-1.29-.32-1.66-2.09-3.2-2C68.92,97.15,67.92,95.42,66.07,94.55Z"/><path class="cls-2" d="M104.24,153.27c-3.85-1.93-2.43-4.38-.67-6.85Q103.9,149.84,104.24,153.27Z"/><path class="cls-4" d="M86,113.67l2.3-.32-.19.07c.49,1.25,1,.15,1.49,0,1.28.68,2.69,1.28,1.72,3.17l-3,.1Z"/><path class="cls-2" d="M115.12,142.78c.06,1.95,1.21,2.15,2.76,1.69-.57,1.64-1.79,2.6-3.24,1.51C113.61,145.2,113.57,143.65,115.12,142.78Z"/><path class="cls-5" d="M55.1,113.59l6.54.12A6.87,6.87,0,0,1,55.1,113.59Z"/><path class="cls-2" d="M100.74,134.23c-.64-1.56-1.06-3.06,1.21-3.67A4.55,4.55,0,0,1,100.74,134.23Z"/><path class="cls-2" d="M94,155.55a1.77,1.77,0,0,1-2-1.68A1.85,1.85,0,0,1,94,155.55Z"/><path class="cls-3" d="M171,173.54c1.45,1.21,1.35,2.53.29,3.92Z"/><path class="cls-5" d="M72.38,106.35c-.33-1.23-.32-2.31,1.19-2.74A2.76,2.76,0,0,1,72.38,106.35Z"/><path class="cls-2" d="M95.83,157.57a5.29,5.29,0,0,1-.8-.06l-1-1.92C95.18,155.76,95.9,156.31,95.83,157.57Z"/><path class="cls-4" d="M33.11,14c1.4-.15,2.5-.05,1.54,1.81L33.17,15A3.93,3.93,0,0,1,33.11,14Z"/><path class="cls-3" d="M75.65,121c1.62,0,1.44.66.61,1.58Z"/><path class="cls-3" d="M81,124.41c.37-.45.73-.4,1.06,0Z"/><path class="cls-2" d="M116,141.49c.18.65-.08,1-.73,1.12C115.2,142,115.37,141.62,116,141.49Z"/><path class="cls-4" d="M2.06,29.76l.15-1.22.85,1.2Z"/><path class="cls-2" d="M89.34,151.41,88,150.22Z"/><path class="cls-4" d="M34.49,17.68c.62.43.56.81-.07,1.16C34.44,18.46,34.47,18.07,34.49,17.68Z"/><path class="cls-9" d="M89.57,113.43c-.49.14-1,1.24-1.49,0A.9.9,0,0,1,89.57,113.43Z"/><path class="cls-3" d="M72.05,116.7l-.94.91Z"/><path class="cls-4" d="M91,121.46c.19-.36.37-.73.55-1.09C92.06,121.1,91.67,121.35,91,121.46Z"/><path class="cls-10" d="M548.84,77.66c.73,3.76,4.64,6.06,4.22,10.61-.33,3.5-2,5.88-4,8.19-1.32,1.49-2.7,1.29-4.11-.44-2.76-3.4-6.94-4.94-10.46-7.37-.72-.5-1.73-1.31-2.72-.65s-3-.16-3.45,1.36,1.11,2.15,2.22,2.85c3.35,2.11,6.7,4.23,10,6.41,1,.69,2.91,1.12,2.35,2.73-.47,1.35-2.24,1.18-3.55,1.2-2.82.06-5.65,0-8.47.08-1.05,0-2.57-.68-3.07.77s.76,2.36,1.78,3.22,2,1.69,3,2.62c1.13,1.12,2.89,2.14,1.69,4.1-1,1.65-2.62,1.82-4.37,1.08-.65-.27-1.43-1.06-2,.13l.09.09c-.6-5.92-5.49-8.19-9.59-11-1.21-.85-4.4.43-3.58-2.46.71-2.47,3.28-4.3,5.9-3.06,2.86,1.35,5.52.39,8.26.52.75,0,1.74.28,2.12-.75s-.37-1.54-1-2c-1-.81-2.09-2.18-3.17-2.2-4.51-.08-4.44-2.79-3.88-6l-.07.08c2.62.85,4.78.57,6.38-2,4-6.49,9.38-9.91,17.29-7.94a9.22,9.22,0,0,0,2.4,0Zm-9,3.67c-1.71.37-4-.4-4.57,1.44s1.56,2.47,2.9,3.27c2.53,1.52,5.06,3,7.61,4.52,1,.59,2.09,1.15,3.16.1.88-.86.33-1.86.1-2.78C547.83,83,543.94,82,539.85,81.33Z"/><path class="cls-9" d="M437,164.56c-5.87,1.92-5.87,1.92-.1,8.05l.78,1,3.27,2.89c.08,1.32.34,2.34,1.95,1.21,1.57.73,4.36-1.87,4.88,1.77l-.87,1c-3.65,4-6.5,6-10.1-.71a15,15,0,0,0-8.56-7.07c-2-.58-3.77-.74-3.53,2.21.14,1.86,0,3.58-2.52,2.89-1.76-.49-3.45-1.39-3-3.83.8-4.56,11.61-13.61,16.71-14C436,161.56,438.3,162.62,437,164.56Z"/><path class="cls-9" d="M542,67.16a1.83,1.83,0,0,0,.89-2.16c8.73-5.8,15-1.73,20.26,4.84,2.11,2.63,1,5.55-.25,8.18-1.34,2.81-3.41,1-5.42.78-2.86-.4-5.85.19-8.6-1.14l.14,0C545.85,74.71,541.13,72.78,542,67.16ZM557,75.46c1.52-.48,3.88,1.44,4.69-.93.71-2.11-1.59-3-2.88-4.17-2.54-2.32-5.86-3-9.06-3.69-1.29-.27-3.56-1.24-4,1.32-.38,2-.36,4,2.16,4.88C550.89,73.92,553.39,76.6,557,75.46Z"/><path class="cls-9" d="M450.88,154.2c-.82.26-1.52.18-1.92-.71v-3.86c4.07-3.44,7.51-8.1,13.86-7.12l1.78.08c.76,1.49,0,1.66-1.34,2.09-1.78.58-4.06,1.22-3.41,4l.64.85c.15.31.31.62.47.93-.11,1.51,0,2.89,2,3,3.21,2,4.06,6.57,8.47,7.26,1.52.23,1,1.57.11,2.18-2,1.42-4.05,3.6-6.41.76-1.89-2.28-3.46-4.82-5.18-7.24l-.83-1-.08-.12a1.54,1.54,0,0,0-1.08-1.81l-1-1.12-.91-.92c-2.21-.94-3.45.25-4.44,2Z"/><path class="cls-10" d="M552.57,54.27c1-1.53-2.52-3.77.44-5,2.26-1,4.14.35,5.73,2,1,1,1.22,1.88-.09,2.81-.77.55-2.77.68-1.14,2.28a2.42,2.42,0,0,0,3.58,0c1-.89,1.91-2.45,2.95-2.53,2.07-.16,4.85-1.54,6.17,1.25,1.46,3.08,1.54,6.35-.59,9.26-1.64,2.25-3.67,1.36-5.78.55-1.19-.46-2.22-.62-2-2.19s1.43-1.12,2.31-1.09c1.59.05,3-.11,3.76-1.74.42-.9-.45-1.1-.9-1.49-1.72-1.51-2.68.37-3.84,1C556.05,63,552.55,61.41,552.57,54.27Z"/><path class="cls-1" d="M437,164.56c1.31-1.94-1-3-1.11-4.61a31.49,31.49,0,0,1,2.69-3.47c3.4-3.33,5.44-3.14,8.14.69,3.16,4.47,6.6,8.64,11.61,11.15,1.22.62,2.1,1.5,1.48,2.66a7,7,0,0,1-4.22,3.24A1.9,1.9,0,0,1,453,172.6c-1.3-5.58-6.58-7.47-10.29-10.73C439.52,159.06,439.16,164.12,437,164.56Z"/><path class="cls-8" d="M500,142.69c-1,2-3,2.95-4.72,4.18-2.8,2-4.59,3-7-1.44s-6.91-8.07-11.91-10.49c-1.13-.54-3.31-1.15-2.92-2.82.42-1.82,2.45-2.63,4.19-3.17,2.23-.7,2.05,1.21,2.64,2.54,1.2,2.68,3.81,4,6.17,5.46a13.91,13.91,0,0,1,3.58,2.64c2.73,3.5,4.86,4.45,6.5-.79.13-.4,1.46-.43,2.23-.63C499.19,139.67,499.6,141.18,500,142.69Z"/><path class="cls-8" d="M464.6,142.59l-1.78-.08a11.79,11.79,0,0,0,1.24-2.62c.56-2.81,2.9-3.4,5-4.11,2.65-.89,2.62,1.7,3.66,3,3.13,3.82,6.48,7.46,9.46,11.39,1,1.32,3.13,3.5.22,4.93-2.2,1.08-4.06,0-5.05-2.45-1.55-3.92-4.58-6.82-7.41-9.79C468.46,141.23,466.53,139.72,464.6,142.59Z"/><path class="cls-9" d="M499.24,136.46c-2.06-2.72-4.08-5.48-6.22-8.14-1-1.24-1.95-2.57-3.85-2.75-1.21-.12-3.5,1-3.23-1.57.23-2.33,2.28-3.5,4.32-4.19,1.41-.47,3-.53,3.55,1.47a17.86,17.86,0,0,0,4.06,6.39c0,1.4,0,2.75,1.88,3,3.56,4.62,3.6,4.64,7.19-.18.57-.76,1.12-1.32,1.92-1a4.07,4.07,0,0,1,2.15,1.81c.35,1,.33,2.48-1.12,2.88-2.43.67-3.64,2.68-5.21,4.31C501.55,141.29,501.27,136.58,499.24,136.46Z"/><path class="cls-7" d="M521.13,113.47c2.14,1.08,4.17,2.82,6.79,1.17l-.09-.09c.3,1.66,3.53,3.34,0,5l-2.72,0c-2.92-2.94-5.56-2.8-8.13.54-1.45,1.88-1.72,3.37.52,4.77,3.11,1.94,2.88,3.55-.53,4.78l-1,.35c-2.47.41-2.38-1.77-3-3.08-1.64-3.51-3.13-7.08-4.68-10.62,1.45-2.3,2.46.15,3.68.33a3.29,3.29,0,0,0,.93.2c.14.62.31,1.42,1,1.27.41-.09.67-.9,1-1.38l2.13-1C518.78,115.62,519.25,113.22,521.13,113.47Z"/><path class="cls-1" d="M512,116.57c-1.22-.18-2.23-2.63-3.68-.33a16.73,16.73,0,0,0-2.5-2.35c-1.27-.78-4.58.25-3.27-2.68,1.16-2.57,3.45-5,7-3.88a36.41,36.41,0,0,1,11.63,6.14c-1.88-.25-2.35,2.15-4.08,2.17a4.08,4.08,0,0,0-5.22-3C509.19,113.34,512.73,115.16,512,116.57Z"/><path class="cls-2" d="M499.24,136.46c2,.12,2.31,4.83,5.44,2,0,3.16-4.43,1.32-4.68,4.18-.4-1.51-.81-3-1.21-4.52Z"/><path class="cls-3" d="M449,149.63v3.86C446.69,152.21,446.91,150.92,449,149.63Z"/><path class="cls-1" d="M551.43,21.64c-.64-.55-.61-1.32.07-1.54,1.5-.5,2,.61,2.28,1.81Z"/><path class="cls-3" d="M463,153.51c-2-.11-2.11-1.49-2-3A3.52,3.52,0,0,1,463,153.51Z"/><path class="cls-3" d="M499.75,130.64c-1.84-.22-1.9-1.57-1.88-3A3.45,3.45,0,0,1,499.75,130.64Z"/><path class="cls-3" d="M442.89,177.69c-1.61,1.13-1.87.11-1.95-1.21C441.91,176.37,442.66,176.61,442.89,177.69Z"/><path class="cls-3" d="M525.09,119.5l2.72,0C526.89,120.88,526,121,525.09,119.5Z"/><path class="cls-3" d="M587.43,11.87a4.43,4.43,0,0,1,.3,3.33A3.5,3.5,0,0,1,587.43,11.87Z"/><path class="cls-3" d="M458,153.52a1.54,1.54,0,0,1,1.08,1.81C458.09,155.08,458.06,154.28,458,153.52Z"/><path class="cls-1" d="M515.94,129.94l1-.35C516.73,130.05,516.48,130.42,515.94,129.94Z"/><path class="cls-3" d="M460.49,149.58l-.64-.85C460.38,148.78,460.71,149,460.49,149.58Z"/><path class="cls-3" d="M456.07,151.48l.91.92A.82.82,0,0,1,456.07,151.48Z"/><path class="cls-3" d="M450.88,154.2l.75-.72C451.78,154.13,451.54,154.39,450.88,154.2Z"/><path class="cls-3" d="M459.12,155.45l.83,1C459.36,156.39,459,156.1,459.12,155.45Z"/><path class="cls-3" d="M437.67,173.59l-.78-1C437.47,172.68,437.81,172.94,437.67,173.59Z"/><path class="cls-3" d="M446.9,180.42l.87-1C447.82,180.09,447.49,180.37,446.9,180.42Z"/><path class="cls-3" d="M587.6,9.08c-.11,0-.28.1-.32.06a.79.79,0,0,1-.15-.36l.55-.11Z"/><path class="cls-4" d="M122.19,180.59l-1.17.73Z"/><path class="cls-3" d="M364.52,227.29l-.12,7.25C362.41,232.09,362.23,229.67,364.52,227.29Z"/><path class="cls-3" d="M373.12,232.38a1.58,1.58,0,0,1-.73-2.1C373.66,230.63,374.19,231.23,373.12,232.38Z"/><path class="cls-2" d="M375.88,226.54c.62.06.94.33.69,1Z"/><path class="cls-3" d="M409.17,221.48l.06-2.17c.71.05,1.29.35,1.27,1.12S409.89,221.47,409.17,221.48Z"/><path class="cls-3" d="M408,218.14c-.62.11-.88-.19-.87-.78Z"/><path class="cls-1" d="M174.14,219.48l1-6C177.84,215.94,176.9,217.86,174.14,219.48Z"/><path class="cls-1" d="M162.29,223.35l.6,3.11-1.88-.05,0,0C161.16,225.28,160.63,223.87,162.29,223.35Z"/><path class="cls-1" d="M175.06,213.29l-3-1.36C173.73,211,174.81,211.24,175.06,213.29Z"/><path class="cls-1" d="M163,226.53l1,.37C163.41,227.49,163.11,227.26,163,226.53Z"/><path class="cls-7" d="M162.29,223.35c-1.66.52-1.13,1.93-1.26,3.08-2.16-2.69-1-5.45-.16-8.18s2.63-1.5,4.22-.8C164.16,219.42,163.22,221.39,162.29,223.35Z"/><path class="cls-5" d="M69.26,102.57a1.6,1.6,0,0,1,.83-1.76Z"/><path class="cls-1" d="M512.88,116.77l2-.11c-.32.48-.58,1.29-1,1.38C513.19,118.19,513,117.39,512.88,116.77Z"/></g></g></svg>