<svg xmlns="http://www.w3.org/2000/svg" viewBox="0 0 543.62 175.33"><defs><style>.cls-1{fill:#2e2c2c;}.cls-2{fill:#363332;}.cls-3{fill:#1f1e1f;}.cls-4{fill:#262523;}.cls-5{fill:#393736;}.cls-6{fill:#47433c;}.cls-7{fill:#57534a;}.cls-8{fill:#61605c;}.cls-9{fill:#141115;}.cls-10{fill:#747570;}</style></defs><g id="Layer_2" data-name="Layer 2"><g id="Layer_1-2" data-name="Layer 1"><path class="cls-1" d="M183.44,84a4.23,4.23,0,0,1-3.12.31c-4.57.19-9.15.34-13.72.62-.41,0-.77.9-1.15,1.38l-2.92.36a45.26,45.26,0,0,0-20.07,3.48l-3,.49c-2.64.67-5.93-1.6-8,1.75l-1.44.41c-1.91.22-4.28-1.35-5.55,1.4l-2.14.39c-1.38.19-3.08-.55-3.88,1.34l-2.06.49c-2.11-.85-3.7-.17-4.94,1.62l-1.89.63c-4.59-1.52-4.34,2.86-6,4.91l-3.18-1.32c-.78-.8-1.41-.62-1.91.3l-1.26.42c-2.09,0-4.7-1.78-5.74,1.72l-1.2.24a1.7,1.7,0,0,0-1.86,1.16l-2.21.81c-1.94,0-4.66-1.41-4.4,2.47l-.29.22c-.66,0-1.37.07-1.58.85,0,.2.26.5.4.75l1.17-.68c1.8-.14,3.6-.32,5.4-.42,6.69-.39,13.54-1.9,19.58,2.62,1.58,1,4.92-.66,4.67,3.1-.36,5.63-1.64,10.7-7.73,12.9-1.13-.15-2.39,0-3.09-1.24l0,0c1.84-.09,3.48-.52,4.19-2.5l-.09-.23.23-.12c3-1.6,1.89-3.84,1-6l-.1-.24-.94-1.77-4.17-2.91c-.16-.53-.43-.78-.95-.35L91.24,113c-2.32-.07-4.82-1.47-6.77,1a13.26,13.26,0,0,1-7-.06c-1.84-2.05-3.87-1.55-6-.44L69.38,113a1.1,1.1,0,0,0-.75-.42,8.84,8.84,0,0,1-4.54-4.12c-2.62-5.18-5.49-10.25-8.26-15.36l3.71-.46A3,3,0,0,1,60.75,95c.52,2.54-.85,6.06,3.44,6.66a.52.52,0,0,1,.42.68c-.46,3.19.7,5.38,3.92,6.28,3.36,2,6.43,2.26,9.37-1,1.06-1.17,2.78-1.78,4.27-2.51,6.71-3.27,14-5.07,20.88-7.79,21.41-8.46,43.8-12.34,66.42-15.17,17.59-2.21,35.24-3.94,53-4.75l6-.78a14.6,14.6,0,0,0,2.45.23c25.51-2,51-1.38,76.45.93,15.8,1.44,31.57,3.12,47.34,4.83,16.93,1.83,33.71,4.62,50.4,8a180.78,180.78,0,0,1,39.38,12.93c.71,1.16,1.84,1.13,3,1l3,.65a3.37,3.37,0,0,0,3,1.39l1.89.5c1,2.21,3.08,1.3,4.74,1.64l1.38.85a1.9,1.9,0,0,0,2.23.86c6.9,5.39,9.56,5.4,14.37.06a1,1,0,0,0,.42-.68l.68-1.33c1.37-.39,1.29-1.53,1.36-2.6,2.71-8.11,8.14-14.53,13.16-21.22l.79-.82c.61-3.14,3.32-4.44,5.45-6.26a.94.94,0,0,0,.57-.55l.06-.28.29-.05a.89.89,0,0,0,.52-.57l1.59-1.55a.89.89,0,0,0,.52-.61L506,70.55a1,1,0,0,0,.41-.68c.13-.42.26-.84.38-1.26l.45-1.23c1-5-1.66-8.73-5.37-10.82-9-5.07-17.89-10.51-27.49-14.63-10.32-4.44-20.61-8.94-31.05-13.11,0-.7,0-1.4,0-2.1l3,0A18.75,18.75,0,0,0,453.3,29c.79,2,2.55,1.66,4.16,1.66a1.05,1.05,0,0,1,.84.29c3.78,3.3,8.38,4.7,13.16,5.71a1.78,1.78,0,0,1,.93.23c2.95,3.92,7.63,4.38,11.8,5.87l.12.1c.3,1.8,1.67,1.83,3.06,1.83a2.71,2.71,0,0,1,.91.34c.4,1.64,1.66,1.75,3,1.68l1.18.72c.47,1.32,1.56,1.39,2.72,1.33,4.32,2.28,9.45,3.34,12.13,8.06a6,6,0,0,0,1.88,3.88l.06.16.69,1.76c1.55,6.44-1.57,11.15-5.73,15.47-1.12,1.16-2.75,1.91-2.94,3.79l.83.83.15.1c0,1.49-1,1.88-2.22,2-3-.83-3.9,1.44-5.33,3.26-6.17,7.92-10.1,17.16-15.23,25.69l0,.06-1.91,1.88.16-.11c-2.95,2.13-6.24,2.59-9.84,2.66-5.84.12-11.54-.83-17.27-1.52-6.72-.8-10.67,2.15-11.7,8.81a5.25,5.25,0,0,0-.87.21c-2.35.09-3.34-1.8-4.65-3.21,0-1.11-.14-2.28.94-3.06l.14.13c3.22,1.94,3.66-.24,3.93-2.66,4.9-4.16,10.54-4.15,16.4-2.92,2.25.48,4.52,1.23,7.38-1-4.52-.23-7.29-2.71-10.77-3.72-10.52-3-10.47-3.24-14.22,7.33l-2.87-1c.17-1.07.05-2.24,1.11-3a2.06,2.06,0,0,0,.94-2c1.73-6.48,1.66-6.27-5.12-8.71C404.94,92.34,377.46,88.94,350,85.55,329.55,83,309,81.64,288.55,80c-1.53-1.92-3.26-1.74-5.09-.48l-2.06,0c-.64-.89-1.3-.9-2,0l-8-.81c-1.63-1.91-3.07-.18-4.58.24l-6.51.51c-6.33-.94-12.66-1.91-18.9.53-3,.94-6.08.28-9.12.38a2.69,2.69,0,0,0-3.83.19l-2.86.21-1.07.32a3.72,3.72,0,0,1-3.36-.06c-3.62,0-7.37-1.55-10.76,1l-9.06.5c-1.74-1.17-3.42-1.32-5,.33-.33.43-.71.58-1.18.21C191.26,83,187.16,81.23,183.44,84Z"/><path class="cls-1" d="M203.55,3.17l4.88-.62,5,.19c.39.29.83.89,1.16.83,8.93-1.54,17.94-.44,26.9-.79,0,.37,0,.74.07,1.11L218.47,5.44c-.37-.71-.73-.68-1.06,0l-2,.06c-.79-.94-1.42-.68-2,.26l-4.91.1-1.05.16-11.65,1.3c-1.6-.8-3,.11-4.48.52l-5.95.73c-.75-1-1.4-.75-2,.17l-2.59.48c-1.6-.65-3.12-.74-4.41.66C141.92,15.27,108.13,23.39,75.82,37c-5.11.3-9.28,2.82-13.31,5.65a.87.87,0,0,1-.56.45,2.56,2.56,0,0,0-3.34,1.7h0l-1.15.68-.22.07a5.91,5.91,0,0,0-5.71,3l-.16.14c-1.73-.33-3.14,0-3.86,1.83L44.81,52c-3,.08-4.72,1.7-5.35,4.58l-.08.09c-2.68,1.9-4.05,4.1-1.61,7.14L38.89,67a2.65,2.65,0,0,1-2.4,1.67,4.14,4.14,0,0,0-.86,0c-.22-.46-.44-.93-.65-1.39-.22-2.91-.43-5.83-.65-8.74l.48-1.84L42.56,49l.29-.18c3.76,0,6.3-2.26,8.67-4.81,12-8.21,26.15-11.69,39-18,4.07-2,9.06-2,13.33-3.67,3.19-1.26,6.11-3,9.69-2.6,6-.3,11.47-2.39,16.95-4.57l2-.42c9-.32,17.46-3.46,26.28-4.79,4.24-.64,8.83-.08,12.7-2.64l4.81-.64c2.74,0,5.58.82,8.15-.87,4.09.21,8-1.65,12.13-1,2.34,0,4.77.58,6.9-1A.73.73,0,0,0,203.55,3.17Z"/><path class="cls-2" d="M399.24,12.76a2.72,2.72,0,0,1,2.5.85,2.76,2.76,0,0,0,.93.23l1.8.14c.79,1,1.89.74,2.93.75l4.93,1.16c-2.29,1.79-5.1.31-7.54,1.17l-4.64-1-1-.16c-2.43.23-4.52-.94-6.73-1.6-.42-1.4-1-1.84-2-.42a15.41,15.41,0,0,1-3.47-.07c-15.69-3.86-31.7-5.65-47.72-7.25C324.28,5.05,309.35,4.1,294.4,3.78a3.53,3.53,0,0,0-5-.09l-3,0c-1.41-1.6-3.31-.63-5-.93,0-.32,0-.64,0-1,6.3-.55,12.7,1,18.93-.95l8.08,0a4.14,4.14,0,0,0,4.95.39C322.66.81,331.83,2.42,341,3.1a296.67,296.67,0,0,1,38.86,5.49c5.21,1.09,10.41,2.25,15.6,3.38C396.54,13.18,398,12.66,399.24,12.76Z"/><path class="cls-3" d="M537.85,132.85l-2.47-.84c-.47-1.31-1.15-1.49-2-.35a6.66,6.66,0,0,1-4-.39c-1.08-1.89-2.74-1.87-4.54-1.37l-4.42-.17c-1.54-1.66-3.23-1.46-5-.37a5.59,5.59,0,0,1-1,0c-13.89-1.69-13.77-1.71-11.92,12.47.9,6.87,2,13.75,1.8,20.73,0,2.67-.76,5.41.76,7.93l-.06,3.85-.72.73c-2.16.71-3.18-.49-3.43-2.34-.4-3-2.33-5-4.25-7-.06-2-1.26-3-3.11-3.32l-1.06-1.1a2.42,2.42,0,0,1,1.58-2.26c3,.77,4.16,4.39,7.68,5.31-.43-4.65-.83-8.87-1.22-13.09a.75.75,0,0,0-.2-.92q-1-8.92-1.91-17.84c.94-.63.93-1.29.07-2,0-.35,0-.7,0-1.06,0-1.22.06-2.44.08-3.66a120.22,120.22,0,0,1,30.88,1.93c1.57.84,3,2.13,5,.92l2.32-.07,3.55,0,.44.08.45,0,.13.21c-.1.79,0,1.46.92,1.75a1.74,1.74,0,0,1,1.06,2Z"/><path class="cls-4" d="M36.53,124.38c-8.58,1.34-17.41.69-25.82,3.27-2,.62-4,1.38-6,2.08l-1.18.63-1,.07c-.08-5.79,4.69-9.1,7-13.68v1.83c-.57,1.18-1.4,2.27-1.18,3.71l.12,1.78a3,3,0,0,0,4-.47c7.18-1.93,14.54-1.95,21.89-2.11a1.72,1.72,0,0,0,2.13-.5,24.17,24.17,0,0,1,8.85.21,1.31,1.31,0,0,0,1.39,1.25.42.42,0,0,1,.2.6c-.12,2.81-2.37,5.43-.76,8.41a5.3,5.3,0,0,1-.49,4c-2,3.45-1.86,7.19-1.5,11,.75,2.44-.18,4.78-.4,7.17-.1.12-.29.26-.27.36a4.38,4.38,0,0,0,.26.85c.72,1.31-2.39,4,1.53,4.17,1.29,3.29-3.93,5.1-2,8.55l-.89,2.73-1,.13c-1.24-2-1.16-4.21-.95-6.31,1.15-11.51,2.49-23,3.63-34.52.18-1.77,1.27-4.07-1.44-5.14l-.19-.13A5.39,5.39,0,0,0,36.53,124.38Z"/><path class="cls-2" d="M494,159.09a2.42,2.42,0,0,0-1.58,2.26c-16-11-33.59-19-51-27.38a19.54,19.54,0,0,1-3.15-2.35c1.05-2-.19-3.9-.25-5.85a5.25,5.25,0,0,1,.87-.21,8,8,0,0,0,5,5.56c10.75,4.81,21.45,9.73,31.71,15.56C482.06,150.35,488.68,153.75,494,159.09Z"/><path class="cls-5" d="M43.37,167.55c-2-3.45,3.24-5.26,2-8.55l.09-.34.34-.09a1.49,1.49,0,0,0,1.77-1l0,0,1.09,0c2.76-.63,4.52-2.17,4.63-5.17l0,0c1.4.21,2.06-.47,2.18-1.8a160.86,160.86,0,0,1,38.86-20.1l.21.25c-.22,1.07-1,1.44-1.9,2-2.79,1.82-6.19,2.81-8.22,5.73-5.1,4.16-11.38,6.21-17,9.38-9,5.06-18.48,9.6-23.24,19.69A1.73,1.73,0,0,0,43.37,167.55Z"/><path class="cls-2" d="M36.49,68.66A2.65,2.65,0,0,0,38.89,67c2.44,2,3.68,5,6.44,6.76,4.9,3,7.38,8.1,10.19,12.85l-.23.23-3.72-.22c-2.39-1.76-3.18-6.45-7.75-4.2-6.36,2.51-10.17,8.2-15.31,12.24l-2,0,.1-1.6.25-.3c5.74-3.82,9.76-9.72,15.9-13.1,1.23-.67,2.57-2.2-.21-3-2.19-2.15-4.81-3.91-6.12-6.83C36.44,69.4,36.47,69,36.49,68.66Z"/><path class="cls-2" d="M103.58,103.57c1.65-2,1.4-6.43,6-4.91-3.62,2.77-1.83,5.76-.21,8.61a29.26,29.26,0,0,1,4.06,11c.65,5.95-1.87,8.5-9.93,11.61,0-.39,0-.77,0-1.16,6.09-2.2,7.37-7.27,7.73-12.9.25-3.76-3.09-2.1-4.67-3.1C107,109.21,103.93,106.82,103.58,103.57Z"/><path class="cls-5" d="M404.79,17.06c2.44-.86,5.25.62,7.54-1.17l13,3.34c3.15,2,6.42,3.63,10.32,3.38l1.68.4c1.25,2.49,4.19,2.22,6.05,3.71,0,.7,0,1.4,0,2.1C430.71,24.14,417.61,21.08,404.79,17.06Z"/><path class="cls-6" d="M281.42,1.77c0,.33,0,.65,0,1l-40,0c-9,.35-18-.75-26.9.79-.33.06-.77-.54-1.16-.83l.84-1.06,4.19,0,10.09-.43,10.39.26c1.88.3,3.8.94,5.49-.59l6.07,0a2.57,2.57,0,0,0,3.9.1l6.11,0c.64,1,1.28.92,1.9,0H265L276.5,1C278,2.4,279.78,1.53,281.42,1.77Z"/><path class="cls-6" d="M171.5,7.33c-3.87,2.56-8.46,2-12.7,2.64-8.82,1.33-17.29,4.47-26.28,4.79,5.15-2.85,11-3.71,16.57-4.77C156.46,8.6,164,8.17,171.5,7.33Z"/><path class="cls-7" d="M42.75,124.44c2.71,1.07,1.62,3.37,1.44,5.14-1.14,11.51-2.48,23-3.63,34.52-.21,2.1-.29,4.35.95,6.31C38,168.76,38.75,165,39,162.72c.76-7.27,2-14.45,2.31-21.81C41.56,135.45,43.38,130,42.75,124.44Z"/><path class="cls-1" d="M540.19,128.61l-3.56,0c.54-2.12-1.93-2.83-2.17-4.59-.27-.5-.54-1-.82-1.5l-.25-.11v-.27a.52.52,0,0,0-.45-.52c-.21-.35-.42-.7-.62-1.06,0-1.1-.35-1.87-1.55-2l-3.61-4.84.12.18c-1.81-2.26-4-4.25-4.85-7.15l1-1.19,2.26,1.13.65,1,.83,1,.11.15a1.71,1.71,0,0,0,1.4,1.85l1.77,1.78-.06-.06,4.93,7.32c0,1.41,0,2.77,1.92,2.93l.06.08a1.72,1.72,0,0,0,1.45,1.93l.57,1a1.79,1.79,0,0,0,1,1.91l0,0Z"/><path class="cls-7" d="M26.6,93c0,.53-.06,1.07-.1,1.6,0,.34,0,.69.05,1l0,.1c-1.87.14-2.68,1.6-3.77,2.83-4.07,4.63-7.34,10-12,14A45.94,45.94,0,0,1,26.6,93Z"/><path class="cls-1" d="M10.75,112.61c4.71-4.08,8-9.4,12.05-14,1.09-1.23,1.9-2.69,3.77-2.83.58,1.72-1.32,2.72-1.25,4.3a.5.5,0,0,1-.34.39c-1.86.29-2.58,1.89-3.59,3.15l-11.88,15v-1.83c0-.64.07-1.27.1-1.91l.21-.17a.87.87,0,0,0,.65-1.15Z"/><path class="cls-7" d="M42.54,76.61c2.78.8,1.44,2.33.21,3-6.14,3.38-10.16,9.28-15.9,13.1,2.36-6.07,8.18-9,12.45-13.27A17.5,17.5,0,0,1,42.54,76.61Z"/><path class="cls-2" d="M84.46,138.41c2-2.92,5.43-3.91,8.22-5.73.87-.57,1.68-.94,1.9-2l7.06,0C96.31,134.11,90.77,137.11,84.46,138.41Z"/><path class="cls-1" d="M506.93,86.69a.52.52,0,0,1,.57.55A1.49,1.49,0,0,0,509,88.73c3.24,1.47,5.06,4.45,7.36,6.92l.95,1,0,.06c0,.62.06,1.25.08,1.88l-1.35,1.09c-2.58-2-5.15-4.07-6.75-7l-1.23-.9L506.28,90a1.38,1.38,0,0,0-1.42-1.11L503,87.22C504,84.72,505.61,86.73,506.93,86.69Z"/><path class="cls-7" d="M9.61,114.84c0,.64-.07,1.27-.1,1.91-2.3,4.58-7.07,7.89-7,13.68A2.13,2.13,0,0,1,.1,127.77C3.54,123.65,3.8,117.17,9.61,114.84Z"/><path class="cls-8" d="M281.42,1.77c-1.64-.24-3.45.63-4.92-.73,7.93-2,15.89-.58,23.85-.22C294.12,2.73,287.72,1.22,281.42,1.77Z"/><path class="cls-2" d="M142.46,90.14a45.26,45.26,0,0,1,20.07-3.48A123,123,0,0,1,142.46,90.14Z"/><path class="cls-6" d="M130.51,15.18c-5.48,2.18-11,4.27-16.95,4.57C119,17.29,124.34,14.78,130.51,15.18Z"/><path class="cls-2" d="M241.43,79.93c6.24-2.44,12.57-1.47,18.9-.53Z"/><path class="cls-2" d="M165.45,86.3c.38-.48.74-1.35,1.15-1.38,4.57-.28,9.15-.43,13.72-.62C175.61,86.75,170.43,85.76,165.45,86.3Z"/><path class="cls-7" d="M484.19,42.76c-4.17-1.49-8.85-1.95-11.8-5.87A20.14,20.14,0,0,1,484.19,42.76Z"/><path class="cls-7" d="M42.56,49l-7.75,7.65C35.13,51.8,38.17,49.72,42.56,49Z"/><path class="cls-9" d="M438,125.77c.06,2,1.3,3.85.25,5.85-3.32-1.23-4.95-3.84-5.79-7.08.86-.41.88-1.19.89-2C434.68,124,435.67,125.86,438,125.77Z"/><path class="cls-2" d="M433.37,122.56c0,.79,0,1.57-.89,2-1-3.32.4-6.15,1.82-9l2.87,1,1.21.36c-.27,2.42-.71,4.6-3.93,2.66.05-.17.11-.34.16-.51l-.3.38C433.23,120.28,433.38,121.45,433.37,122.56Z"/><path class="cls-7" d="M51.52,44c-2.37,2.55-4.91,4.78-8.67,4.81A10.82,10.82,0,0,1,51.52,44Z"/><path class="cls-7" d="M471.46,36.66c-4.78-1-9.38-2.41-13.16-5.71A43.69,43.69,0,0,1,471.46,36.66Z"/><path class="cls-8" d="M34.33,58.48c.22,2.91.43,5.83.65,8.74C32.81,64.45,30.67,61.67,34.33,58.48Z"/><path class="cls-2" d="M183.44,84c3.72-2.76,7.82-1,11.77-1C191.39,84.47,187.42,84.22,183.44,84Z"/><path class="cls-2" d="M210.43,81.94c3.39-2.52,7.14-1,10.76-1C217.69,82.24,214.05,82,210.43,81.94Z"/><path class="cls-6" d="M506.93,86.69c-1.32,0-2.93-2-3.92.53a4.78,4.78,0,0,1-3-2.39c1.22-.14,2.22-.53,2.22-2C504.5,83.29,506.32,84.27,506.93,86.69Z"/><path class="cls-5" d="M101.64,130.65l-7.06,0-.21-.25,6-2.95c.7,1.24,2,1.09,3.09,1.24,0,.39,0,.77,0,1.16Z"/><path class="cls-7" d="M435.63,22.61c-3.9.25-7.17-1.37-10.32-3.38C429.07,19.37,432.23,21.35,435.63,22.61Z"/><path class="cls-7" d="M443.36,26.72c-1.86-1.49-4.8-1.22-6.05-3.71,2.84,1.7,6.87.51,9.08,3.73Z"/><path class="cls-2" d="M131.47,92.38c2.05-3.35,5.34-1.08,8-1.75C137.09,92.55,134.13,91.81,131.47,92.38Z"/><path class="cls-6" d="M537.85,132.85l5.34-.28c.94,2.19.38,3.26-2.05,2.38A17.26,17.26,0,0,1,537.85,132.85Z"/><path class="cls-2" d="M196.39,82.77c1.56-1.65,3.24-1.5,5-.33C199.78,83.59,198.14,84,196.39,82.77Z"/><path class="cls-2" d="M111.46,98c1.24-1.79,2.83-2.47,4.94-1.62C115.05,97.85,113.23,97.85,111.46,98Z"/><path class="cls-6" d="M203.49,3.87c-2.13,1.53-4.56.93-6.9,1,1.36-1.61,3.17-1.6,5-1.44Z"/><path class="cls-6" d="M184.46,5.82c-2.57,1.69-5.41.83-8.15.87C178.89,5.17,181.66,5.31,184.46,5.82Z"/><path class="cls-2" d="M283.46,79.51c1.83-1.26,3.56-1.44,5.09.48A10.73,10.73,0,0,1,283.46,79.51Z"/><path class="cls-6" d="M515.4,129.36c1.75-1.09,3.44-1.29,5,.37A8.39,8.39,0,0,1,515.4,129.36Z"/><path class="cls-2" d="M124.48,94.19c1.27-2.75,3.64-1.18,5.55-1.4C128.41,94.16,126.37,93.88,124.48,94.19Z"/><path class="cls-1" d="M522.57,102.68l.73,1.06c0,.6.07,1.2.11,1.8-.33.4-.65.8-1,1.19a1.36,1.36,0,0,0-.61-.44l-.86-.7L519.13,103l1.27-1.47,1.05,0,0,0A1.12,1.12,0,0,0,522.57,102.68Z"/><path class="cls-2" d="M266.84,78.89c1.51-.42,3-2.15,4.58-.24C269.9,78.71,268.44,80.18,266.84,78.89Z"/><path class="cls-8" d="M493.47,162.45c1.85.34,3,1.3,3.11,3.32C494.67,165.48,494.14,163.9,493.47,162.45Z"/><path class="cls-8" d="M254.37,1a2.57,2.57,0,0,1-3.9-.1A3.6,3.6,0,0,1,254.37,1Z"/><path class="cls-8" d="M505,170.54c-1.52-2.52-.81-5.26-.76-7.93C505.87,165.13,505.1,167.87,505,170.54Z"/><path class="cls-7" d="M43.37,167.55a1.73,1.73,0,0,1,.81-.07c1.34,2.09.44,2.82-1.7,2.8C42.78,169.37,43.07,168.46,43.37,167.55Z"/><path class="cls-8" d="M244.4.88c-1.69,1.53-3.61.89-5.49.59C240.68.74,242.42-.31,244.4.88Z"/><path class="cls-2" d="M228.48,80.5a2.69,2.69,0,0,1,3.83-.19A3.76,3.76,0,0,1,228.48,80.5Z"/><path class="cls-6" d="M524.8,129.9c1.8-.5,3.46-.52,4.54,1.37C527.91,130.53,526.06,131.21,524.8,129.9Z"/><path class="cls-8" d="M313.38,1.24a4.14,4.14,0,0,1-4.95-.39C310.16,0,311.75.92,313.38,1.24Z"/><path class="cls-7" d="M36.53,124.38a5.39,5.39,0,0,1,6-.07Z"/><path class="cls-5" d="M509.21,60.7a6,6,0,0,1-1.88-3.88C509.1,57.56,509.15,59.14,509.21,60.7Z"/><path class="cls-6" d="M523.41,105.54c0-.6-.07-1.2-.11-1.8,1,.83,2.26,1.4,2.37,2.93Z"/><path class="cls-5" d="M399.24,12.76c-1.28-.1-2.7.42-3.75-.79C396.92,11.41,398.1,12,399.24,12.76Z"/><path class="cls-2" d="M118.46,95.92c.8-1.89,2.5-1.15,3.88-1.34A4.89,4.89,0,0,1,118.46,95.92Z"/><path class="cls-7" d="M457.46,30.66c-1.61,0-3.37.37-4.16-1.66C454.72,29.45,456.36,29.38,457.46,30.66Z"/><path class="cls-7" d="M491.3,46.71c-1.36.07-2.62,0-3-1.68A3.35,3.35,0,0,1,491.3,46.71Z"/><path class="cls-7" d="M487.37,44.69c-1.39,0-2.76,0-3.06-1.83A3.73,3.73,0,0,1,487.37,44.69Z"/><path class="cls-8" d="M262.38.94c-.62.94-1.26,1-1.9,0A1.23,1.23,0,0,1,262.38.94Z"/><path class="cls-6" d="M533.33,131.66c.9-1.14,1.58-1,2,.35Z"/><path class="cls-6" d="M538.73,124.63a1.72,1.72,0,0,1-1.45-1.93A1.75,1.75,0,0,1,538.73,124.63Z"/><path class="cls-6" d="M537.22,122.62c-1.88-.16-2-1.52-1.92-2.93Z"/><path class="cls-6" d="M530.37,112.37l.06.06.55-.66Z"/><path class="cls-6" d="M521.45,101.51l-1.05,0-1-2.35A2.31,2.31,0,0,1,521.45,101.51Z"/><path class="cls-5" d="M407.4,14.73c-1,0-2.14.23-2.93-.75C405.57,13.76,406.63,13.67,407.4,14.73Z"/><path class="cls-1" d="M519.38,99.18l1,2.35L519.13,103l-1.83-2c.51-.74,1-1.49,1.52-2.24A.43.43,0,0,1,519.38,99.18Z"/><path class="cls-6" d="M517.41,98.55c0-.63,0-1.26-.08-1.88,1.11.24,1.22,1.19,1.48,2Z"/><path class="cls-7" d="M495.2,48.76c-1.16.06-2.25,0-2.72-1.33A3.57,3.57,0,0,1,495.2,48.76Z"/><path class="cls-6" d="M528.66,110.65a1.71,1.71,0,0,1-1.4-1.85A1.93,1.93,0,0,1,528.66,110.65Z"/><path class="cls-8" d="M203.49,3.87l-1.87-.49a1.56,1.56,0,0,1,1.93-.21A.73.73,0,0,1,203.49,3.87Z"/><path class="cls-5" d="M402.67,13.84a2.76,2.76,0,0,1-.93-.23Z"/><path class="cls-5" d="M510,62.62l-.69-1.76A1.37,1.37,0,0,1,510,62.62Z"/><path class="cls-6" d="M509,88.73a1.49,1.49,0,0,1-1.48-1.49Z"/><path class="cls-6" d="M542.13,130.61c-.88-.29-1-1-.92-1.75Z"/><path class="cls-6" d="M522.57,102.68a1.12,1.12,0,0,1-1.14-1.2C522.12,101.59,522.64,101.85,522.57,102.68Z"/><path class="cls-6" d="M540.28,127.57a1.79,1.79,0,0,1-1-1.91C540.24,126,540.21,126.81,540.28,127.57Z"/><path class="cls-2" d="M436.35,110.53a2.06,2.06,0,0,1-.94,2C435.43,111.77,435.43,110.94,436.35,110.53Z"/><path class="cls-2" d="M279.44,79.46c.66-.88,1.32-.87,2,0Z"/><path class="cls-8" d="M504.26,175.12l.72-.73C505.14,175,504.9,175.27,504.26,175.12Z"/><polygon class="cls-8" points="264.96 0.95 264.86 0.95 264.93 0.59 264.96 0.95"/><path class="cls-8" d="M36.49,68.66c0,.37-.05.74-.07,1.12a1,1,0,0,1-.79-1.17A4.14,4.14,0,0,1,36.49,68.66Z"/><path class="cls-7" d="M3.5,130.36l1.18-.63A.83.83,0,0,1,3.5,130.36Z"/><path class="cls-6" d="M540.19,128.61l.12-1c.54.14.88.43.77,1l-.45,0Z"/><path class="cls-7" d="M10.47,113.52a.87.87,0,0,1-.65,1.15C10,114.29,10.26,113.91,10.47,113.52Z"/><path class="cls-1" d="M517.41,98.55l1.4.16v.09L517.31,101c-.42-.47-.83-.94-1.25-1.4Z"/><path class="cls-6" d="M517.29,96.61l-.95-1Z"/><path class="cls-6" d="M502.12,82.71l-.83-.83C501.56,82.16,501.84,82.43,502.12,82.71Z"/><path class="cls-6" d="M527.15,108.65l-.83-1Z"/><path class="cls-2" d="M224.55,81l1.07-.32C225.35,81.09,225.05,81.42,224.55,81Z"/><path class="cls-2" d="M55.52,86.6c2.91,1,2.77,4,4,6l-3.71.46v0l-.54-6.22Z"/><path class="cls-2" d="M60.75,95a9.3,9.3,0,0,1,3.44,6.66C59.9,101,61.27,97.49,60.75,95Z"/><path class="cls-2" d="M64.61,102.29c2,1.65,2.75,4.1,3.92,6.28C65.31,107.67,64.15,105.48,64.61,102.29Z"/><path class="cls-2" d="M77.48,113.87c-2,.41-4,.64-6-.44C73.61,112.32,75.64,111.82,77.48,113.87Z"/><path class="cls-2" d="M91.24,113c-2.1,1.39-4.46,1-6.77,1C86.42,111.48,88.92,112.88,91.24,113Z"/><path class="cls-5" d="M100.39,127.45c.56-2.23,2.75-1.74,4.19-2.5C103.87,126.93,102.23,127.36,100.39,127.45Z"/><path class="cls-5" d="M104.72,124.6q.47-3,1-6C106.61,120.76,107.68,123,104.72,124.6Z"/><path class="cls-2" d="M97.23,103a14.17,14.17,0,0,1-5.74,1.72C92.53,101.19,95.14,103,97.23,103Z"/><path class="cls-2" d="M86.22,106.9c-1.1,1.49-2.83,1.83-4.4,2.47C81.56,105.49,84.28,106.88,86.22,106.9Z"/><path class="cls-7" d="M455.27,107.09c1.54.67,3.55,0,4.74,1.64C458.35,108.39,456.27,109.3,455.27,107.09Z"/><path class="cls-2" d="M81.53,109.59a2.37,2.37,0,0,1,0,.92l-1.17.68c-.14-.25-.45-.55-.4-.75C80.16,109.66,80.87,109.63,81.53,109.59Z"/><path class="cls-7" d="M450.42,105.2a2.58,2.58,0,0,1,3,1.39A3.37,3.37,0,0,1,450.42,105.2Z"/><path class="cls-5" d="M479.09,108.49l1.36-2.6C480.38,107,480.46,108.1,479.09,108.49Z"/><path class="cls-7" d="M444.45,103.51c1.13,0,2.27-.08,3,1C446.29,104.64,445.16,104.67,444.45,103.51Z"/><path class="cls-5" d="M105.57,118.31c-.8-.33-.85-1.06-.94-1.77Z"/><path class="cls-2" d="M100.4,102.25l-1.91.3C99,101.63,99.62,101.45,100.4,102.25Z"/><path class="cls-7" d="M461.39,109.58c.84,0,1.76-.12,2.23.86A1.9,1.9,0,0,1,461.39,109.58Z"/><path class="cls-5" d="M506.78,68.61l.45-1.23Z"/><path class="cls-5" d="M506,70.55l.41-.68A1,1,0,0,1,506,70.55Z"/><path class="cls-5" d="M502.88,74.59c-.07-.39.11-.6.52-.61A.89.89,0,0,1,502.88,74.59Z"/><path class="cls-5" d="M500.77,76.71c0-.4.13-.58.52-.57A.89.89,0,0,1,500.77,76.71Z"/><path class="cls-5" d="M499.85,77.59l.12-.44.45-.11A.94.94,0,0,1,499.85,77.59Z"/><polygon class="cls-5" points="477.54 115.72 477.65 115.73 477.7 115.61 477.54 115.72"/><polygon class="cls-5" points="479.49 113.78 479.66 113.92 479.45 113.84 479.49 113.78"/><path class="cls-2" d="M100.46,113.63l-.95-.35C100,112.85,100.3,113.1,100.46,113.63Z"/><path class="cls-2" d="M69.38,113c-.53.37-.66,0-.75-.42A1.1,1.1,0,0,1,69.38,113Z"/><path class="cls-2" d="M90.29,104.93a1.81,1.81,0,0,1-1.86,1.16A1.7,1.7,0,0,1,90.29,104.93Z"/><path class="cls-5" d="M478,110.5c-.12-.38,0-.6.42-.68A1,1,0,0,1,478,110.5Z"/><path class="cls-5" d="M493.61,84.67l.79-.82Z"/><path class="cls-8" d="M286.39,3.67c-14.95,1-29.9.34-44.86.22,0-.37-.05-.74-.07-1.11l40,0C283.08,3,285,2.07,286.39,3.67Z"/><path class="cls-8" d="M75.82,37c-4.15,2.55-8.45,4.77-13.31,5.65C66.54,39.82,70.71,37.3,75.82,37Z"/><path class="cls-8" d="M44.81,52c-1.42,2-2.78,4-5.36,4.58C40.09,53.68,41.79,52.06,44.81,52Z"/><path class="cls-8" d="M39.38,56.65c-.54,2.38-1.07,4.76-1.61,7.15C35.33,60.75,36.7,58.55,39.38,56.65Z"/><path class="cls-8" d="M57.2,45.56c-1.65,1.47-3.21,3.11-5.71,3A5.91,5.91,0,0,1,57.2,45.56Z"/><path class="cls-10" d="M180.86,9.25c-1.28,1.48-2.81,1.32-4.41.66C177.74,8.51,179.26,8.6,180.86,9.25Z"/><path class="cls-8" d="M51.33,48.66c-.67,1.9-2.45,1.49-3.86,1.83C48.19,48.68,49.6,48.33,51.33,48.66Z"/><path class="cls-10" d="M195.86,7.35c-1.35,1.41-2.89,1.17-4.48.52C192.85,7.46,194.26,6.55,195.86,7.35Z"/><path class="cls-8" d="M62,43.1c-.76,1.27-2.06,1.46-3.34,1.7A2.56,2.56,0,0,1,62,43.1Z"/><path class="cls-10" d="M185.43,8.6c-.58,1-1.25.91-2,.17C184,7.85,184.68,7.63,185.43,8.6Z"/><path class="cls-8" d="M215.44,5.53a1.8,1.8,0,0,1-2,.26C214,4.85,214.65,4.59,215.44,5.53Z"/><path class="cls-8" d="M218.47,5.44l-1.06,0C217.74,4.76,218.1,4.73,218.47,5.44Z"/><path class="cls-8" d="M208.56,5.89c-.29.48-.63.56-1.05.16Z"/><path class="cls-8" d="M58.57,44.81c-.14.64-.48.93-1.15.68Z"/><path class="cls-8" d="M294.4,3.78a9.85,9.85,0,0,1-5-.09A3.53,3.53,0,0,1,294.4,3.78Z"/><path class="cls-5" d="M392.38,14.27l-2-.42C391.35,12.43,392,12.87,392.38,14.27Z"/><path class="cls-5" d="M400.15,16l-1-.16Z"/><path class="cls-6" d="M529.33,127.78a7.56,7.56,0,0,1,5,.92C532.38,129.91,530.9,128.62,529.33,127.78Z"/><path class="cls-7" d="M498.34,132.55c-1-.7-.63-1.35.07-2C499.27,131.26,499.28,131.92,498.34,132.55Z"/><path class="cls-7" d="M498.37,129.51c-1.22-1.24-1.78-2.48.08-3.66C498.43,127.07,498.4,128.29,498.37,129.51Z"/><path class="cls-7" d="M500.45,151.31a4.68,4.68,0,0,1-.48-.62s.18-.2.28-.3A.75.75,0,0,1,500.45,151.31Z"/><path class="cls-10" d="M25,100.44c-.05.81.23,2-.2,2.38-6.47,5.33-8.82,14-15.54,19.08a4.16,4.16,0,0,1-.91.39c-.22-1.44.61-2.53,1.18-3.71l11.88-15C22.4,102.33,23.12,100.73,25,100.44Z"/><path class="cls-7" d="M45.7,135.49a18.32,18.32,0,0,1-1.5,11C43.84,142.68,43.73,138.94,45.7,135.49Z"/><path class="cls-7" d="M47,123.05c2.26,3,0,5.65-.76,8.41C44.58,128.48,46.83,125.86,47,123.05Z"/><path class="cls-7" d="M8.45,124.07l4-.47A3,3,0,0,1,8.45,124.07Z"/><path class="cls-7" d="M34.38,121.49a2.12,2.12,0,0,1,2.13-.5A1.72,1.72,0,0,1,34.38,121.49Z"/><path class="cls-7" d="M45.36,121.2c1.07-.25,1.33.39,1.39,1.25A1.31,1.31,0,0,1,45.36,121.2Z"/><path class="cls-7" d="M43.8,153.62a4.53,4.53,0,0,1,.3.85c0,.1-.2.24-.31.36a4.38,4.38,0,0,1-.26-.85C43.51,153.88,43.7,153.74,43.8,153.62Z"/><path class="cls-6" d="M48.34,156.29a8.32,8.32,0,0,1,4.95-3.94c-.11,3-1.87,4.54-4.63,5.17C48.55,157.11,48.45,156.7,48.34,156.29Z"/><path class="cls-6" d="M53.33,152.32a2.8,2.8,0,0,1,2.18-1.8C55.39,151.85,54.73,152.53,53.33,152.32Z"/><path class="cls-7" d="M45.75,158.57c.31-.83,1-.91,1.77-1A1.49,1.49,0,0,1,45.75,158.57Z"/><path class="cls-7" d="M48.34,156.29c.11.41.21.82.32,1.23l-1.09,0C47.83,157.13,48.09,156.71,48.34,156.29Z"/><path class="cls-10" d="M43.82,82.41C43,85.6,40.08,87.11,38,89.16c-4,3.9-8.42,7.29-12.68,10.89-.07-1.58,1.83-2.58,1.25-4.3l0-.1c1,.4,1.53-.22,2-1C33.65,90.61,37.46,84.92,43.82,82.41Z"/><path class="cls-1" d="M55.29,86.83l.54,6.22a22.91,22.91,0,0,1-4.26-6.44Z"/><path class="cls-1" d="M28.51,94.65c-.43.78-.93,1.4-2,1,0-.35,0-.7-.05-1Z"/><path class="cls-6" d="M532.32,120.58c-1-.32-1.67-.88-1.55-2C532,118.71,532.36,119.48,532.32,120.58Z"/><path class="cls-6" d="M534.46,124a1.21,1.21,0,0,1-.82-1.5C533.92,123,534.19,123.54,534.46,124Z"/><path class="cls-6" d="M533.39,122.16l-.44-.09v-.43A.52.52,0,0,1,533.39,122.16Z"/><path class="cls-6" d="M527.16,113.7l.12.18Z"/><path class="cls-6" d="M509.31,92.6l-1.23-.9Z"/><path class="cls-6" d="M506.28,90l-1.42-1.11A1.38,1.38,0,0,1,506.28,90Z"/><path class="cls-1" d="M434.31,119.5l.3-.38c-.05.17-.11.34-.16.51Z"/><path class="cls-6" d="M521.82,106.29c-.53.06-1,0-.86-.7Z"/><path class="cls-1" d="M296,15.19a19.31,19.31,0,0,0,7.45-.28c1.47-.35,3.11-.29,3.9,1.36a3,3,0,0,1-1.33,4.3c-9.77,3.67-9.57,13.7-13.46,21-2.93,5.51-4.53,11.75-6.71,17.66-.58,1.56-1,3.44-3.08,3.43-1.9,0-2.06-1.82-2.5-3.25-2.95-9.35-8.34-17.55-12.44-26.37-.45-1-.5-2.54-2.13-2.22-1.08.21-1.27,1.41-1.66,2.32q-5,11.66-10.09,23.29c-.46,1.07-1,2.12-1.52,3.14s-1.33,2.12-2.62,2c-1.84-.15-2.2-1.78-2.61-3.22-2.85-10-5.73-20-8.53-30-1.16-4.13-1.51-8.88-7.83-8a2,2,0,0,1-2.19-2.21,2.25,2.25,0,0,1,2.07-2.41c5.74-.67,11.48-1.37,17.23-1.9a3.26,3.26,0,0,1,3.66,2c.48,1.59-.89,2.32-2.23,2.75-1.87.62-1.79,2.06-1.76,3.63.11,5,2.54,9.17,4.53,13.5,1.19,2.6,2.47.89,3.19-.34,2-3.41,3.87-6.9,5.66-10.43,1.43-2.84,1-5.16-2.35-6.27-1-.32-2.05-.54-2-1.83s1.36-1.52,2.18-1.73a32.67,32.67,0,0,1,12.33-1c2.56.32,3,2.21,2.92,4.41-.41,9.06,5.67,15.25,10,22.2,1.36,2.19,3.1,1.46,4.35-.36,3.16-4.62,4.42-9.9,5.17-15.35.34-2.47-1.73-2.94-3-4s-3.16-2-2.75-3.82c.48-2.08,2.74-1.34,4.27-1.59A35.65,35.65,0,0,1,296,15.19Z"/><path class="cls-4" d="M89.15,60.84l2.13-.41a1.43,1.43,0,0,0,2.17-.62c.91-.41,1.86-.74,2.72-1.23,2.31-1.32,6.25,0,7.11-3.15.91-3.29-5-12.15-8.15-13.47-1.61-.67-4.12-.55-4.15-2.82,0-2.58,2.74-2.65,4.44-3.23,4.69-1.59,9.48-2.9,14.28-4.11,1.69-.43,3.82-.81,4.75,1.41.77,1.86-.87,2.57-2.07,3.45-2.92,2.17-3.66,5-2.4,8.36q5.35,14.42,10.64,28.84c.88,2.44,3,3.53,5,4.59,2.63,1.37,3.12,2.69,0,3.78a78.37,78.37,0,0,1-11.45,3.33c-2.59.49-4.29-.75-2.81-3.82,3.11-6.45-1.6-11.3-3.54-16.67-.63-1.74-2.41-1.36-3.92-.86-4.09,1.35-8.21,2.63-12.28,4a3.54,3.54,0,0,0-2,1.39c-1.52,3,4.52,14.25,8,15,1,.21,2.1,0,2.93.39,1.36.7,3.82.45,3.78,2.56,0,1.77-2.17,1.68-3.51,2.14C95.46,91.62,90,93.45,84.53,95.3c-.21-2.13-.38-4.27,1.2-6,2.94-3.28,1.8-6.07-1-8.69l-1.44-2.87c1.58-1.55,1.31-2.57-.87-3-.35-1-.69-1.92-1-2.89,0-2,.36-4-2-5.07v0c-.29-4.57-1.13-8.91-5-12a9.4,9.4,0,0,0-6.75-.53c-2.73.87-4.77.05-5.72-2.15-1.24-2.88,2.07-2.59,3.39-3.67a24.67,24.67,0,0,1,2.43-1.58c1.54.25,3,.36,3.8-1.41l2.53-1.09a1.64,1.64,0,0,0,2.46-1.24l.91-.44,2,.12c.2,2-3.12,4.64,1,6,1,1.15-.87,3.83,2.12,3.88l1.29,2.74c-.84,1.12-1.65,2.23.77,2.24,1.27,1.38,1.14,4.68,4.46,3.28Z"/><path class="cls-1" d="M175.24,50.61c1.61,13.58-12.9,24.19-23.75,24-12.18-.22-28.23-13.14-27.06-29.35.86-12,11-21.85,24.61-21.32C164.53,24.53,175,33,175.24,50.61Zm-10.55,6.78c-.36-2.66-.66-5.63-1.18-8.55-1.21-6.78-3.19-13.22-8.81-17.81-3.88-3.18-8-3.29-12.55-1.26s-5.59,5.48-5.47,10.07c.19,7.76,2.22,15.07,4.82,22.26,2.25,6.2,7.85,9.46,14,8.37C161.17,69.46,164.82,64.4,164.69,57.39Z"/><path class="cls-4" d="M338,18.79c.6.53,1.06,1.11.59,2a1.25,1.25,0,0,0-1.27,1.2l-2.06,1.81c-1.3,2.1.06,3.1,1.66,4a24.42,24.42,0,0,1,3.31,8c-1.54,1.8.08,2.26,1.24,2.91A5,5,0,0,1,342.86,42c-.52,1.32-.45,2.38,1.19,2.78q2.1,6,4.22,12c-1.59,2.52-.12,4.28,1.51,6l.57,1.16.91.83,1.07.52c0,.69,0,1.38,0,2.06l-1.7.5h-2.5a28.85,28.85,0,0,1-10.78-1c0-.68,0-1.37.07-2,.72-.73,1.44-1.46,2.17-2.18,1.53-1.93,1.2-3.9.16-5.9l-.23-2.07c1.33-1.38.32-1.74-.88-2l-.33-.37c-2.26-2.79-21.36-5.4-23.29-2.71-2.38,3.29-5.46,7-2.85,11.62,1.44,2.53-.09,3.13-1.77,3.23-4.3.23-8.62.14-12.93.12a2.46,2.46,0,0,1-2.52-2A2.29,2.29,0,0,1,296.26,60c13.82-6.84,16.66-21.5,23.71-33.14,1-1.67,2.31-3.77-1.2-4.35-1.89-.32-4.12-1-3.77-3.11.4-2.29,2.86-3.41,5.11-3,4.27.77,8.66-.11,12.86,1.22a17.21,17.21,0,0,0,3.46.36ZM317.86,40.66c-1.22.34-1.83.88-.65,2,.07.35.13.71.2,1.06,5.91,2,11.88,1.26,17.86.43,2.09-2.72-.72-5-.76-7.46,1.37-1.45.29-1.77-.93-2a18.29,18.29,0,0,1-3.12-6.1,1.7,1.7,0,0,0-1.14-1.8l-1.87-2.24c0-.66-.19-1.29-.91-1.41s-1.09.42-1.2,1.09L324,26.7c-1.61.43-1.62,1.5-1.12,2.78l-1.14,2.35a.65.65,0,0,0-.35.72L320,35.76l-.51,1.1-.72,1.92a.75.75,0,0,0-.41.72Z"/><path class="cls-1" d="M359.42,23.65c-.9,0-1.69-.2-1.82-1.24s.67-1.39,1.54-1.46a29.32,29.32,0,0,1,4.48-.24c7.94.62,15.88,1.19,23.8,2.05,4.92.54,10.61,6.14,11.64,10.72,1.28,5.61-2.66,8.92-6.38,10.61-6.07,2.73-5.09,5.21-1.74,9.26,3.62,4.37,5.69,9.59,7.11,15.1a31.33,31.33,0,0,0,11.16,17.29C403,87.27,399,86,395.66,80.88c-3.82-5.78-8.11-11.52-10.43-17.92-1.07-2.93-2.88-5.38-3.83-8.27-1.43-4.34-4.78-6-9.08-6.28l.15-4.88a59.91,59.91,0,0,0,7.4.7c4.64-.1,9.3-4.31,9.71-8.42.46-4.56-2.4-8-7.84-9.31a11.37,11.37,0,0,0-7.33.26c-1-1.23-.58-3.83-2.52-3.84C367.74,22.91,363.45,21.6,359.42,23.65Z"/><path class="cls-4" d="M484.35,58.65c-.49,2.9-2,5.37-3.24,8l-1.77,0c-1.15-2.31-.19-4.88-.92-7.24a.54.54,0,0,0-.18-.53c-5.68-7.22-11.43-8.25-18.25-3.25-.4.25-1.13.46-1.16.74-.56,6.24,2.79,10.46,9.6,12.18l0,0c.06.84.1,1.71,1.36,1.27a.6.6,0,0,1,.3.41c-.88,2.63,0,4.15,2.83,4.41l.57,1.91c-.84.47-1.92.62-2.27,1.72,3.42.37,1,4.31,3.28,5.36-1.16,6.47-11,11.91-18.34,9.83-3.41-1-7-1.78-9.55-4.84-1.53-1.85-3.94-2.23-6.38-2.17-2.94.06-4.3-.78-2.85-4.19,1.53-3.59,2.27-7.52,3.53-11.24.33-1,.85-2.37,2.37-2.11s1.53,1.56,1.68,2.7a22.78,22.78,0,0,1,.16,2.48c.19,11.06,5.68,12.68,15.42,14.05a6.43,6.43,0,0,0,6.91-4.69c1-3.19-.94-5.4-3.46-7-2.8-1.79-5.74-3.33-8.54-5.11-6.79-4.31-7.81-9.92-3.13-16.71,2,0,2-1.44,2.06-2.87l.07-.08c1.13-.24,2.33-.88,3.36-.66,3.77.79,6.72-3.81,10.32-1.77,2.39,1.36,4.69,1.32,7.15,1.38l.08.07c.38,2.18,2.71,2.87,3.59,4.54C480.18,57.57,484,55.26,484.35,58.65Zm-23,10.26c-.1.07-.26.12-.29.21s.1.2.15.31l.47-.37Z"/><path class="cls-4" d="M426.39,71.66l-.45,1.89c-.73.08-1.87-.21-1.84.89,0,.81,1,1.21,1.85,1.3.12.35.24.7.35,1a1.65,1.65,0,0,0,1.05,1.87l.65,1c-1,.62-1.87,1.11-3.15.53-5.09-2.28-10.32-4-16-3.6.15-.45.24-1.25.47-1.29,10.25-1.85,8.87-11.13,11.25-17.86,1.42-4,1.95-8.34,2.82-12.54.91-4.43-.18-5.77-4.75-5.59a18.93,18.93,0,0,0-4.82,1.06c-1.37.43-2.28,2-4.19,1.87a53.34,53.34,0,0,1,.62-9.81c.4-3,2-3,4.2-2.3,10.3,3.5,20.51,7.26,30.9,10.44,4.51,1.37,5.52,3.42,3.61,7.45-.82,1.74-.88,3.85-2.74,5.62a27.21,27.21,0,0,0-7.68-8.18c-3.48-2.68-4.91-2.16-6.32,2.07-.78,2.33-1.47,4.69-2.2,7-1.4.41-2,1-.51,2.12L429,58.64c-.63.35-.64.7,0,1.07,0,.64-.09,1.29-.14,1.93-.18.33-.35.67-.52,1l-.49,4a1.63,1.63,0,0,0-.56,1.88l-.32,1C425.61,69.92,425.06,70.52,426.39,71.66Z"/><path class="cls-9" d="M200.26,55.79l1.11,1.05c.28,1.92,1.65,2,3.14,1.8l1.83.4c1.74,2.75,4.51,1.62,6.64,1.28,4.47-.74,7.09-7,4.84-10.72-.06-1-.11-2-.17-3,1.17-1.74,1.32-3.21-1.06-4l-1.12-1.09c-1-1.27-2.17-1.09-3.41-.5l-2.58.05c-.71-3.41,3.72-1.68,4.05-4h1.82c4,2.4,7,0,10.19-1.9l1-.44c2.79.67,2.24,2.48,1.26,4.14-3.33,5.66-3.56,11.78-2.95,18l-.12.14c-1.4-.39-2.11.16-2.18,1.59l-.11.09c-.91-.1-1.55.15-1.58,1.2l-.17.13c-3,0-4.58,2.16-6.22,4.2l-1.09.4-.89.44a14.79,14.79,0,0,1-7.92.12c-1.07-2.09-2.51-1.69-4.05-.59l-5-1.52-.85-.51c-3.05-2.32-6.62-4.14-8.12-8,.07-2.41-1.16-4.46-1.88-6.65-3.67-11.2,0-19.8,11-25.25-.12,1.25-.24,2.5,1.17,3.19l-.56.84c-5.4,3.94-4.7,19.46,1.13,25.06l.05.06c.64,1.73-1.36,2.7-1.39,4.35C197.59,56.92,198.93,56.38,200.26,55.79Z"/><path class="cls-3" d="M359.42,23.65c4-2,8.32-.74,12.47-.73,1.94,0,1.54,2.61,2.52,3.84-.49,3-1,5.95-1.48,8.92-1.73.65-1.79,1.34-.05,2.06.73,2-.27,3.86-.41,5.79l-.15,4.88-.51,2.24c-1.22.39-1.85.94-.53,2a3.9,3.9,0,0,1-.55,3c-1.21.43-1.71,1-.45,2,.73,3.33-2.46,6.7.1,10-.61,1.62.69.75,1.2.92,1.08.26,2.72.07,2.76,1.52.05,1.63-1.6,1.26-2.66,1.35-4.54.38-8.79-1.3-13.17-2a2.25,2.25,0,0,1-1.35-3.87c7-8.29,6.56-18.5,7.52-28.36.18-1.8.25-3.61.38-5.41,1.66-.74,1.58-1.43-.07-2.07-.59-1.66-.14-3.64-1.63-5-.82-1.23-2-1-3.2-.84l-.42.08Z"/><path class="cls-5" d="M195.58,22.67c-10.91,5.45-14.63,14-11,25.25.72,2.19,1.95,4.24,1.88,6.65-5.54-8.06-7.22-17-2.41-25.5,4.56-8.07,12.85-11.58,22.06-12.31a32.39,32.39,0,0,1,7.93.39c3.16.54,5.54-.18,7.2-2.95l0,0c.26-.94.38-2,1.68-2.12-.53,8.06-2.82,10.64-7.66,8-2.41-1.3-4.62-1.28-7-1.45C203.52,18.35,200,21.86,195.58,22.67Z"/><path class="cls-4" d="M195.58,22.67c4.4-.81,7.94-4.32,12.72-4,2.41.17,4.62.15,7,1.45,4.84,2.61,7.13,0,7.66-8l0-.06c1,.56,1.28-.07,1.43-.89,3.4.42,1.44,3.07,1.57,4.5.21,2.34-.51,4.76-.84,7.14a8.43,8.43,0,0,0-1.55,6.09l-.07.07-3-.27c-2.4-5.69-6.85-6.91-12.45-5.78-1.91.39-3.86.57-5.8.85-1-.22-2.08-.36-2.77.76l-2.77,1.35C195.34,25.17,195.46,23.92,195.58,22.67Z"/><path class="cls-1" d="M408.83,76.62c5.7-.38,10.93,1.32,16,3.6,1.28.58,2.18.09,3.15-.53,1,1.67,1.6,3.49-1.37,3C420.44,81.49,414.27,80.07,408.83,76.62Z"/><path class="cls-6" d="M224.8,56.91c-.61-6.27-.38-12.39,2.95-18,1-1.66,1.53-3.47-1.26-4.14a1.82,1.82,0,0,1,3.24-.27c1.21,1.62.47,3.62-.43,5.13a22.17,22.17,0,0,0-2.78,13.76C226.67,54.91,226.66,56.33,224.8,56.91Z"/><path class="cls-6" d="M197.32,51.76c-5.83-5.6-6.53-21.12-1.13-25.06C192.32,35.24,194.93,43.5,197.32,51.76Z"/><path class="cls-2" d="M475.3,50.67c-2.46-.06-4.76,0-7.15-1.38-3.6-2-6.55,2.56-10.32,1.77-1-.22-2.23.42-3.36.66C460.39,46.23,468.41,45.82,475.3,50.67Z"/><path class="cls-6" d="M217.82,49.6c2.25,3.72-.37,10-4.84,10.72-2.13.34-4.9,1.47-6.64-1.28C215.12,58.32,216.81,56.93,217.82,49.6Z"/><path class="cls-3" d="M80.51,48.7c-4.15-1.33-.83-4-1-6l1.12-1.62a9.41,9.41,0,0,1,2.62-1.26c1.38-.21,3.21-.86,4,.9s-1.45,1.85-2,2.9C81.56,43.46,81.29,46.32,80.51,48.7Z"/><path class="cls-2" d="M468.43,68.57c-6.81-1.72-10.16-5.94-9.6-12.18,0-.28.76-.49,1.16-.74-.68,4.18,1.84,6.76,4.65,9.16C466,66,467.58,66.89,468.43,68.57Z"/><path class="cls-6" d="M84.75,80.59c2.78,2.62,3.92,5.41,1,8.69-1.58,1.75-1.41,3.89-1.2,6a3.36,3.36,0,0,1-1.48-5.48C86.6,87,84.91,83.76,84.75,80.59Z"/><path class="cls-2" d="M484.35,58.65c-.32-3.39-4.17-1.08-5.38-3.37-.88-1.67-3.21-2.36-3.59-4.54,3.66.53,5.26,5,9.86,4.58C487.07,55.15,485.43,57.62,484.35,58.65Z"/><path class="cls-6" d="M74.41,54.72c3.88,3.07,4.72,7.41,5,12C76.56,63.2,75.83,58.81,74.41,54.72Z"/><path class="cls-8" d="M80.51,48.7c.78-2.38,1-5.24,4.65-5.05-2.43,2.53-2.35,5.77-2.53,8.93C79.64,52.53,81.49,49.85,80.51,48.7Z"/><path class="cls-6" d="M225.54,35.16c-3.16,1.89-6.23,4.3-10.19,1.9C218.68,36.09,222,35.11,225.54,35.16Z"/><path class="cls-2" d="M474.52,83.67c-2.31-1,.14-5-3.28-5.36.35-1.1,1.43-1.25,2.27-1.72C474.9,78.8,475.6,81.11,474.52,83.67Z"/><path class="cls-6" d="M214.42,64.26c1.64-2,3.23-4.16,6.22-4.2C219.15,62.32,217.27,64,214.42,64.26Z"/><path class="cls-6" d="M200.26,55.79c-1.33.59-2.67,1.13-4.28.38,0-1.65,2-2.62,1.39-4.35C199.05,52.62,199.36,54.42,200.26,55.79Z"/><path class="cls-6" d="M213.53,37.06c-.33,2.36-4.76.63-4.05,4-2.21-1.44-2.43-1.92-.92-2.85S211.53,36,213.53,37.06Z"/><path class="cls-8" d="M223.65,28.88a8.43,8.43,0,0,1,1.55-6.09C225.29,25,226.18,27.36,223.65,28.88Z"/><path class="cls-5" d="M349.78,62.72c-1.63-1.72-3.1-3.48-1.51-6A10.45,10.45,0,0,1,349.78,62.72Z"/><path class="cls-2" d="M472.94,74.68c-2.83-.26-3.71-1.78-2.83-4.41C471.75,71.29,472.34,73,472.94,74.68Z"/><path class="cls-6" d="M200.47,64.63c1.54-1.1,3-1.5,4.05.59C203,66.21,201.7,65.64,200.47,64.63Z"/><path class="cls-6" d="M216.59,42.64c2.38.8,2.23,2.27,1.06,4C216.13,45.62,216.85,44,216.59,42.64Z"/><path class="cls-5" d="M337,27.77c-1.6-.9-3-1.9-1.66-4A6.67,6.67,0,0,1,337,27.77Z"/><path class="cls-8" d="M71.56,45.38c-.78,1.77-2.26,1.66-3.8,1.41C68.39,44.59,70.1,45.32,71.56,45.38Z"/><path class="cls-6" d="M79.42,66.72c2.35,1,2,3.11,2,5.07C79.77,70.48,79.59,68.6,79.42,66.72Z"/><path class="cls-5" d="M339.77,56.71c1,2,1.37,4-.16,5.9C339.66,60.64,339.71,58.68,339.77,56.71Z"/><path class="cls-8" d="M80.6,41.11l-1.12,1.62-2-.12C78,41.09,79.26,41,80.6,41.11Z"/><path class="cls-6" d="M82.44,74.68c2.18.47,2.45,1.49.87,3C82.19,76.94,82.34,75.8,82.44,74.68Z"/><path class="cls-2" d="M454.4,51.8c0,1.43-.08,2.83-2.06,2.87A3.61,3.61,0,0,1,454.4,51.8Z"/><path class="cls-7" d="M426,75.74c-.87-.09-1.82-.49-1.85-1.3,0-1.1,1.11-.81,1.84-.89C426,74.28,426,75,426,75.74Z"/><path class="cls-5" d="M341.51,38.66c-1.16-.65-2.78-1.11-1.24-2.91C341.44,36.41,341.33,37.59,341.51,38.66Z"/><path class="cls-1" d="M365,29.69c1.65.64,1.73,1.33.07,2.07C365,31.07,365,30.38,365,29.69Z"/><path class="cls-8" d="M76.55,43.05a1.64,1.64,0,0,1-2.46,1.24C74.5,43.06,75.48,43,76.55,43.05Z"/><path class="cls-5" d="M344.05,44.73c-1.64-.4-1.71-1.46-1.19-2.78C343.55,42.75,344.26,43.55,344.05,44.73Z"/><path class="cls-1" d="M371.28,52.65c-1.32-1.06-.69-1.61.53-2A1.69,1.69,0,0,1,371.28,52.65Z"/><path class="cls-5" d="M338.66,52.61c1.2.29,2.21.65.88,2A1.83,1.83,0,0,1,338.66,52.61Z"/><path class="cls-7" d="M429.49,56.71c-1.45-1.1-.89-1.71.51-2.12C430.23,55.39,430.38,56.18,429.49,56.71Z"/><path class="cls-1" d="M370.28,57.64c-1.26-1-.76-1.57.45-2A1.65,1.65,0,0,1,370.28,57.64Z"/><path class="cls-6" d="M204.51,58.64c-1.49.16-2.86.12-3.14-1.8Z"/><path class="cls-6" d="M222.5,58.64c.07-1.43.78-2,2.18-1.59C224.43,58.23,223.52,58.51,222.5,58.64Z"/><path class="cls-7" d="M426.39,71.66c-1.33-1.14-.78-1.74.6-2.1C427.22,70.38,427.34,71.17,426.39,71.66Z"/><path class="cls-6" d="M199.52,24.51c.69-1.12,1.72-1,2.77-.76Z"/><path class="cls-1" d="M360.16,23.85c1.18-.17,2.38-.39,3.2.84Z"/><path class="cls-8" d="M220.54,28.68l3,.27C222.41,30.63,221.42,30.26,220.54,28.68Z"/><path class="cls-5" d="M352.35,67.29c0-.68,0-1.37,0-2.06C353.58,65.91,353.65,66.59,352.35,67.29Z"/><path class="cls-6" d="M212.06,41.05c1.24-.59,2.43-.77,3.41.5Z"/><path class="cls-8" d="M84.69,57.56c-2.42,0-1.61-1.12-.77-2.24A2.29,2.29,0,0,1,84.69,57.56Z"/><path class="cls-5" d="M337.44,64.79c0,.68-.05,1.37-.07,2-.44-.15-1.24-.28-1.26-.47A1.44,1.44,0,0,1,337.44,64.79Z"/><path class="cls-5" d="M224.47,11.15c-.15.82-.43,1.45-1.43.89C223.27,11.34,223.64,10.87,224.47,11.15Z"/><path class="cls-5" d="M338,18.79,336.43,18C337.17,17.85,337.9,17.74,338,18.79Z"/><path class="cls-5" d="M337.36,22a1.25,1.25,0,0,1,1.27-1.2C338.7,21.68,338.22,22,337.36,22Z"/><path class="cls-6" d="M220.81,59.93c0-1,.67-1.3,1.58-1.2A1.25,1.25,0,0,1,220.81,59.93Z"/><path class="cls-8" d="M93.45,59.81a1.43,1.43,0,0,1-2.17.62A1.49,1.49,0,0,1,93.45,59.81Z"/><path class="cls-7" d="M427.31,68.54a1.63,1.63,0,0,1,.56-1.88C428.22,67.45,428.27,68.14,427.31,68.54Z"/><path class="cls-2" d="M479.34,66.67l1.77,0a1,1,0,0,1-.95,1.25C479.45,67.91,479.18,67.37,479.34,66.67Z"/><path class="cls-5" d="M348.15,67.79h2.5A2.15,2.15,0,0,1,348.15,67.79Z"/><path class="cls-1" d="M371.58,68.57c-.51-.17-1.81.7-1.2-.92Z"/><path class="cls-2" d="M469.81,69.86c-1.26.44-1.3-.43-1.36-1.27Z"/><path class="cls-7" d="M427.35,78.65a1.65,1.65,0,0,1-1.05-1.87C427.31,77,427.26,77.88,427.35,78.65Z"/><polygon class="cls-4" points="221.31 14.22 221.28 14.2 221.2 14.3 221.31 14.22"/><path class="cls-7" d="M429,59.71c-.62-.37-.61-.72,0-1.07Z"/><path class="cls-2" d="M478.24,58.9a.54.54,0,0,1,.18.53l-.33-.21Z"/><path class="cls-8" d="M89.15,60.84Z"/><path class="cls-7" d="M428.36,62.64c.17-.33.34-.67.52-1C429.26,62.26,428.85,62.47,428.36,62.64Z"/><path class="cls-6" d="M194.62,62.6l.85.51C194.87,63.48,194.7,63.12,194.62,62.6Z"/><path class="cls-5" d="M351.26,64.71l-.91-.83Z"/><path class="cls-6" d="M212.44,65.1l.89-.44C213.15,65.05,213.07,65.63,212.44,65.1Z"/><path class="cls-5" d="M317.41,43.71l17.86.43C329.29,45,323.32,45.69,317.41,43.71Z"/><path class="cls-5" d="M327.45,24.52l-2.11-.31c.11-.68.45-1.22,1.2-1.1S327.43,23.86,327.45,24.52Z"/><path class="cls-5" d="M324,26.7a3.3,3.3,0,0,1-1.12,2.78C322.38,28.2,322.39,27.13,324,26.7Z"/><path class="cls-5" d="M334.51,36.68a1.85,1.85,0,0,1-.93-2C334.8,34.91,335.88,35.23,334.51,36.68Z"/><path class="cls-5" d="M317.86,40.66a1.65,1.65,0,0,1-.65,2C316,41.54,316.64,41,317.86,40.66Z"/><path class="cls-5" d="M330.46,28.56c-.9-.27-1-1-1.14-1.8A1.7,1.7,0,0,1,330.46,28.56Z"/><path class="cls-5" d="M321.74,31.83c.27.43.19.68-.35.72A.65.65,0,0,1,321.74,31.83Z"/><path class="cls-5" d="M320,35.76a.74.74,0,0,1-.51,1.1Z"/><path class="cls-5" d="M318.77,38.78c.32.51.09.69-.41.72A.75.75,0,0,1,318.77,38.78Z"/><path class="cls-2" d="M461.33,68.91l.33.15-.47.37c-.05-.11-.18-.23-.15-.31S461.23,69,461.33,68.91Z"/><path class="cls-1" d="M372.93,35.68l-.05,2.06C371.14,37,371.2,36.33,372.93,35.68Z"/></g></g></svg>