<svg width="180" height="180" viewBox="0 0 180 180" fill="none" xmlns="http://www.w3.org/2000/svg">
<path fill-rule="evenodd" clip-rule="evenodd" d="M18 19.0922V64.2667C18 115.404 44.2003 157.64 88.085 177.247L89.7695 178L91.4554 177.248C135.199 157.706 161.315 115.471 161.315 64.2667V19.0658L88.4847 2L18 19.0922Z" fill="#DE554B"/>
<path fill-rule="evenodd" clip-rule="evenodd" d="M136.524 106.145L136.327 106.065C123.675 100.822 113.618 105.454 107.229 110.524C110.359 102.541 111.128 95.355 111.267 93.7496C112.239 91.7934 113.57 90.6042 115.332 90.1164C120.044 88.809 126.178 92.8821 126.238 92.9236L127.889 94.0324L137.604 70.0372L107.243 40.5192L83.143 43.2636C82.6162 43.3453 82.0958 43.4434 81.5741 43.544C76.9125 37.5159 71.014 32.5602 64.1964 29.6977L89.5871 23.6722L142.815 36.299L143.332 68.6116C143.332 82.0455 140.974 94.6937 136.524 106.144V106.145ZM89.7506 72.0285C90.623 81.3063 89.5809 103.709 61.3088 111.874L46.7874 86.2481C47.9276 74.6195 53.3321 64.3146 61.4144 57.0282L61.6909 57.3965C68.6455 66.6743 68.6593 76.5077 61.7261 85.0865L60.7166 86.3361L63.2234 88.3451L64.2329 87.0967C72.1743 77.2683 72.1869 66.0394 64.2681 55.4794L63.8784 54.9601C68.7292 51.19 74.3329 48.505 80.3106 47.0866C85.4058 54.1417 88.8844 62.8349 89.7506 72.0285ZM114.806 52.6369C111.396 55.4115 107.153 58.8661 108.081 74.0575C108.669 83.7452 108.206 91.4314 108.102 92.9173L108.097 92.9299L108.081 93.2341C108.075 93.3347 107.449 103.338 102.644 113.189C96.4462 125.901 86.4769 132.398 73.004 132.511L62.9305 114.734C83.6936 108.437 94.9036 92.4371 92.9551 71.7293C92.1505 63.187 88.8567 54.138 83.6609 46.4291L106.09 43.8771L114.983 52.5213C114.923 52.5577 114.862 52.5904 114.807 52.6369H114.806ZM121.375 69.7191C122.848 69.7484 124.274 69.2007 125.348 68.1929C126.422 67.1851 127.059 65.7973 127.123 64.3259L133.815 70.8304L126.349 89.2691C123.819 87.9126 118.896 85.8044 114.481 87.0276C113.418 87.3183 112.418 87.8025 111.531 88.4557C111.631 84.9307 111.654 79.804 111.292 73.8627C110.465 60.3093 113.707 57.6706 116.841 55.1185C116.994 54.9928 117.112 54.8445 117.206 54.6848L126.982 64.1889L115.824 63.979C115.766 67.0917 118.25 69.6613 121.375 69.7191ZM89.6022 155.888C56.2663 140.475 36.4121 107.962 36.4121 68.6141V36.2927L58.2363 31.1132C65.7088 32.9839 72.6759 37.7673 78.1697 44.336C59.2734 49.4614 45.3178 66.1224 43.5352 86.4619L43.4924 86.9559L71.1183 135.702L72.0423 135.715C72.2447 135.717 72.4408 135.718 72.6407 135.718C86.5172 135.718 95.4379 129.423 101.164 121.69L101.326 121.793L102.194 120.448C102.227 120.397 105.503 115.375 111.229 111.497C118.739 106.408 126.769 105.578 135.091 109.023L135.309 109.112C126.493 129.69 110.731 146.129 89.6022 155.888ZM89.5871 17.0859L29.978 31.2302V68.6128C29.978 111.078 51.777 146.114 88.2923 162.333L89.6022 162.916L90.9122 162.333C127.764 145.963 149.766 110.929 149.766 68.5625L149.171 31.2214L89.5871 17.0859Z" fill="#FEB447"/>
</svg>
