<svg width="180" height="180" viewBox="0 0 180 180" fill="none" xmlns="http://www.w3.org/2000/svg">
<path fill-rule="evenodd" clip-rule="evenodd" d="M159.36 19.2776L154.148 21.1834C153.64 21.3682 141.549 25.5909 125.193 14.3395C101.993 -1.61984 77.3233 -2.11264 55.7344 12.9441C40.4853 23.582 25.01 21.0212 24.8679 20.9961L20.3297 20.1664L20.2165 24.8014C20.1449 27.7758 18.542 97.8612 25.2778 117.064C34.5894 143.612 50.3954 152.236 65.6796 160.575C73.4739 164.826 80.8382 168.844 87.1591 175.197L89.9499 178L92.7408 175.197C99.0365 168.873 106.239 164.872 113.866 160.635C128.876 152.297 144.399 143.674 153.73 117.064C160.46 97.8801 159.516 27.811 159.475 24.8379L159.362 19.2776H159.36Z" fill="#FCB542"/>
<path fill-rule="evenodd" clip-rule="evenodd" d="M137.262 103.822C136.203 100.719 134.698 97.786 132.795 95.1155C129.371 90.2805 122.226 82.9338 109.158 79.7935C115.547 78.1366 120.516 74.2419 121.111 63.9322L121.245 61.5926L119.06 62.3117C118.976 62.3368 110.213 64.6839 90.2254 51.8272C85.3263 48.6504 77.5911 46.199 70.0169 48.3487C70.0969 47.9162 70.1377 47.4773 70.1388 47.0375C70.1388 43.0549 66.9646 39.8152 63.0649 39.8152C59.1628 39.8152 55.9897 43.0549 55.9897 47.0375C55.9897 50.218 58.015 52.9184 60.8171 53.8788C57.5184 57.2115 54.8998 61.7887 53.092 67.4886C52.6435 68.8943 52.2841 70.327 52.0159 71.778L51.7834 72.3613C44.4568 90.7507 49.3005 100.947 52.8368 108.391C55.9508 114.943 57.878 119.039 51.542 125.875C48.5073 121.806 45.8044 116.778 43.5642 110.289C39.2145 97.6926 39.1227 53.3571 39.1994 39.8881C44.3122 40.5268 53.5949 40.1371 64.4716 32.5351C72.5789 26.8705 81.2871 23.7478 89.6634 23.5014C98.0397 23.7478 106.748 26.8705 114.856 32.5351C125.733 40.1383 135.015 40.528 140.127 39.8881C140.195 51.5908 140.132 86.5782 137.262 103.822ZM106.123 142.932C103.589 144.363 101.023 145.82 98.4823 147.422C102.521 136.448 100.984 124.169 97.0856 117.188C94.0684 111.786 88.4402 107.374 80.3656 104.065C79.3474 102.222 75.6275 94.8464 77.786 89.1554C78.9174 86.1697 81.5989 84.0464 85.7525 82.8458C88.4 82.0802 91.2638 81.7093 94.1502 81.4629V81.4906H95.7216C116.213 81.4906 126.149 91.2033 130.249 96.9936C133.661 101.81 135.238 106.808 135.558 110.86C128.721 130.163 117.743 136.371 106.124 142.932H106.123ZM84.8964 79.7608C79.7421 81.2505 76.3642 84.0225 74.8556 87.9975C72.9272 93.0852 74.6017 98.8969 76.1404 102.559C67.1142 99.0692 60.4237 93.6911 57.0985 87.1867C55.5145 84.0816 54.7351 80.7451 54.7037 77.2226C55.3423 70.8188 57.9421 66.3874 62.4514 64.0692C68.5573 60.9263 76.2385 62.543 79.7371 64.6978C99.3132 76.7374 116.536 68.4968 117.259 68.1385L117.322 68.1084C115.025 76.858 107.358 77.3634 97.9618 77.9719C93.602 78.2535 89.0952 78.5451 84.8964 79.7583V79.7608ZM69.5945 51.8486C71.719 51.0679 73.8813 50.736 75.9908 50.736C80.8056 50.736 85.3514 52.4633 88.5484 54.5376C101.555 62.9038 110.177 65.1629 115.064 65.6067C112.604 66.5872 104.894 69.1329 95.1031 67.3164C95.533 63.941 93.2827 60.7969 89.9677 60.2223C87.3641 59.7698 84.8674 61.0395 83.5814 63.2194C82.8291 62.818 82.0887 62.3946 81.3613 61.9497C76.554 58.9929 67.7968 57.7282 61.0384 61.2042C60.1345 61.6693 59.1804 62.2727 58.235 63.0396C60.9982 57.3724 64.8023 53.6123 69.5945 51.8486ZM63.0662 51.0515C60.8963 51.0515 59.1326 49.25 59.1326 47.0362C59.1326 44.8237 60.8963 43.0209 63.0662 43.0209C65.2347 43.0209 66.9985 44.8224 66.9985 47.0362C66.9985 49.25 65.2347 51.0515 63.0662 51.0515ZM73.2113 142.929C66.1612 138.949 59.3463 135.097 53.5496 128.378C61.7185 119.739 58.905 113.813 55.6641 106.99C52.8318 101.024 49.4325 93.8608 52.026 82.0928C52.4812 84.3796 53.2512 86.5922 54.314 88.6676C58.45 96.7585 67.1192 103.213 78.7326 106.846C86.3861 109.902 91.6434 113.916 94.3588 118.776C98.3603 125.942 99.5307 140 93.3556 150.946C92.0843 151.904 90.8549 152.916 89.671 153.98C84.4627 149.279 78.7552 146.058 73.2113 142.929ZM146.287 31.3874L142.135 32.9337C141.72 33.087 131.81 36.6095 118.404 27.2413C109.275 20.8601 99.3673 17.3489 89.7539 17.0874L89.6584 17.0862L89.5742 17.0887C79.9621 17.3502 70.0546 20.8614 60.924 27.2426C47.5217 36.6083 37.6066 33.0883 37.2182 32.9425L33.0168 31.2981L32.9502 35.8892C32.9162 38.3582 32.1456 96.5084 37.6393 112.421C45.2538 134.479 57.9207 141.628 70.1703 148.544C76.4057 152.064 82.2966 155.388 87.4484 160.648L89.671 162.914L91.8923 160.648C97.0441 155.388 102.931 152.065 109.165 148.545C121.412 141.63 134.074 134.48 141.69 112.421C147.184 96.5084 146.413 38.3582 146.379 35.8892L146.287 31.3886V31.3874Z" fill="#212028"/>
</svg>
