<svg width="180" height="180" viewBox="0 0 180 180" fill="none" xmlns="http://www.w3.org/2000/svg">
<path fill-rule="evenodd" clip-rule="evenodd" d="M159.861 19.7258L155.446 20.3163C155.096 20.3653 120.42 24.7295 92.3481 3.94521L89.7196 2L87.318 4.22385C64.5072 25.369 25.0991 20.3693 24.7033 20.3176L20.3251 19.7245L20.2182 24.1669C20.1456 27.1523 18.5358 97.5301 25.2931 116.812C34.6368 143.47 50.4935 152.13 65.8294 160.504C73.6502 164.772 81.0383 168.806 87.3812 175.186L90.1799 178L92.9787 175.186C99.2966 168.835 106.523 164.818 114.174 160.563C129.233 152.19 144.806 143.532 154.168 116.812C160.92 97.5473 159.974 27.1895 159.932 24.204L159.861 19.7258Z" fill="#265CAA"/>
<path fill-rule="evenodd" clip-rule="evenodd" d="M113.619 137.797C127.898 121.794 130.134 106.671 128.207 93.551C130.32 95.9464 132.592 97.2113 135.003 97.3181C135.109 97.3225 135.215 97.3245 135.319 97.3245C137.289 97.3245 139.219 96.5072 141.013 94.9623C140.438 100.566 139.67 105.251 138.643 108.194C132.811 124.918 123.672 131.983 113.619 137.797ZM90.9998 152.062C85.6418 147.295 79.6857 144.038 73.9021 140.875C65.5001 136.28 57.4211 131.859 50.9556 123.063C58.2534 127.002 65.711 128.506 72.6749 128.505C83.5317 128.505 93.1829 124.878 99.1319 121.238C114.324 111.943 121.296 95.2124 121.321 79.6438C121.837 81.0904 122.332 82.5702 122.795 84.0788L122.767 84.0927L122.875 84.3398C127.92 100.988 128.638 121.332 103.142 143.632C98.977 146.017 94.8349 148.65 90.9998 152.062ZM85.8961 47.3068L89.4494 55.0372C89.1719 54.9325 88.8999 54.8373 88.6436 54.7505C88.3196 54.6424 87.9987 54.5377 87.6938 54.4029C83.3822 52.4961 77.1613 52.9122 73.2977 53.4452L76.237 48.5213C77.8371 48.1319 82.279 47.1584 85.8961 47.3068ZM97.4863 118.492C87.4038 124.662 65.9609 130.784 47.0496 116.783C45.7089 114.233 44.4712 111.392 43.3564 108.194C40.7662 100.77 39.8069 82.3422 39.4945 65.6662L50.995 55.3689C49.2446 66.243 49.9244 75.853 53.027 83.9911C56.8991 94.1426 63.4406 99.1703 68.2479 101.601C78.5675 106.82 90.572 104.853 97.4364 96.8186C107.219 85.3648 100.926 72.1188 98.2391 66.4632C97.9013 65.754 97.6218 65.1674 97.4449 64.7235C96.8659 63.2725 96.2102 61.9608 95.4978 60.7839L95.5762 60.7466L90.2596 49.1803L92.7024 51.5856L97.8717 46.2262L88.9549 46.3417L88.7094 45.8056L91.5238 40.2924L106.719 44.4363C109.721 50.9875 113.681 60.0049 115.047 63.1261L115.289 63.8408C115.626 64.8357 116.006 65.8631 116.403 66.9081C121.401 84.0412 115.973 107.181 97.4863 118.492ZM39.4683 37.0739C43.1065 37.3203 49.2395 37.4944 56.4248 36.7232C70.4704 35.2166 82.352 30.6993 90.9998 23.6066C99.6473 30.6993 111.529 35.2166 125.574 36.7232C132.76 37.4944 138.895 37.3213 142.532 37.0739C142.672 46.0862 142.893 70.9785 141.493 89.5247C139.509 92.5483 137.255 94.2046 135.14 94.1115C132.177 93.981 129.042 90.4813 126.314 84.2595L125.803 83.0934C124.399 78.4809 122.702 74.214 121.169 70.3611C120.548 68.802 119.953 67.2999 119.404 65.8512C119.129 64.9244 118.837 64.0089 118.507 63.1176C118.489 63.0661 118.308 62.6466 118.007 61.9554L117.776 61.2783L117.719 61.2986C116.036 57.4478 112.027 48.3566 109.288 42.4055L108.976 41.7281L89.8752 36.5188L86.0071 44.0961C81.0623 43.9046 75.0723 45.502 74.8033 45.5759L74.186 45.7426L66.8608 58.0171L70.4918 57.191C70.5923 57.1696 80.8514 54.882 86.4211 57.3442C86.8173 57.5183 87.2269 57.6586 87.6432 57.7965C88.197 57.9829 88.72 58.1584 89.1499 58.4322C91.2199 59.7535 93.0699 62.344 94.4971 65.9227C94.694 66.4151 95.002 67.0667 95.3759 67.8519C97.9977 73.3729 103.455 84.8589 95.0309 94.7204C89.1193 101.643 78.6894 103.293 69.6701 98.7305C53.0871 90.3464 51.21 68.7776 54.9816 51.3877L56.0254 46.5762L39.4289 61.4355C39.2965 51.0644 39.3929 41.8427 39.4683 37.0739ZM148.734 29.9075L145.224 30.3815C144.894 30.4243 112.071 34.625 93.1524 17.0051L90.9998 15L88.8459 17.0051C69.974 34.5823 37.1005 30.4254 36.7765 30.3815L33.2654 29.9075L33.1796 33.4865C33.1214 35.9635 31.7904 94.3449 37.3643 110.328C45.0641 132.406 58.1878 139.582 70.8793 146.522C77.3702 150.071 83.5018 153.423 88.7539 158.73L90.9998 161L93.2454 158.73C98.4986 153.423 104.629 150.072 111.12 146.522C123.812 139.582 136.935 132.406 144.634 110.328C150.21 94.3449 148.879 35.9635 148.82 33.4865L148.734 29.9075Z" fill="#F1BA8C"/>
</svg>
