<svg width="180" height="180" viewBox="0 0 180 180" fill="none" xmlns="http://www.w3.org/2000/svg">
<path d="M153.749 26.0114C153.246 26.0114 119.051 26.0114 92.2743 4.13714L89.6343 2L87.12 4.26286C63.1086 26.5143 26.4 26.0114 26.1486 26.0114L22 25.8857L24.8914 95.0286C26.4 129.097 83.8514 174.354 86.24 176.24L88.6286 178L91.0171 176.24C93.5314 174.354 152.366 129.726 154.126 94.2743L157.771 25.8857L153.749 26.0114Z" fill="#086C5C"/>
<path d="M81.037 60.4078L83.5546 51.7222L71.8479 57.7643L81.037 60.4078Z" fill="#D3E9F5"/>
<path d="M135.92 93.3247C135.794 95.2129 135.416 97.2269 134.913 99.3669C133.402 96.9752 131.136 94.8353 128.367 93.4506C123.206 90.933 117.29 91.1848 111.877 94.4576L85.191 113.088C78.7712 117.242 73.3584 119.759 67.6939 112.206C72.3514 108.682 89.2191 95.7164 103.947 85.5203C104.45 85.1426 105.08 84.765 105.583 84.2615C106.464 83.6321 107.346 83.0027 107.975 82.4992C112.381 79.8558 115.402 74.8206 116.157 69.1561C117.038 62.6105 114.772 56.1907 109.863 51.1555L109.737 51.0297C99.667 42.3441 91.8625 37.309 91.4849 37.0572L90.7296 36.5537L62.6588 51.0297L62.5329 51.7849C62.2812 52.9178 62.0294 60.4705 62.0294 63.7434V64.8763L67.3163 67.0162C65.4281 67.8973 63.4141 68.9044 62.0294 70.7925L54.9802 70.6667V73.9395L60.6447 74.0654C60.2671 75.3241 60.1412 76.9606 60.2671 78.7229L60.393 80.3593L63.6658 80.1075L63.5399 78.4711C63.1623 72.5548 65.6799 71.1702 70.0856 69.4079L71.5961 68.7785V68.6526L80.5335 72.3031L92.2402 63.114C92.8696 63.9951 93.6248 65.3798 93.4989 66.8903C93.3731 68.1491 92.7437 69.282 91.359 70.289L52.5885 98.234C50.1969 99.7445 47.0499 102.514 45.0359 106.164C42.8959 101.759 41.763 97.6046 41.6372 94.08L39.4972 43.0993C48.1828 42.7217 71.3444 40.2041 89.0932 25.2247C108.227 39.7006 130.255 42.5958 138.563 43.0993L135.92 93.3247ZM111.248 134.864C102.059 144.431 92.9954 152.236 88.9673 155.383C85.9462 152.865 79.6523 147.704 72.6032 140.907C73.3584 141.033 74.2396 141.033 75.1207 141.033C77.7642 141.033 80.6594 140.529 83.5546 139.396C90.7296 136.879 109.737 122.277 110.492 121.647L111.751 120.64L109.737 118.123L108.478 119.13C108.227 119.256 89.0932 133.983 82.2958 136.375C76.7572 138.389 71.9738 138.263 67.568 135.997C67.0645 135.494 66.6869 135.116 66.1834 134.613C57.3719 125.55 50.8263 117.116 46.6723 109.689C48.1828 104.528 53.7215 100.877 54.0991 100.752L92.8696 72.429C95.0095 70.7925 96.1424 68.9044 96.3941 66.7644C96.6459 62.8622 93.4989 59.5894 93.3731 59.4635L92.4919 58.4565L79.9041 68.4008L65.3022 62.4846C65.4281 58.5824 65.554 54.6801 65.6799 53.0437L90.7296 40.33C92.8695 41.8406 99.667 46.3722 107.723 53.4214C111.877 57.7012 113.765 63.114 113.01 68.6526C112.381 73.436 109.863 77.4641 106.339 79.7299C105.583 80.2334 104.576 80.9887 103.695 81.618C103.192 81.9957 102.562 82.4992 102.185 82.751C85.0651 94.5835 64.7987 110.318 64.6728 110.444L63.5399 111.325L64.2952 112.584C67.9457 118.249 71.9738 120.011 75.7501 120.011C80.1559 120.011 84.3098 117.367 87.0792 115.605L113.765 97.1011C119.682 93.5765 124.591 95.087 126.983 96.2199C130.129 97.8563 132.521 100.626 133.528 103.647C129.626 112.836 122.199 123.41 111.248 134.864ZM141.962 36.5537C141.207 36.5537 113.01 36.4278 90.9814 18.3014L88.8414 16.5391L86.8274 18.4272C66.9387 36.9313 36.4761 36.5537 36.2244 36.5537L32.8257 36.4278L35.2174 94.2059C36.4761 122.654 85.0651 160.418 87.205 162.054L89.2191 163.565L91.2331 162.054C93.2472 160.418 141.081 123.158 142.591 93.5765L145.612 36.4278L141.962 36.5537Z" fill="#D3E9F5"/>
</svg>
