<svg xmlns="http://www.w3.org/2000/svg" viewBox="0 0 56 56"><defs><style>.cls-1{fill:#333;}.cls-2{fill:none;}</style></defs><title>Asset 47</title><g id="Layer_2" data-name="Layer 2"><g id="Layer_1-2" data-name="Layer 1"><path class="cls-1" d="M50,27H45a17,17,0,0,0-33.9,0H6v2h5.05A17,17,0,0,0,45,29h5ZM28,13A15,15,0,0,1,43,27H38.21a10.26,10.26,0,0,0-20.42,0H13.05A15,15,0,0,1,28,13ZM19.8,27a8.26,8.26,0,0,1,16.4,0Zm16.4,2a8.26,8.26,0,0,1-16.4,0ZM28,43A15,15,0,0,1,13.05,29h4.74a10.26,10.26,0,0,0,20.42,0H43A15,15,0,0,1,28,43Z"/><rect class="cls-2" width="56" height="56"/></g></g></svg>