<svg xmlns="http://www.w3.org/2000/svg" viewBox="0 0 56 56"><defs><style>.cls-1{fill:#333;}.cls-2{fill:none;}</style></defs><title>Asset 54</title><g id="Layer_2" data-name="Layer 2"><g id="Layer_1-2" data-name="Layer 1"><path class="cls-1" d="M43.23,21a7.85,7.85,0,0,0-1-.71v-.76c0-.14,0-.28,0-.41A9,9,0,0,0,29,11.6l-1,.57-1-.57a9,9,0,0,0-13.2,7.54c0,.13,0,1.17,0,1.17a7.85,7.85,0,0,0-1,.71,9,9,0,0,0,0,14c.31.26,1.13.79,1.19.83l12,6.85a8.46,8.46,0,0,1-1.17.48,7.11,7.11,0,0,1-2,.31,7,7,0,0,1-3.49-1A6.89,6.89,0,0,1,16,38.12l-2.2-1.25a9,9,0,0,0,13.45,7.4l.77-.44,12.2-7c0,.16,0,.31,0,.47s0,.21,0,.32a3.89,3.89,0,0,1-.09.47s0,.05,0,.07q-.07.3-.18.6v0c-.08.21-.16.43-.26.63a6.08,6.08,0,0,1-.33.62,4.92,4.92,0,0,1-.37.56l0,.05a5.58,5.58,0,0,1-.38.47l0,0a5.81,5.81,0,0,1-.5.49c-.13.12-.27.23-.42.35l0,0-.26.17-.43.28a5.43,5.43,0,0,1-.84.41,6.74,6.74,0,0,1-.86.3h0l-.44.1a6.57,6.57,0,0,1-.89.12,7.11,7.11,0,0,1-1.46-.06h0l-.5-.1a4.6,4.6,0,0,1-.5-.13L29,44.4a8.81,8.81,0,0,0,4.21,1.07,9,9,0,0,0,9-8.6c0-.14,0-.28,0-.42V24.12l-2-1.51V34.55L28,41.53l-12.23-7v-15c0-.14,0-.27,0-.41s0-.31,0-.47,0-.21.05-.32S16,18,16,17.88s0,0,0-.06a6.13,6.13,0,0,1,.18-.61,5.18,5.18,0,0,1,.26-.65,6.59,6.59,0,0,1,.7-1.17.1.1,0,0,1,0-.05,5.17,5.17,0,0,1,.42-.51,4.62,4.62,0,0,1,.5-.49,4.87,4.87,0,0,1,.42-.35l.05,0,.26-.17a2.87,2.87,0,0,1,.43-.28,6.92,6.92,0,0,1,3.51-1l.51,0,.51.06a4.42,4.42,0,0,1,.5.1,4.07,4.07,0,0,1,.5.13h0a6.62,6.62,0,0,1,.62.24c.18.07.36.16.54.25l-9.12,5.21-.07,2.34,13-7.42.28-.13h0c.18-.09.36-.18.54-.25a6.62,6.62,0,0,1,.62-.24h0a4.07,4.07,0,0,1,.5-.13,4.42,4.42,0,0,1,.5-.1l.51-.06.51,0a6.92,6.92,0,0,1,3.51,1,2.87,2.87,0,0,1,.43.28l.26.17,0,0a4.87,4.87,0,0,1,.42.35,4.62,4.62,0,0,1,.5.49,5.17,5.17,0,0,1,.42.51.1.1,0,0,1,0,.05,6.59,6.59,0,0,1,.7,1.17,5.18,5.18,0,0,1,.26.65,6.13,6.13,0,0,1,.18.61s0,0,0,.06.07.31.09.47,0,.21,0,.32,0,.31,0,.47l-9.13-5.21L29,15.05l11.23,6.41.81.46a7,7,0,0,1,1.19.87,6.5,6.5,0,0,1,1,1.1,7,7,0,0,1,0,8.22V35a9,9,0,0,0,0-14ZM12.77,32.11a7,7,0,0,1,0-8.22,6.5,6.5,0,0,1,1-1.1V33.21A6.5,6.5,0,0,1,12.77,32.11Z"/><rect class="cls-2" width="56" height="56"/></g></g></svg>