<svg xmlns="http://www.w3.org/2000/svg" viewBox="0 0 56 56"><defs><style>.cls-1{fill:#333;}.cls-2{fill:none;}</style></defs><title>Asset 51</title><g id="Layer_2" data-name="Layer 2"><g id="Layer_1-2" data-name="Layer 1"><path class="cls-1" d="M22,27a4.26,4.26,0,0,1,.06-.76l.08-.51L15,18.59V35.41l10,10V32.22l-.43-.3A6,6,0,0,1,22,27Zm1,13.59-6-6V23.41l3,3c0,.19,0,.37,0,.57a8,8,0,0,0,3,6.24Z"/><path class="cls-1" d="M33.86,25.73l.08.51A4.26,4.26,0,0,1,34,27a6,6,0,0,1-2.57,4.92l-.43.3V45.41l10-10V18.59ZM39,34.59l-6,6V33.24A8,8,0,0,0,36,27c0-.2,0-.38,0-.57l3-3Z"/><path class="cls-1" d="M31.3,22l.68.46,5.73-5.73-1.42-1.42-4.6,4.61A7.65,7.65,0,0,0,29,19.08V9H27V19.08a7.65,7.65,0,0,0-2.69.82l-4.6-4.61-1.42,1.42L24,22.44,24.7,22a5.9,5.9,0,0,1,2.3-.87V47h2V21.11A5.9,5.9,0,0,1,31.3,22Z"/><rect class="cls-2" width="56" height="56"/></g></g></svg>