<svg xmlns="http://www.w3.org/2000/svg" viewBox="0 0 56 56"><defs><style>.cls-1{fill:none;}.cls-2{fill:#333;}</style></defs><title>Asset 49</title><g id="Layer_2" data-name="Layer 2"><g id="Layer_1-2" data-name="Layer 1"><rect class="cls-1" width="56" height="56"/><path class="cls-2" d="M44,25c-.36,0-.71,0-1,0A15,15,0,0,0,29,11.05c0-.34,0-.69,0-1.05V9H27v1c0,.36,0,.71,0,1.05A15,15,0,0,0,13.05,25c-.34,0-.69,0-1.05,0H11v2h1c.36,0,.7,0,1,0a15,15,0,0,0,6.69,11.48,4.37,4.37,0,0,0,2.43.76,4.5,4.5,0,0,0,3.22-1.41,4.43,4.43,0,0,0,.44-5.78A17.06,17.06,0,0,0,17.74,26,16.9,16.9,0,0,0,28,15.77,16.92,16.92,0,0,0,38.26,26a17.06,17.06,0,0,0-8.08,6.08,4.43,4.43,0,0,0,.44,5.78,4.5,4.5,0,0,0,3.22,1.41,4.35,4.35,0,0,0,2.43-.76A15,15,0,0,0,43,27c.34,0,.68,0,1,0h1V25ZM24.2,33.26a2.46,2.46,0,0,1-.26,3.23,2.36,2.36,0,0,1-3.1.36,13,13,0,0,1-5.77-9.53A15,15,0,0,1,24.2,33.26Zm-9.13-8.58A13,13,0,0,1,26.68,13.07,14.91,14.91,0,0,1,15.07,24.68ZM29.32,13.07A13,13,0,0,1,40.93,24.68,14.91,14.91,0,0,1,29.32,13.07Zm5.84,23.78a2.36,2.36,0,0,1-3.1-.36,2.46,2.46,0,0,1-.26-3.23,15,15,0,0,1,9.13-5.94A13,13,0,0,1,35.16,36.85Z"/><rect class="cls-2" x="17" y="45" width="22" height="2"/><rect class="cls-2" x="19" y="41" width="18" height="2"/></g></g></svg>