<svg xmlns="http://www.w3.org/2000/svg" viewBox="0 0 56 56"><defs><style>.cls-1{fill:#333;}.cls-2{fill:none;}</style></defs><title>Asset 52</title><g id="Layer_2" data-name="Layer 2"><g id="Layer_1-2" data-name="Layer 1"><path class="cls-1" d="M45,13V36a6,6,0,0,1-12,0V34.37l7,4.45V17H38V35.18L33,32V21H31v9.72l-3-1.91-3,1.91V21H23V32l-5,3.18V17H16V38.82l7-4.45V36a6,6,0,0,1-12,0V13H9V36a8,8,0,0,0,16,0V33.09l3-1.9,3,1.9V36a8,8,0,0,0,16,0V13Z"/><rect class="cls-2" width="56" height="56"/></g></g></svg>