<svg xmlns="http://www.w3.org/2000/svg" viewBox="0 0 56 56"><defs><style>.cls-1{fill:#333;}.cls-2{fill:none;}</style></defs><title>Asset 43</title><g id="Layer_2" data-name="Layer 2"><g id="Layer_1-2" data-name="Layer 1"><path class="cls-1" d="M28,25.16l-.5-.3a9.11,9.11,0,0,1,0-15.72l.5-.3.51.3a9.12,9.12,0,0,1,0,15.72Zm0-14a7.13,7.13,0,0,0,0,11.62,7.13,7.13,0,0,0,0-11.62Z"/><path class="cls-1" d="M42.88,38.68l-.1.58-.55.2a9,9,0,0,1-3.06.53,9.2,9.2,0,0,1-5.86-2.11L33,37.63V34.51a7,7,0,0,0,1.56,1.83A7.18,7.18,0,0,0,41,37.76a7.11,7.11,0,0,0-2.43-5.92,9.5,9.5,0,0,0,1.72-1.14A9.12,9.12,0,0,1,42.88,38.68Z"/><path class="cls-1" d="M23,34.51v3.12l-.28.25A9.2,9.2,0,0,1,16.83,40a9,9,0,0,1-3.06-.53l-.55-.2-.1-.58a9.16,9.16,0,0,1,2.61-8,9.5,9.5,0,0,0,1.72,1.14A7.11,7.11,0,0,0,15,37.76a7.18,7.18,0,0,0,6.39-1.42A7,7,0,0,0,23,34.51Z"/><path class="cls-1" d="M32,48H30V32H26V48H24V32H22a9.14,9.14,0,0,1-8.88-10.61l.1-.57.55-.2A9.12,9.12,0,0,1,26,29v1H30V29a9.12,9.12,0,0,1,12.2-8.38l.55.2.1.57A9.15,9.15,0,0,1,34,32H32Zm2-18a7.15,7.15,0,0,0,7-7.68,7.12,7.12,0,0,0-6.39,1.42A7,7,0,0,0,32,29v.16h0V30ZM22.12,30H24V29a7,7,0,0,0-2.56-5.26A7.12,7.12,0,0,0,15,22.32,7.15,7.15,0,0,0,22,30Z"/><rect class="cls-2" width="56" height="56"/></g></g></svg>