<svg xmlns="http://www.w3.org/2000/svg" viewBox="0 0 56 56"><defs><style>.cls-1{fill:none;}.cls-2{fill:#333;}</style></defs><title>Asset 44</title><g id="Layer_2" data-name="Layer 2"><g id="Layer_1-2" data-name="Layer 1"><rect class="cls-1" width="56" height="56"/><path class="cls-2" d="M32,14.41l14.29,14.3,1.42-1.42L33.41,13l3.3-3.29L35.29,8.29,17,26.59,14.41,24,28.71,9.71,27.29,8.29,13,22.59l-3.29-3.3L8.29,20.71,26.59,39,24,41.59,9.71,27.29,8.29,28.71,22.59,43l-3.3,3.29,1.42,1.42L39,29.41,41.59,32,27.29,46.29l1.42,1.42L43,33.41l3.29,3.3,1.42-1.42L29.41,17ZM37.59,28,28,37.59,18.41,28,28,18.41Z"/><rect class="cls-2" x="27" y="27" width="2" height="2" transform="translate(-11.6 28) rotate(-45)"/></g></g></svg>