<svg xmlns="http://www.w3.org/2000/svg" viewBox="0 0 56 56"><defs><style>.cls-1{fill:#333;}.cls-2{fill:none;}</style></defs><title>Asset 48</title><g id="Layer_2" data-name="Layer 2"><g id="Layer_1-2" data-name="Layer 1"><path class="cls-1" d="M15.33,23.5H13v2h1.59a13.91,13.91,0,0,0,3,13.3l-4.37,6.12,1.62,1.16L19,40.21a13.91,13.91,0,0,0,8,3.24v2h2v-2a13.91,13.91,0,0,0,8-3.24l4.2,5.87,1.62-1.16L38.44,38.8a13.91,13.91,0,0,0,3-13.3H43v-2H15.33ZM40,29.5a12,12,0,0,1-24,0,11.85,11.85,0,0,1,.69-4H39.31A11.85,11.85,0,0,1,40,29.5Z"/><path class="cls-1" d="M39.66,19.5a6.06,6.06,0,0,0-3.85-3.72,8,8,0,0,0-15.2-1.26,6,6,0,0,0-5.52,5H13v2H43v-2ZM22.25,15.8a6,6,0,0,1,11.69.91l.09.73.72.13a4,4,0,0,1,2.71,1.93H22.35a5.8,5.8,0,0,1-.35-2A5.74,5.74,0,0,1,22.25,15.8Zm-2.19.82a8.67,8.67,0,0,0-.06.88,7.84,7.84,0,0,0,.26,2H17.14A4,4,0,0,1,20.06,16.62Z"/><rect class="cls-2" width="56" height="56"/></g></g></svg>