<svg xmlns="http://www.w3.org/2000/svg" viewBox="0 0 56 56"><defs><style>.cls-1{fill:#333;}.cls-2{fill:none;}</style></defs><title>Asset 53</title><g id="Layer_2" data-name="Layer 2"><g id="Layer_1-2" data-name="Layer 1"><path class="cls-1" d="M42.34,23.51l-.36,0a18.83,18.83,0,0,0-8.9,2.77,16.81,16.81,0,0,1-3.88-3.88,18.89,18.89,0,0,0,2.77-9v-.33l-4-5.3-3.77,5-.2.28v.38a18.83,18.83,0,0,0,2.77,8.9,16.81,16.81,0,0,1-3.88,3.88A18.86,18.86,0,0,0,14,23.53l-.36,0-5.33,4,5.33,4,.36,0a18.83,18.83,0,0,0,8.9-2.77,16.81,16.81,0,0,1,3.88,3.88,18.88,18.88,0,0,0-2.77,9v.34l4,5.3,3.77-5,.2-.28v-.38a18.83,18.83,0,0,0-2.77-8.9,16.81,16.81,0,0,1,3.88-3.88A18.86,18.86,0,0,0,42,31.47l.36,0,5.33-4ZM14.27,29.45l-2.6-1.95,2.6-1.95A16.78,16.78,0,0,1,21,27.5,16.78,16.78,0,0,1,14.27,29.45ZM26.05,13.77,28,11.17,30,13.77A16.87,16.87,0,0,1,28,20.49,16.69,16.69,0,0,1,26.05,13.77ZM30,41.23,28,43.83l-1.95-2.6A16.87,16.87,0,0,1,28,34.51,16.69,16.69,0,0,1,30,41.23ZM28,30.84a19.2,19.2,0,0,0-3.34-3.34A18.86,18.86,0,0,0,28,24.16a19.2,19.2,0,0,0,3.34,3.34A18.86,18.86,0,0,0,28,30.84Zm13.73-1.39A16.87,16.87,0,0,1,35,27.5a16.78,16.78,0,0,1,6.72-1.95l2.6,1.95Z"/><rect class="cls-1" x="20" y="17.67" width="2" height="5.66" transform="translate(-8.35 20.85) rotate(-45)"/><rect class="cls-1" x="33.17" y="19.5" width="5.66" height="2" transform="translate(-3.95 31.46) rotate(-45)"/><rect class="cls-1" x="18.17" y="34.5" width="5.66" height="2" transform="translate(-18.95 25.25) rotate(-45)"/><rect class="cls-1" x="35" y="32.67" width="2" height="5.66" transform="translate(-14.56 35.85) rotate(-45)"/><rect class="cls-2" width="56" height="56"/></g></g></svg>