<svg width="238" height="300" viewBox="0 0 238 300" fill="none" xmlns="http://www.w3.org/2000/svg">
<path fill-rule="evenodd" clip-rule="evenodd" d="M72.6913 252.323C43.4124 219.44 38.8274 188.364 42.7788 161.406C38.4451 166.328 33.7877 168.927 28.844 169.147C28.6268 169.156 28.4095 169.16 28.1951 169.16C24.1566 169.16 20.1982 167.481 16.5204 164.306C17.6992 175.821 19.2736 185.447 21.3798 191.495C33.3386 225.858 52.0777 240.377 72.6913 252.323ZM119.072 281.634C130.058 271.839 142.271 265.147 154.13 258.648C171.359 249.206 187.925 240.121 201.182 222.048C186.218 230.14 170.926 233.232 156.647 233.23C134.385 233.23 114.595 225.777 102.397 218.297C71.2451 199.199 56.9503 164.82 56.8981 132.83C55.8405 135.802 54.8246 138.843 53.8755 141.943L53.934 141.971L53.7126 142.479C43.3672 176.688 41.8952 218.491 94.1752 264.312C102.715 269.212 111.208 274.623 119.072 281.634ZM129.537 66.3838L122.251 82.2682C122.82 82.0531 123.378 81.8574 123.903 81.6792C124.567 81.457 125.225 81.2419 125.851 80.9648C134.691 77.0468 147.447 77.9018 155.37 78.9971L149.343 68.8793C146.062 68.0793 136.954 66.0788 129.537 66.3838ZM105.771 212.656C126.445 225.332 170.414 237.912 209.191 209.142C211.94 203.903 214.478 198.066 216.764 191.495C222.076 176.239 224.043 138.374 224.683 104.109L201.101 82.9499C204.691 105.294 203.297 125.04 196.935 141.762C188.995 162.622 175.582 172.953 165.724 177.948C144.564 188.672 119.949 184.629 105.874 168.12C85.8135 144.585 98.7171 117.367 104.228 105.746C104.92 104.289 105.493 103.084 105.856 102.172C107.043 99.1901 108.388 96.4948 109.849 94.0766L109.688 94L120.59 70.2336L115.58 75.1758L104.981 64.1634L123.265 64.4008L123.768 63.2993L117.997 51.9707L86.8406 60.4856C80.6833 73.9469 72.5632 92.4758 69.7641 98.8893L69.267 100.358C68.5749 102.402 67.7971 104.513 66.9832 106.661C56.7352 141.866 67.8646 189.413 105.771 212.656ZM224.737 45.3573C217.277 45.8635 204.701 46.2214 189.968 44.6367C161.167 41.541 136.804 32.2588 119.072 17.6849C101.34 32.2588 76.9769 41.541 48.1785 44.6367C33.443 46.2214 20.8625 45.8656 13.4046 45.3573C13.1184 63.8758 12.6644 115.024 15.5366 153.133C19.6036 159.346 24.2262 162.749 28.562 162.558C34.6371 162.29 41.0659 155.098 46.6606 142.314L47.7071 139.918C50.5863 130.44 54.067 121.673 57.2108 113.756C58.4829 110.552 59.7035 107.465 60.83 104.489C61.3927 102.584 61.9915 100.703 62.6689 98.8719C62.7058 98.7661 63.077 97.904 63.6939 96.4836L64.1674 95.0924L64.2843 95.1342C67.7345 87.2216 75.9548 68.5409 81.5711 56.3127L82.2116 54.9208L121.378 44.2168L129.309 59.7865C139.449 59.3931 151.731 62.6754 152.283 62.8272L153.548 63.1698L168.569 88.3914L161.123 86.6938C160.917 86.65 139.881 81.9493 128.46 87.0085C127.648 87.3664 126.808 87.6547 125.954 87.9381C124.819 88.321 123.747 88.6817 122.865 89.2443C118.62 91.9591 114.827 97.2822 111.901 104.636C111.497 105.647 110.865 106.986 110.099 108.6C104.723 119.944 93.5326 143.546 110.806 163.809C122.928 178.033 144.314 181.424 162.808 172.049C196.811 154.821 200.661 110.502 192.927 74.7692L190.786 64.8826L224.818 95.4155C225.089 74.1049 224.891 55.1562 224.737 45.3573ZM0.688248 30.6319L7.88576 31.6059C8.56116 31.6938 75.8657 40.3253 114.658 4.12L119.072 0L123.488 4.12C162.185 40.2375 229.592 31.696 230.256 31.6059L237.456 30.6319L237.632 37.986C237.751 43.0756 240.48 163.038 229.051 195.879C213.263 241.245 186.353 255.99 160.329 270.25C147.019 277.543 134.446 284.43 123.677 295.335L119.072 300L114.467 295.335C103.696 284.43 91.1248 277.545 77.8153 270.25C51.7915 255.99 24.8815 241.245 9.09523 195.879C-2.3385 163.038 0.39093 43.0756 0.512085 37.986L0.688248 30.6319Z" fill="#8F8F8F"/>
</svg>
