<svg width="48" height="48" viewBox="0 0 48 48" fill="none" xmlns="http://www.w3.org/2000/svg">
<path d="M34 6H14C11.8 6 10.02 7.8 10.02 10L10 42L24 36L38 42V10C38 7.8 36.2 6 34 6Z" fill="#FCB542"/>
<path d="M29.1026 26.808C29.1346 26.808 29.1506 26.84 29.1506 26.904C29.1506 26.968 29.1346 27 29.1026 27C28.7293 27 28.4306 26.9947 28.2066 26.984L26.9746 26.968L25.5346 26.984C25.3426 26.9947 25.0813 27 24.7506 27C24.7186 27 24.7026 26.968 24.7026 26.904C24.7026 26.84 24.7186 26.808 24.7506 26.808C25.1453 26.808 25.4333 26.7813 25.6146 26.728C25.796 26.6747 25.9186 26.5733 25.9826 26.424C26.0466 26.2747 26.0786 26.0347 26.0786 25.704V22.024H20.9106V25.704C20.9106 26.024 20.9426 26.264 21.0066 26.424C21.0706 26.5733 21.1933 26.6747 21.3746 26.728C21.556 26.7813 21.844 26.808 22.2386 26.808C22.26 26.808 22.2706 26.84 22.2706 26.904C22.2706 26.968 22.26 27 22.2386 27C21.8653 27 21.5666 26.9947 21.3426 26.984L19.9506 26.968L18.7506 26.984C18.5373 26.9947 18.244 27 17.8706 27C17.8493 27 17.8386 26.968 17.8386 26.904C17.8386 26.84 17.8493 26.808 17.8706 26.808C18.244 26.808 18.516 26.7813 18.6866 26.728C18.8573 26.6747 18.9746 26.5733 19.0386 26.424C19.1026 26.264 19.1346 26.024 19.1346 25.704V18.296C19.1346 17.976 19.1026 17.7413 19.0386 17.592C18.9746 17.4427 18.8573 17.3413 18.6866 17.288C18.5266 17.224 18.2653 17.192 17.9026 17.192C17.8706 17.192 17.8546 17.16 17.8546 17.096C17.8546 17.032 17.8706 17 17.9026 17L18.7666 17.016C19.2573 17.0373 19.652 17.048 19.9506 17.048C20.356 17.048 20.8253 17.0373 21.3586 17.016L22.2386 17C22.26 17 22.2706 17.032 22.2706 17.096C22.2706 17.16 22.26 17.192 22.2386 17.192C21.8546 17.192 21.572 17.224 21.3906 17.288C21.2093 17.352 21.0813 17.464 21.0066 17.624C20.9426 17.7733 20.9106 18.008 20.9106 18.328V21.576H26.0786V18.328C26.0786 18.008 26.0466 17.7733 25.9826 17.624C25.9186 17.464 25.796 17.352 25.6146 17.288C25.4333 17.224 25.1453 17.192 24.7506 17.192C24.7186 17.192 24.7026 17.16 24.7026 17.096C24.7026 17.032 24.7186 17 24.7506 17L25.5346 17.016C26.068 17.0373 26.548 17.048 26.9746 17.048C27.2626 17.048 27.6733 17.0373 28.2066 17.016L29.1026 17C29.1346 17 29.1506 17.032 29.1506 17.096C29.1506 17.16 29.1346 17.192 29.1026 17.192C28.74 17.192 28.468 17.224 28.2866 17.288C28.116 17.3413 27.9986 17.4427 27.9346 17.592C27.8813 17.7413 27.8546 17.976 27.8546 18.296V25.704C27.8546 26.024 27.8813 26.264 27.9346 26.424C27.9986 26.5733 28.116 26.6747 28.2866 26.728C28.4573 26.7813 28.7293 26.808 29.1026 26.808Z" fill="white"/>
<path d="M28.2066 26.984L28.2185 26.7341L28.2099 26.734L28.2066 26.984ZM26.9746 26.968L26.9779 26.7179L26.9718 26.718L26.9746 26.968ZM25.5346 26.984L25.5318 26.7338L25.5208 26.7344L25.5346 26.984ZM25.6146 26.728L25.5441 26.4882L25.6146 26.728ZM25.9826 26.424L25.7528 26.3255V26.3255L25.9826 26.424ZM26.0786 22.024H26.3286V21.774H26.0786V22.024ZM20.9106 22.024V21.774H20.6606V22.024H20.9106ZM21.0066 26.424L20.7744 26.5169L20.7768 26.5225L21.0066 26.424ZM21.3746 26.728L21.4452 26.4882H21.4452L21.3746 26.728ZM21.3426 26.984L21.3545 26.7341L21.3455 26.734L21.3426 26.984ZM19.9506 26.968L19.9535 26.7179L19.9473 26.718L19.9506 26.968ZM18.7506 26.984L18.7473 26.7339L18.7381 26.7343L18.7506 26.984ZM18.6866 26.728L18.6121 26.4894L18.6866 26.728ZM19.0386 26.424L19.2685 26.5225L19.2707 26.5168L19.0386 26.424ZM19.0386 17.592L18.8088 17.6905H18.8088L19.0386 17.592ZM18.6866 17.288L18.5938 17.5201L18.6028 17.5237L18.6121 17.5266L18.6866 17.288ZM17.9026 17L17.9073 16.75H17.9026V17ZM18.7666 17.016L18.7775 16.7662L18.7713 16.766L18.7666 17.016ZM21.3586 17.016L21.3541 16.766L21.3486 16.7662L21.3586 17.016ZM22.2386 17V16.75L22.2341 16.75L22.2386 17ZM21.3906 17.288L21.3074 17.0523L21.3074 17.0523L21.3906 17.288ZM21.0066 17.624L20.78 17.5182L20.7768 17.5255L21.0066 17.624ZM20.9106 21.576H20.6606V21.826H20.9106V21.576ZM26.0786 21.576V21.826H26.3286V21.576H26.0786ZM25.9826 17.624L25.7504 17.7169L25.7528 17.7225L25.9826 17.624ZM25.6146 17.288L25.6978 17.0523V17.0523L25.6146 17.288ZM24.7506 17L24.7557 16.75H24.7506V17ZM25.5346 17.016L25.5446 16.7662L25.5397 16.7661L25.5346 17.016ZM28.2066 17.016L28.2022 16.766L28.1966 16.7662L28.2066 17.016ZM29.1026 17V16.75L29.0982 16.75L29.1026 17ZM28.2866 17.288L28.3612 17.5268L28.3698 17.5237L28.2866 17.288ZM27.9346 17.592L27.7048 17.4935L27.7018 17.5006L27.6992 17.5079L27.9346 17.592ZM27.9346 26.424L27.6975 26.5031L27.7007 26.5129L27.7048 26.5225L27.9346 26.424ZM28.2866 26.728L28.3612 26.4894L28.2866 26.728ZM29.1026 27.058C29.0669 27.058 29.0244 27.0483 28.9849 27.022C28.947 26.9967 28.9258 26.9655 28.915 26.9438C28.8969 26.9076 28.9006 26.8848 28.9006 26.904H29.4006C29.4006 26.8592 29.3964 26.7884 29.3622 26.7202C29.3434 26.6825 29.3122 26.6393 29.2623 26.606C29.2108 26.5717 29.1544 26.558 29.1026 26.558V27.058ZM28.9006 26.904C28.9006 26.9232 28.8969 26.9004 28.915 26.8642C28.9258 26.8425 28.947 26.8113 28.9849 26.786C29.0244 26.7597 29.0669 26.75 29.1026 26.75V27.25C29.1544 27.25 29.2108 27.2363 29.2623 27.202C29.3122 27.1687 29.3434 27.1255 29.3622 27.0878C29.3964 27.0196 29.4006 26.9488 29.4006 26.904H28.9006ZM29.1026 26.75C28.731 26.75 28.4368 26.7447 28.2185 26.7343L28.1947 27.2337C28.4244 27.2447 28.7276 27.25 29.1026 27.25V26.75ZM28.2099 26.734L26.9779 26.718L26.9714 27.218L28.2034 27.234L28.2099 26.734ZM26.9718 26.718L25.5318 26.734L25.5374 27.234L26.9774 27.218L26.9718 26.718ZM25.5208 26.7344C25.3355 26.7447 25.0794 26.75 24.7506 26.75V27.25C25.0831 27.25 25.3498 27.2447 25.5485 27.2336L25.5208 26.7344ZM24.7506 26.75C24.7864 26.75 24.8288 26.7597 24.8683 26.786C24.9062 26.8113 24.9274 26.8425 24.9382 26.8642C24.9564 26.9004 24.9526 26.9232 24.9526 26.904H24.4526C24.4526 26.9488 24.4569 27.0196 24.491 27.0878C24.5098 27.1255 24.541 27.1687 24.591 27.202C24.6424 27.2363 24.6989 27.25 24.7506 27.25V26.75ZM24.9526 26.904C24.9526 26.8848 24.9564 26.9076 24.9382 26.9438C24.9274 26.9655 24.9062 26.9967 24.8683 27.022C24.8288 27.0483 24.7864 27.058 24.7506 27.058V26.558C24.6989 26.558 24.6424 26.5717 24.591 26.606C24.541 26.6393 24.5098 26.6825 24.491 26.7202C24.4569 26.7884 24.4526 26.8592 24.4526 26.904H24.9526ZM24.7506 27.058C25.1491 27.058 25.4674 27.0319 25.6852 26.9678L25.5441 26.4882C25.3991 26.5308 25.1415 26.558 24.7506 26.558V27.058ZM25.6852 26.9678C25.925 26.8973 26.1141 26.7519 26.2124 26.5225L25.7528 26.3255C25.7232 26.3948 25.6669 26.452 25.5441 26.4882L25.6852 26.9678ZM26.2124 26.5225C26.2975 26.3239 26.3286 26.0407 26.3286 25.704H25.8286C25.8286 26.0286 25.7957 26.2254 25.7528 26.3255L26.2124 26.5225ZM26.3286 25.704V22.024H25.8286V25.704H26.3286ZM26.0786 21.774H20.9106V22.274H26.0786V21.774ZM20.6606 22.024V25.704H21.1606V22.024H20.6606ZM20.6606 25.704C20.6606 26.0333 20.6925 26.3119 20.7745 26.5168L21.2387 26.3312C21.1927 26.2161 21.1606 26.0147 21.1606 25.704H20.6606ZM20.7768 26.5225C20.8752 26.7519 21.0643 26.8973 21.3041 26.9678L21.4452 26.4882C21.3223 26.452 21.2661 26.3948 21.2364 26.3255L20.7768 26.5225ZM21.3041 26.9678C21.5218 27.0319 21.8402 27.058 22.2386 27.058V26.558C21.8478 26.558 21.5901 26.5308 21.4452 26.4882L21.3041 26.9678ZM22.2386 27.058C22.1733 27.058 22.1156 27.0305 22.0758 26.9908C22.0423 26.9572 22.0295 26.9233 22.0255 26.9111C22.0178 26.888 22.0206 26.8793 22.0206 26.904H22.5206C22.5206 26.8647 22.5182 26.808 22.4998 26.7529C22.4836 26.7043 22.4154 26.558 22.2386 26.558V27.058ZM22.0206 26.904C22.0206 26.9287 22.0178 26.92 22.0255 26.8969C22.0295 26.8847 22.0423 26.8508 22.0758 26.8172C22.1156 26.7775 22.1733 26.75 22.2386 26.75V27.25C22.4154 27.25 22.4836 27.1037 22.4998 27.0551C22.5182 27 22.5206 26.9433 22.5206 26.904H22.0206ZM22.2386 26.75C21.867 26.75 21.5728 26.7447 21.3545 26.7343L21.3307 27.2337C21.5604 27.2447 21.8636 27.25 22.2386 27.25V26.75ZM21.3455 26.734L19.9535 26.718L19.9478 27.218L21.3398 27.234L21.3455 26.734ZM19.9473 26.718L18.7473 26.734L18.754 27.234L19.954 27.218L19.9473 26.718ZM18.7381 26.7343C18.5309 26.7447 18.2424 26.75 17.8706 26.75V27.25C18.2455 27.25 18.5437 27.2447 18.7631 27.2337L18.7381 26.7343ZM17.8706 26.75C17.9359 26.75 17.9937 26.7775 18.0334 26.8172C18.067 26.8508 18.0797 26.8847 18.0838 26.8969C18.0915 26.92 18.0886 26.9287 18.0886 26.904H17.5886C17.5886 26.9433 17.5911 27 17.6095 27.0551C17.6257 27.1037 17.6939 27.25 17.8706 27.25V26.75ZM18.0886 26.904C18.0886 26.8793 18.0915 26.888 18.0838 26.9111C18.0797 26.9233 18.067 26.9572 18.0334 26.9908C17.9937 27.0305 17.9359 27.058 17.8706 27.058V26.558C17.6939 26.558 17.6257 26.7043 17.6095 26.7529C17.5911 26.808 17.5886 26.8647 17.5886 26.904H18.0886ZM17.8706 27.058C18.248 27.058 18.5522 27.0319 18.7612 26.9666L18.6121 26.4894C18.4798 26.5307 18.24 26.558 17.8706 26.558V27.058ZM18.7612 26.9666C18.9937 26.894 19.1725 26.7462 19.2684 26.5225L18.8088 26.3255C18.7767 26.4005 18.7209 26.4554 18.6121 26.4894L18.7612 26.9666ZM19.2707 26.5168C19.3527 26.3119 19.3846 26.0333 19.3846 25.704H18.8846C18.8846 26.0147 18.8525 26.2161 18.8065 26.3312L19.2707 26.5168ZM19.3846 25.704V18.296H18.8846V25.704H19.3846ZM19.3846 18.296C19.3846 17.9686 19.3532 17.6915 19.2684 17.4935L18.8088 17.6905C18.852 17.7912 18.8846 17.9834 18.8846 18.296H19.3846ZM19.2684 17.4935C19.1725 17.2698 18.9937 17.122 18.7612 17.0494L18.6121 17.5266C18.7209 17.5606 18.7767 17.6155 18.8088 17.6905L19.2684 17.4935ZM18.7795 17.0559C18.5722 16.973 18.2698 16.942 17.9026 16.942V17.442C18.2608 17.442 18.481 17.475 18.5938 17.5201L18.7795 17.0559ZM17.9026 16.942C17.9384 16.942 17.9808 16.9517 18.0203 16.978C18.0582 17.0033 18.0794 17.0345 18.0902 17.0562C18.1084 17.0924 18.1046 17.1152 18.1046 17.096H17.6046C17.6046 17.1408 17.6089 17.2116 17.643 17.2798C17.6618 17.3175 17.693 17.3607 17.743 17.394C17.7944 17.4283 17.8509 17.442 17.9026 17.442V16.942ZM18.1046 17.096C18.1046 17.0768 18.1084 17.0996 18.0902 17.1358C18.0794 17.1575 18.0582 17.1887 18.0203 17.214C17.9808 17.2403 17.9384 17.25 17.9026 17.25V16.75C17.8509 16.75 17.7944 16.7637 17.743 16.798C17.693 16.8313 17.6618 16.8745 17.643 16.9122C17.6089 16.9804 17.6046 17.0512 17.6046 17.096H18.1046ZM17.898 17.25L18.762 17.266L18.7713 16.766L17.9073 16.75L17.898 17.25ZM18.7558 17.2658C19.2481 17.2872 19.6468 17.298 19.9506 17.298V16.798C19.6571 16.798 19.2665 16.7875 18.7775 16.7662L18.7558 17.2658ZM19.9506 17.298C20.3601 17.298 20.8329 17.2872 21.3686 17.2658L21.3486 16.7662C20.8177 16.7874 20.3518 16.798 19.9506 16.798V17.298ZM21.3632 17.266L22.2432 17.25L22.2341 16.75L21.3541 16.766L21.3632 17.266ZM22.2386 17.25C22.1733 17.25 22.1156 17.2225 22.0758 17.1828C22.0423 17.1492 22.0295 17.1153 22.0255 17.1031C22.0178 17.08 22.0206 17.0713 22.0206 17.096H22.5206C22.5206 17.0567 22.5182 17 22.4998 16.9449C22.4836 16.8963 22.4154 16.75 22.2386 16.75V17.25ZM22.0206 17.096C22.0206 17.1207 22.0178 17.112 22.0255 17.0889C22.0295 17.0767 22.0423 17.0428 22.0758 17.0092C22.1156 16.9695 22.1733 16.942 22.2386 16.942V17.442C22.4154 17.442 22.4836 17.2957 22.4998 17.2471C22.5182 17.192 22.5206 17.1353 22.5206 17.096H22.0206ZM22.2386 16.942C21.8487 16.942 21.5306 16.9735 21.3074 17.0523L21.4738 17.5237C21.6133 17.4745 21.8605 17.442 22.2386 17.442V16.942ZM21.3074 17.0523C21.069 17.1364 20.8858 17.2917 20.7801 17.5183L21.2332 17.7297C21.2768 17.6363 21.3496 17.5676 21.4738 17.5237L21.3074 17.0523ZM20.7768 17.5255C20.692 17.7235 20.6606 18.0006 20.6606 18.328H21.1606C21.1606 18.0154 21.1932 17.8232 21.2364 17.7225L20.7768 17.5255ZM20.6606 18.328V21.576H21.1606V18.328H20.6606ZM20.9106 21.826H26.0786V21.326H20.9106V21.826ZM26.3286 21.576V18.328H25.8286V21.576H26.3286ZM26.3286 18.328C26.3286 18.0006 26.2972 17.7235 26.2124 17.5255L25.7528 17.7225C25.796 17.8232 25.8286 18.0154 25.8286 18.328H26.3286ZM26.2147 17.5312C26.1207 17.2961 25.9383 17.1371 25.6978 17.0523L25.5314 17.5237C25.6537 17.5669 25.7165 17.6319 25.7505 17.7168L26.2147 17.5312ZM25.6978 17.0523C25.4742 16.9733 25.1503 16.942 24.7506 16.942V17.442C25.1403 17.442 25.3924 17.4747 25.5314 17.5237L25.6978 17.0523ZM24.7506 16.942C24.7864 16.942 24.8288 16.9517 24.8683 16.978C24.9062 17.0033 24.9274 17.0345 24.9382 17.0562C24.9564 17.0924 24.9526 17.1152 24.9526 17.096H24.4526C24.4526 17.1408 24.4569 17.2116 24.491 17.2798C24.5098 17.3175 24.541 17.3607 24.591 17.394C24.6424 17.4283 24.6989 17.442 24.7506 17.442V16.942ZM24.9526 17.096C24.9526 17.0768 24.9564 17.0996 24.9382 17.1358C24.9274 17.1575 24.9062 17.1887 24.8683 17.214C24.8288 17.2403 24.7864 17.25 24.7506 17.25V16.75C24.6989 16.75 24.6424 16.7637 24.591 16.798C24.541 16.8313 24.5098 16.8745 24.491 16.9122C24.4569 16.9804 24.4526 17.0512 24.4526 17.096H24.9526ZM24.7455 17.2499L25.5295 17.2659L25.5397 16.7661L24.7557 16.7501L24.7455 17.2499ZM25.5246 17.2658C26.0605 17.2872 26.5439 17.298 26.9746 17.298V16.798C26.552 16.798 26.0754 16.7874 25.5446 16.7662L25.5246 17.2658ZM26.9746 17.298C27.2677 17.298 27.6822 17.2872 28.2166 17.2658L28.1966 16.7662C27.6643 16.7875 27.2576 16.798 26.9746 16.798V17.298ZM28.2111 17.266L29.1071 17.25L29.0982 16.75L28.2022 16.766L28.2111 17.266ZM29.1026 17.25C29.0669 17.25 29.0244 17.2403 28.9849 17.214C28.947 17.1887 28.9258 17.1575 28.915 17.1358C28.8969 17.0996 28.9006 17.0768 28.9006 17.096H29.4006C29.4006 17.0512 29.3964 16.9804 29.3622 16.9122C29.3434 16.8745 29.3122 16.8313 29.2623 16.798C29.2108 16.7637 29.1544 16.75 29.1026 16.75V17.25ZM28.9006 17.096C28.9006 17.1152 28.8969 17.0924 28.915 17.0562C28.9258 17.0345 28.947 17.0033 28.9849 16.978C29.0244 16.9517 29.0669 16.942 29.1026 16.942V17.442C29.1544 17.442 29.2108 17.4283 29.2623 17.394C29.3122 17.3607 29.3434 17.3175 29.3622 17.2798C29.3964 17.2116 29.4006 17.1408 29.4006 17.096H28.9006ZM29.1026 16.942C28.7321 16.942 28.4257 16.9738 28.2034 17.0523L28.3698 17.5237C28.5103 17.4742 28.7478 17.442 29.1026 17.442V16.942ZM28.2121 17.0494C27.9796 17.122 27.8007 17.2698 27.7048 17.4935L28.1644 17.6905C28.1965 17.6155 28.2524 17.5606 28.3612 17.5266L28.2121 17.0494ZM27.6992 17.5079C27.6307 17.6997 27.6046 17.9704 27.6046 18.296H28.1046C28.1046 17.9816 28.1319 17.783 28.1701 17.6761L27.6992 17.5079ZM27.6046 18.296V25.704H28.1046V18.296H27.6046ZM27.6046 25.704C27.6046 26.0313 27.6311 26.304 27.6975 26.5031L28.1718 26.3449C28.1315 26.224 28.1046 26.0167 28.1046 25.704H27.6046ZM27.7048 26.5225C27.8007 26.7462 27.9796 26.894 28.2121 26.9666L28.3612 26.4894C28.2524 26.4554 28.1965 26.4004 28.1644 26.3255L27.7048 26.5225ZM28.2121 26.9666C28.4211 27.0319 28.7253 27.058 29.1026 27.058V26.558C28.7333 26.558 28.4935 26.5307 28.3612 26.4894L28.2121 26.9666Z" fill="white"/>
</svg>
