<svg xmlns="http://www.w3.org/2000/svg" viewBox="0 0 56 56"><defs><style>.cls-1{fill:none;}.cls-2{fill:#b2a069;}</style></defs><title>Asset 58</title><g id="Layer_2" data-name="Layer 2"><g id="Layer_1-2" data-name="Layer 1"><rect class="cls-1" width="56" height="56"/><path class="cls-2" d="M4,40.68c0,2.44,10.75,4.42,24,4.42s24-2,24-4.42c0-2.1-7.94-3.85-18.59-4.3L38.11,35,35.58,18.57H31.79L36.84,11l5,2.52L35.58,4.68,21.68,17.31l-2.52,8.84-1.27,1.27,3.79,3.79H19.16l-1.37,5.47C9.65,37.39,4,38.91,4,40.68ZM29.26,26.15,28,29.94,23,31.21Z"/><path class="cls-2" d="M39.6,46.12c-5,.48-9.8.54-11.6.54s-6.62-.06-11.6-.54l-.54,1.36a1.54,1.54,0,0,0,.64,1.91c1.86,1.13,6.31,1.93,11.5,1.93s9.64-.8,11.5-1.93a1.54,1.54,0,0,0,.64-1.91Z"/></g></g></svg>