<svg width="48" height="48" viewBox="0 0 48 48" fill="none" xmlns="http://www.w3.org/2000/svg">
<path d="M34 6H14C11.8 6 10.02 7.8 10.02 10L10 42L24 36L38 42V10C38 7.8 36.2 6 34 6Z" fill="#086C5C"/>
<path d="M22.1668 18.616C22.1668 19 22.2628 19.3413 22.4548 19.64C22.6575 19.9387 22.9028 20.2 23.1908 20.424C23.4788 20.648 23.8681 20.92 24.3588 21.24C24.8921 21.5813 25.3188 21.88 25.6388 22.136C25.9588 22.392 26.2308 22.7067 26.4548 23.08C26.6788 23.4427 26.7908 23.864 26.7908 24.344C26.7908 24.8987 26.6415 25.3947 26.3428 25.832C26.0441 26.2587 25.6281 26.5947 25.0948 26.84C24.5721 27.0747 23.9855 27.192 23.3348 27.192C22.8548 27.192 22.3535 27.128 21.8308 27C21.3081 26.8613 20.9561 26.712 20.7748 26.552C20.7215 26.5093 20.6788 26.472 20.6468 26.44C20.6255 26.3973 20.6148 26.3333 20.6148 26.248L20.5668 23.704V23.688C20.5668 23.6453 20.5935 23.624 20.6468 23.624C20.7001 23.6133 20.7321 23.6293 20.7428 23.672C21.0628 24.3227 21.3401 24.8507 21.5748 25.256C21.8201 25.6613 22.1241 26.0187 22.4868 26.328C22.8601 26.6373 23.2815 26.792 23.7508 26.792C24.1775 26.792 24.5295 26.68 24.8068 26.456C25.0841 26.2213 25.2228 25.8267 25.2228 25.272C25.2228 24.8027 25.1161 24.392 24.9028 24.04C24.7001 23.688 24.4495 23.3893 24.1508 23.144C23.8521 22.8987 23.4415 22.6053 22.9188 22.264C22.4068 21.9333 22.0068 21.6507 21.7188 21.416C21.4415 21.1813 21.2015 20.8987 20.9988 20.568C20.7961 20.2373 20.6948 19.848 20.6948 19.4C20.6948 18.8347 20.8548 18.36 21.1748 17.976C21.5055 17.5813 21.9268 17.2933 22.4388 17.112C22.9508 16.92 23.4895 16.824 24.0548 16.824C24.4281 16.824 24.8068 16.8613 25.1908 16.936C25.5748 17 25.8841 17.08 26.1188 17.176C26.2148 17.2187 26.2788 17.2667 26.3108 17.32C26.3428 17.3627 26.3588 17.4213 26.3588 17.496V19.848C26.3588 19.88 26.3321 19.9067 26.2788 19.928C26.2255 19.9387 26.1935 19.928 26.1828 19.896L26.0548 19.592C25.7881 18.92 25.4735 18.3493 25.1108 17.88C24.7588 17.4107 24.2628 17.176 23.6228 17.176C23.1961 17.176 22.8441 17.2987 22.5668 17.544C22.3001 17.7893 22.1668 18.1467 22.1668 18.616Z" fill="white"/>
<path d="M22.4548 19.64L22.2445 19.7752L22.2479 19.7804L22.4548 19.64ZM23.1908 20.424L23.0373 20.6213L23.1908 20.424ZM24.3588 21.24L24.2222 21.4494L24.224 21.4506L24.3588 21.24ZM25.6388 22.136L25.795 21.9408L25.6388 22.136ZM26.4548 23.08L26.2404 23.2086L26.2421 23.2114L26.4548 23.08ZM26.3428 25.832L26.5476 25.9754L26.5493 25.973L26.3428 25.832ZM25.0948 26.84L25.1972 27.0681L25.1993 27.0671L25.0948 26.84ZM21.8308 27L21.7667 27.2417L21.7713 27.2428L21.8308 27ZM20.7748 26.552L20.9404 26.3643L20.931 26.3568L20.7748 26.552ZM20.6468 26.44L20.4232 26.5518L20.4413 26.5881L20.47 26.6168L20.6468 26.44ZM20.6148 26.248H20.8649L20.8648 26.2433L20.6148 26.248ZM20.5668 23.704H20.3168L20.3169 23.7087L20.5668 23.704ZM20.6468 23.624V23.874H20.6716L20.6958 23.8691L20.6468 23.624ZM20.7428 23.672L20.5003 23.7326L20.5067 23.7585L20.5185 23.7823L20.7428 23.672ZM21.5748 25.256L21.3584 25.3813L21.3609 25.3855L21.5748 25.256ZM22.4868 26.328L22.3246 26.5182L22.3273 26.5205L22.4868 26.328ZM24.8068 26.456L24.9639 26.6505L24.9683 26.6468L24.8068 26.456ZM24.9028 24.04L24.6861 24.1648L24.689 24.1696L24.9028 24.04ZM24.1508 23.144L24.3095 22.9508L24.1508 23.144ZM22.9188 22.264L23.0555 22.0547L23.0544 22.054L22.9188 22.264ZM21.7188 21.416L21.5573 21.6069L21.5609 21.6098L21.7188 21.416ZM20.9988 20.568L20.7857 20.6986L20.7857 20.6986L20.9988 20.568ZM21.1748 17.976L20.9832 17.8154L20.9828 17.816L21.1748 17.976ZM22.4388 17.112L22.5223 17.3477L22.5266 17.3461L22.4388 17.112ZM25.1908 16.936L25.1431 17.1815L25.1497 17.1826L25.1908 16.936ZM26.1188 17.176L26.2204 16.9474L26.2135 16.9446L26.1188 17.176ZM26.3108 17.32L26.0964 17.4486L26.1031 17.4597L26.1108 17.47L26.3108 17.32ZM26.2788 19.928L26.3278 20.1731L26.3503 20.1686L26.3717 20.1601L26.2788 19.928ZM26.1828 19.896L26.42 19.8169L26.4169 19.8078L26.4132 19.799L26.1828 19.896ZM26.0548 19.592L25.8224 19.6842L25.8244 19.689L26.0548 19.592ZM25.1108 17.88L24.9108 18.03L24.913 18.0329L25.1108 17.88ZM22.5668 17.544L22.4011 17.3567L22.3975 17.36L22.5668 17.544ZM21.9168 18.616C21.9168 19.0439 22.0245 19.4329 22.2445 19.7752L22.6651 19.5048C22.5011 19.2498 22.4168 18.9561 22.4168 18.616H21.9168ZM22.2479 19.7804C22.4655 20.1009 22.7289 20.3814 23.0373 20.6213L23.3443 20.2267C23.0767 20.0186 22.8495 19.7764 22.6617 19.4996L22.2479 19.7804ZM23.0373 20.6213C23.333 20.8513 23.7288 21.1276 24.2222 21.4494L24.4954 21.0306C24.0075 20.7124 23.6246 20.4447 23.3443 20.2267L23.0373 20.6213ZM24.224 21.4506C24.7535 21.7894 25.1721 22.0828 25.4826 22.3312L25.795 21.9408C25.4655 21.6772 25.0308 21.3733 24.4936 21.0294L24.224 21.4506ZM25.4826 22.3312C25.778 22.5675 26.0308 22.8592 26.2404 23.2086L26.6692 22.9514C26.4309 22.5542 26.1396 22.2165 25.795 21.9408L25.4826 22.3312ZM26.2421 23.2114C26.4388 23.5297 26.5408 23.9044 26.5408 24.344H27.0408C27.0408 23.8236 26.9189 23.3556 26.6675 22.9486L26.2421 23.2114ZM26.5408 24.344C26.5408 24.8509 26.4053 25.2973 26.1364 25.691L26.5493 25.973C26.8777 25.4921 27.0408 24.9465 27.0408 24.344H26.5408ZM26.138 25.6886C25.8679 26.0745 25.4886 26.3837 24.9903 26.6129L25.1993 27.0671C25.7677 26.8057 26.2204 26.4428 26.5476 25.9754L26.138 25.6886ZM24.9924 26.6119C24.506 26.8303 23.955 26.942 23.3348 26.942V27.442C24.016 27.442 24.6382 27.319 25.1972 27.0681L24.9924 26.6119ZM23.3348 26.942C22.8771 26.942 22.3958 26.881 21.8903 26.7572L21.7713 27.2428C22.3112 27.375 22.8325 27.442 23.3348 27.442V26.942ZM21.8949 26.7584C21.3744 26.6203 21.0738 26.4824 20.9402 26.3645L20.6094 26.7395C20.8385 26.9416 21.2419 27.1024 21.7667 27.2416L21.8949 26.7584ZM20.931 26.3568C20.8816 26.3173 20.8467 26.2863 20.8236 26.2632L20.47 26.6168C20.5109 26.6577 20.5613 26.7014 20.6186 26.7472L20.931 26.3568ZM20.8704 26.3282C20.8741 26.3355 20.872 26.3345 20.8694 26.3189C20.8669 26.3039 20.8648 26.2809 20.8648 26.248H20.3648C20.3648 26.3461 20.3758 26.4569 20.4232 26.5518L20.8704 26.3282ZM20.8648 26.2433L20.8168 23.6993L20.3169 23.7087L20.3649 26.2527L20.8648 26.2433ZM20.8168 23.704V23.688H20.3168V23.704H20.8168ZM20.8168 23.688C20.8168 23.7218 20.8035 23.7868 20.743 23.8352C20.6932 23.8751 20.6469 23.874 20.6468 23.874V23.374C20.5934 23.374 20.5071 23.3836 20.4306 23.4448C20.3435 23.5145 20.3168 23.6115 20.3168 23.688H20.8168ZM20.6958 23.8691C20.6949 23.8693 20.6527 23.8785 20.599 23.8516C20.535 23.8196 20.5082 23.7644 20.5003 23.7326L20.9853 23.6114C20.9667 23.5369 20.9186 23.4524 20.8226 23.4044C20.7369 23.3615 20.652 23.368 20.5978 23.3789L20.6958 23.8691ZM20.5185 23.7823C20.8398 24.4356 21.1199 24.9692 21.3585 25.3813L21.7912 25.1307C21.5604 24.7322 21.2858 24.2097 20.9671 23.5617L20.5185 23.7823ZM21.3609 25.3855C21.6202 25.8138 21.9417 26.1916 22.3246 26.5182L22.649 26.1378C22.3066 25.8457 22.0201 25.5089 21.7887 25.1265L21.3609 25.3855ZM22.3273 26.5205C22.7439 26.8657 23.2212 27.042 23.7508 27.042V26.542C23.3418 26.542 22.9764 26.409 22.6463 26.1355L22.3273 26.5205ZM23.7508 27.042C24.223 27.042 24.6338 26.9171 24.9639 26.6505L24.6497 26.2615C24.4252 26.4429 24.132 26.542 23.7508 26.542V27.042ZM24.9683 26.6468C25.326 26.3442 25.4728 25.8612 25.4728 25.272H24.9728C24.9728 25.7922 24.8423 26.0985 24.6453 26.2652L24.9683 26.6468ZM25.4728 25.272C25.4728 24.7635 25.3568 24.3067 25.1166 23.9104L24.689 24.1696C24.8755 24.4773 24.9728 24.8418 24.9728 25.272H25.4728ZM25.1195 23.9153C24.9025 23.5385 24.6326 23.2162 24.3095 22.9508L23.9921 23.3372C24.2663 23.5624 24.4978 23.8375 24.6862 24.1647L25.1195 23.9153ZM24.3095 22.9508C24.0009 22.6973 23.5818 22.3984 23.0555 22.0547L22.7821 22.4733C23.3012 22.8123 23.7034 23.1 23.9921 23.3372L24.3095 22.9508ZM23.0544 22.054C22.546 21.7256 22.1546 21.4486 21.8767 21.2222L21.5609 21.6098C21.8591 21.8528 22.2677 22.1411 22.7832 22.474L23.0544 22.054ZM21.8803 21.2252C21.6246 21.0088 21.4017 20.7469 21.212 20.4374L20.7857 20.6986C21.0013 21.0505 21.2583 21.3539 21.5573 21.6068L21.8803 21.2252ZM21.212 20.4374C21.0369 20.1518 20.9448 19.8092 20.9448 19.4H20.4448C20.4448 19.8868 20.5554 20.3229 20.7857 20.6986L21.212 20.4374ZM20.9448 19.4C20.9448 18.885 21.0892 18.4692 21.3669 18.136L20.9828 17.816C20.6204 18.2508 20.4448 18.7843 20.4448 19.4H20.9448ZM21.3664 18.1366C21.6668 17.778 22.05 17.5149 22.5223 17.3477L22.3554 16.8763C21.8036 17.0717 21.3441 17.3846 20.9832 17.8154L21.3664 18.1366ZM22.5266 17.3461C23.0096 17.165 23.5184 17.074 24.0548 17.074V16.574C23.4605 16.574 22.8921 16.675 22.351 16.8779L22.5266 17.3461ZM24.0548 17.074C24.4114 17.074 24.7741 17.1096 25.1431 17.1814L25.2385 16.6906C24.8396 16.613 24.4449 16.574 24.0548 16.574V17.074ZM25.1497 17.1826C25.524 17.245 25.8133 17.3211 26.0242 17.4074L26.2135 16.9446C25.955 16.8389 25.6256 16.755 25.2319 16.6894L25.1497 17.1826ZM26.0173 17.4045C26.0531 17.4204 26.0757 17.4341 26.0888 17.444C26.102 17.4539 26.1011 17.4564 26.0964 17.4486L26.5252 17.1914C26.4541 17.0729 26.3342 16.9982 26.2203 16.9475L26.0173 17.4045ZM26.1108 17.47C26.1054 17.4628 26.1048 17.4586 26.1056 17.4618C26.1066 17.4655 26.1088 17.476 26.1088 17.496H26.6088C26.6088 17.3884 26.586 17.2702 26.5108 17.17L26.1108 17.47ZM26.1088 17.496V19.848H26.6088V17.496H26.1088ZM26.1088 19.848C26.1088 19.786 26.1375 19.7398 26.162 19.7152C26.1818 19.6954 26.196 19.6919 26.186 19.6959L26.3717 20.1601C26.4393 20.1331 26.6088 20.0476 26.6088 19.848H26.1088ZM26.2298 19.6829C26.2223 19.6844 26.2506 19.6764 26.2939 19.6908C26.3183 19.699 26.3464 19.714 26.3716 19.7392C26.3968 19.7644 26.4118 19.7925 26.42 19.8169L25.9456 19.9751C25.9759 20.0657 26.0451 20.135 26.1358 20.1652C26.211 20.1902 26.282 20.1823 26.3278 20.1731L26.2298 19.6829ZM26.4132 19.799L26.2852 19.495L25.8244 19.689L25.9524 19.993L26.4132 19.799ZM26.2872 19.4998C26.0137 18.8106 25.6883 18.2185 25.3086 17.7271L24.913 18.0329C25.2586 18.4802 25.5626 19.0294 25.8224 19.6842L26.2872 19.4998ZM25.3108 17.73C24.9068 17.1914 24.3332 16.926 23.6228 16.926V17.426C24.1924 17.426 24.6108 17.63 24.9108 18.03L25.3108 17.73ZM23.6228 16.926C23.145 16.926 22.7311 17.0649 22.4012 17.3568L22.7325 17.7312C22.9572 17.5325 23.2473 17.426 23.6228 17.426V16.926ZM22.3975 17.36C22.0653 17.6657 21.9168 18.0986 21.9168 18.616H22.4168C22.4168 18.1948 22.535 17.913 22.7361 17.728L22.3975 17.36Z" fill="white"/>
</svg>
