<svg width="48" height="48" viewBox="0 0 48 48" fill="none" xmlns="http://www.w3.org/2000/svg">
<path d="M34 6H14C11.8 6 10.02 7.8 10.02 10L10 42L24 36L38 42V10C38 7.8 36.2 6 34 6Z" fill="#265CAA"/>
<path d="M29.7421 26.808C29.7634 26.808 29.7741 26.84 29.7741 26.904C29.7741 26.968 29.7634 27 29.7421 27H26.8941C26.6594 27 26.2221 26.5627 25.5821 25.688C24.9421 24.8027 24.1687 23.5707 23.2621 21.992C23.1767 22.0027 23.0541 22.008 22.8941 22.008C22.4781 22.008 22.1847 22.0027 22.0141 21.992V25.704C22.0141 26.0347 22.0407 26.2747 22.0941 26.424C22.1474 26.5733 22.2487 26.6747 22.3981 26.728C22.5581 26.7813 22.8087 26.808 23.1501 26.808C23.1714 26.808 23.1821 26.84 23.1821 26.904C23.1821 26.968 23.1714 27 23.1501 27C22.7981 27 22.5207 26.9947 22.3181 26.984L21.1021 26.968L19.9341 26.984C19.7207 26.9947 19.4327 27 19.0701 27C19.0381 27 19.0221 26.968 19.0221 26.904C19.0221 26.84 19.0381 26.808 19.0701 26.808C19.4114 26.808 19.6567 26.7813 19.8061 26.728C19.9661 26.6747 20.0727 26.5733 20.1261 26.424C20.1901 26.264 20.2221 26.024 20.2221 25.704V18.296C20.2221 17.976 20.1954 17.7413 20.1421 17.592C20.0887 17.4427 19.9821 17.3413 19.8221 17.288C19.6621 17.224 19.4167 17.192 19.0861 17.192C19.0647 17.192 19.0541 17.16 19.0541 17.096C19.0541 17.032 19.0647 17 19.0861 17L19.9341 17.016C20.4247 17.0373 20.8141 17.048 21.1021 17.048C21.4114 17.048 21.7527 17.032 22.1261 17C22.2434 16.9893 22.3927 16.9787 22.5741 16.968C22.7661 16.9573 22.9901 16.952 23.2461 16.952C24.2274 16.952 24.9847 17.1333 25.5181 17.496C26.0621 17.848 26.3341 18.344 26.3341 18.984C26.3341 19.4747 26.1847 19.944 25.8861 20.392C25.5874 20.84 25.1981 21.2027 24.7181 21.48C25.5714 22.824 26.2861 23.8747 26.8621 24.632C27.4487 25.3893 27.9661 25.944 28.4141 26.296C28.8727 26.6373 29.3154 26.808 29.7421 26.808ZM22.0141 21.528C22.2701 21.5707 22.5794 21.592 22.9421 21.592C23.3261 21.592 23.6301 21.5333 23.8541 21.416C24.0781 21.2987 24.2381 21.096 24.3341 20.808C24.4407 20.52 24.4941 20.1147 24.4941 19.592C24.4941 18.7173 24.3661 18.1147 24.1101 17.784C23.8541 17.4533 23.4861 17.288 23.0061 17.288C22.6434 17.288 22.3874 17.368 22.2381 17.528C22.0887 17.688 22.0141 17.9547 22.0141 18.328V21.528Z" fill="white"/>
<path d="M25.5821 25.688L25.3795 25.8345L25.3803 25.8356L25.5821 25.688ZM23.2621 21.992L23.4789 21.8675L23.396 21.7233L23.2311 21.7439L23.2621 21.992ZM22.0141 21.992L22.0297 21.7425L21.7641 21.7259V21.992H22.0141ZM22.0941 26.424L21.8586 26.5081L22.0941 26.424ZM22.3981 26.728L22.314 26.9635L22.319 26.9652L22.3981 26.728ZM22.3181 26.984L22.3312 26.7342L22.3214 26.734L22.3181 26.984ZM21.1021 26.968L21.1054 26.7179L21.0986 26.718L21.1021 26.968ZM19.9341 26.984L19.9306 26.7339L19.9216 26.7343L19.9341 26.984ZM19.8061 26.728L19.727 26.4908L19.722 26.4926L19.8061 26.728ZM20.1261 26.424L19.8938 26.3311L19.8906 26.3399L20.1261 26.424ZM20.1421 17.592L19.9066 17.6761L19.9066 17.6761L20.1421 17.592ZM19.8221 17.288L19.7292 17.5201L19.736 17.5228L19.743 17.5252L19.8221 17.288ZM19.0861 17L19.0908 16.75H19.0861V17ZM19.9341 17.016L19.9449 16.7662L19.9388 16.766L19.9341 17.016ZM22.1261 17L22.1474 17.2491L22.1487 17.249L22.1261 17ZM22.5741 16.968L22.5602 16.7184L22.5594 16.7184L22.5741 16.968ZM25.5181 17.496L25.3774 17.7028L25.3823 17.7059L25.5181 17.496ZM25.8861 20.392L25.6781 20.2533L25.8861 20.392ZM24.7181 21.48L24.593 21.2635L24.3673 21.3939L24.507 21.614L24.7181 21.48ZM26.8621 24.632L26.6631 24.7833L26.6644 24.7851L26.8621 24.632ZM28.4141 26.296L28.2596 26.4926L28.2648 26.4966L28.4141 26.296ZM22.0141 21.528H21.7641V21.7398L21.973 21.7746L22.0141 21.528ZM23.8541 21.416L23.9701 21.6375L23.8541 21.416ZM24.3341 20.808L24.0995 20.7211L24.0969 20.7289L24.3341 20.808ZM24.1101 17.784L23.9124 17.937L24.1101 17.784ZM22.2381 17.528L22.4208 17.6986L22.2381 17.528ZM29.7421 27.058C29.6768 27.058 29.619 27.0305 29.5793 26.9908C29.5457 26.9572 29.533 26.9233 29.5289 26.9111C29.5212 26.888 29.5241 26.8793 29.5241 26.904H30.0241C30.0241 26.8647 30.0216 26.808 30.0032 26.7529C29.987 26.7043 29.9188 26.558 29.7421 26.558V27.058ZM29.5241 26.904C29.5241 26.9287 29.5212 26.92 29.5289 26.8969C29.533 26.8847 29.5457 26.8508 29.5793 26.8172C29.619 26.7775 29.6768 26.75 29.7421 26.75V27.25C29.9188 27.25 29.987 27.1037 30.0032 27.0551C30.0216 27 30.0241 26.9433 30.0241 26.904H29.5241ZM29.7421 26.75H26.8941V27.25H29.7421V26.75ZM26.8941 26.75C26.9072 26.75 26.8853 26.7533 26.8164 26.7085C26.7526 26.6669 26.6697 26.5981 26.5668 26.4952C26.3615 26.2899 26.101 25.9738 25.7838 25.5404L25.3803 25.8356C25.7032 26.2768 25.9813 26.6168 26.2133 26.8488C26.3291 26.9646 26.4395 27.0597 26.5437 27.1275C26.6428 27.192 26.7636 27.25 26.8941 27.25V26.75ZM25.7847 25.5415C25.152 24.6664 24.3836 23.4429 23.4789 21.8675L23.0453 22.1165C23.9538 23.6985 24.7321 24.939 25.3795 25.8345L25.7847 25.5415ZM23.2311 21.7439C23.1613 21.7527 23.0509 21.758 22.8941 21.758V22.258C23.0572 22.258 23.1922 22.2527 23.2931 22.2401L23.2311 21.7439ZM22.8941 21.758C22.478 21.758 22.1917 21.7526 22.0297 21.7425L21.9985 22.2415C22.1778 22.2527 22.4781 22.258 22.8941 22.258V21.758ZM21.7641 21.992V25.704H22.2641V21.992H21.7641ZM21.7641 25.704C21.7641 26.0391 21.79 26.3158 21.8586 26.5081L22.3295 26.3399C22.2915 26.2335 22.2641 26.0302 22.2641 25.704H21.7641ZM21.8586 26.5081C21.9372 26.728 22.0941 26.8849 22.314 26.9634L22.4821 26.4926C22.4034 26.4644 22.3576 26.4187 22.3295 26.3399L21.8586 26.5081ZM22.319 26.9652C22.5191 27.0319 22.8035 27.058 23.1501 27.058V26.558C22.8139 26.558 22.597 26.5308 22.4771 26.4908L22.319 26.9652ZM23.1501 27.058C23.0848 27.058 23.027 27.0305 22.9873 26.9908C22.9537 26.9572 22.941 26.9233 22.9369 26.9111C22.9292 26.888 22.9321 26.8793 22.9321 26.904H23.4321C23.4321 26.8647 23.4296 26.808 23.4112 26.7529C23.395 26.7043 23.3268 26.558 23.1501 26.558V27.058ZM22.9321 26.904C22.9321 26.9287 22.9292 26.92 22.9369 26.8969C22.941 26.8847 22.9537 26.8508 22.9873 26.8172C23.027 26.7775 23.0848 26.75 23.1501 26.75V27.25C23.3268 27.25 23.395 27.1037 23.4112 27.0551C23.4296 27 23.4321 26.9433 23.4321 26.904H22.9321ZM23.1501 26.75C22.7998 26.75 22.5275 26.7447 22.3312 26.7343L22.3049 27.2337C22.514 27.2447 22.7964 27.25 23.1501 27.25V26.75ZM22.3214 26.734L21.1054 26.718L21.0988 27.218L22.3148 27.234L22.3214 26.734ZM21.0986 26.718L19.9306 26.734L19.9375 27.234L21.1055 27.218L21.0986 26.718ZM19.9216 26.7343C19.7143 26.7447 19.431 26.75 19.0701 26.75V27.25C19.4345 27.25 19.7272 27.2447 19.9465 27.2337L19.9216 26.7343ZM19.0701 26.75C19.1058 26.75 19.1482 26.7597 19.1877 26.786C19.2257 26.8113 19.2468 26.8425 19.2577 26.8642C19.2758 26.9004 19.2721 26.9232 19.2721 26.904H18.7721C18.7721 26.9488 18.7763 27.0196 18.8105 27.0878C18.8293 27.1255 18.8605 27.1687 18.9104 27.202C18.9619 27.2363 19.0183 27.25 19.0701 27.25V26.75ZM19.2721 26.904C19.2721 26.8848 19.2758 26.9076 19.2577 26.9438C19.2468 26.9655 19.2257 26.9967 19.1877 27.022C19.1482 27.0483 19.1058 27.058 19.0701 27.058V26.558C19.0183 26.558 18.9619 26.5717 18.9104 26.606C18.8605 26.6393 18.8293 26.6825 18.8105 26.7202C18.7763 26.7884 18.7721 26.8592 18.7721 26.904H19.2721ZM19.0701 27.058C19.4148 27.058 19.6974 27.0323 19.8901 26.9634L19.722 26.4926C19.6161 26.5304 19.408 26.558 19.0701 26.558V27.058ZM19.8851 26.9652C20.1126 26.8893 20.2805 26.7349 20.3615 26.5081L19.8906 26.3399C19.865 26.4117 19.8195 26.46 19.727 26.4908L19.8851 26.9652ZM20.3582 26.5168C20.4402 26.3119 20.4721 26.0333 20.4721 25.704H19.9721C19.9721 26.0147 19.94 26.2161 19.8939 26.3312L20.3582 26.5168ZM20.4721 25.704V18.296H19.9721V25.704H20.4721ZM20.4721 18.296C20.4721 17.9704 20.446 17.6997 20.3775 17.5079L19.9066 17.6761C19.9448 17.783 19.9721 17.9816 19.9721 18.296H20.4721ZM20.3775 17.5079C20.2965 17.2811 20.1286 17.1267 19.9011 17.0508L19.743 17.5252C19.8355 17.556 19.881 17.6042 19.9066 17.6761L20.3775 17.5079ZM19.9149 17.0559C19.7093 16.9736 19.4248 16.942 19.0861 16.942V17.442C19.4087 17.442 19.6148 17.4744 19.7292 17.5201L19.9149 17.0559ZM19.0861 16.942C19.1514 16.942 19.2091 16.9695 19.2488 17.0092C19.2824 17.0428 19.2952 17.0767 19.2992 17.0889C19.3069 17.112 19.3041 17.1207 19.3041 17.096H18.8041C18.8041 17.1353 18.8065 17.192 18.8249 17.2471C18.8411 17.2957 18.9093 17.442 19.0861 17.442V16.942ZM19.3041 17.096C19.3041 17.0713 19.3069 17.08 19.2992 17.1031C19.2952 17.1153 19.2824 17.1492 19.2488 17.1828C19.2091 17.2225 19.1514 17.25 19.0861 17.25V16.75C18.9093 16.75 18.8411 16.8963 18.8249 16.9449C18.8065 17 18.8041 17.0567 18.8041 17.096H19.3041ZM19.0813 17.25L19.9293 17.266L19.9388 16.766L19.0908 16.75L19.0813 17.25ZM19.9232 17.2658C20.4154 17.2872 20.8088 17.298 21.1021 17.298V16.798C20.8193 16.798 20.4341 16.7875 19.9449 16.7662L19.9232 17.2658ZM21.1021 17.298C21.4198 17.298 21.7684 17.2816 22.1474 17.2491L22.1047 16.7509C21.7371 16.7824 21.403 16.798 21.1021 16.798V17.298ZM22.1487 17.249C22.2624 17.2386 22.4088 17.2282 22.5887 17.2176L22.5594 16.7184C22.3766 16.7292 22.2244 16.74 22.1034 16.751L22.1487 17.249ZM22.5879 17.2176C22.7741 17.2073 22.9933 17.202 23.2461 17.202V16.702C22.9868 16.702 22.758 16.7074 22.5602 16.7184L22.5879 17.2176ZM23.2461 17.202C24.2017 17.202 24.902 17.3794 25.3775 17.7027L25.6586 17.2893C25.0674 16.8872 24.2531 16.702 23.2461 16.702V17.202ZM25.3823 17.7059C25.8561 18.0125 26.0841 18.4301 26.0841 18.984H26.5841C26.5841 18.2579 26.268 17.6835 25.6539 17.2861L25.3823 17.7059ZM26.0841 18.984C26.0841 19.4205 25.9521 19.8422 25.6781 20.2533L26.0941 20.5307C26.4173 20.0458 26.5841 19.5288 26.5841 18.984H26.0841ZM25.6781 20.2533C25.4013 20.6684 25.0408 21.0048 24.593 21.2635L24.8431 21.6965C25.3554 21.4005 25.7735 21.0116 26.0941 20.5307L25.6781 20.2533ZM24.507 21.614C25.362 22.9606 26.0809 24.0179 26.6631 24.7833L27.061 24.4807C26.4912 23.7314 25.7808 22.6874 24.9291 21.346L24.507 21.614ZM26.6644 24.7851C27.2564 25.5493 27.7883 26.1222 28.2596 26.4926L28.5685 26.0994C28.1439 25.7658 27.6411 25.2294 27.0597 24.4789L26.6644 24.7851ZM28.2648 26.4966C28.7521 26.8592 29.246 27.058 29.7421 27.058V26.558C29.3848 26.558 28.9934 26.4155 28.5633 26.0954L28.2648 26.4966ZM21.973 21.7746C22.2467 21.8202 22.5706 21.842 22.9421 21.842V21.342C22.5882 21.342 22.2934 21.3211 22.0552 21.2814L21.973 21.7746ZM22.9421 21.842C23.3473 21.842 23.6965 21.7808 23.9701 21.6375L23.7381 21.1945C23.5637 21.2859 23.3048 21.342 22.9421 21.342V21.842ZM23.9701 21.6375C24.2625 21.4843 24.4591 21.2233 24.5712 20.8871L24.0969 20.7289C24.017 20.9687 23.8936 21.1131 23.7381 21.1945L23.9701 21.6375ZM24.5685 20.8948C24.6902 20.5662 24.7441 20.1265 24.7441 19.592H24.2441C24.2441 20.1028 24.1912 20.4738 24.0996 20.7212L24.5685 20.8948ZM24.7441 19.592C24.7441 18.7116 24.619 18.0329 24.3077 17.631L23.9124 17.937C24.1132 18.1964 24.2441 18.7231 24.2441 19.592H24.7441ZM24.3077 17.631C23.997 17.2296 23.5505 17.038 23.0061 17.038V17.538C23.4217 17.538 23.7111 17.6771 23.9124 17.937L24.3077 17.631ZM23.0061 17.038C22.6177 17.038 22.2751 17.1219 22.0553 17.3574L22.4208 17.6986C22.4996 17.6141 22.6691 17.538 23.0061 17.538V17.038ZM22.0553 17.3574C21.841 17.587 21.7641 17.9328 21.7641 18.328H22.2641C22.2641 17.9766 22.3365 17.789 22.4208 17.6986L22.0553 17.3574ZM21.7641 18.328V21.528H22.2641V18.328H21.7641Z" fill="white"/>
</svg>
