<svg xmlns="http://www.w3.org/2000/svg" viewBox="0 0 228.89 159.08"><g id="Layer_2" data-name="Layer 2"><g id="Layer_1-2" data-name="Layer 1"><path d="M19.71,136.32C18.44,137,0,145.54,0,145.54c49.54,7.77,56.77,13,56.77,13C60,160,75.21,158,75.21,158c77.74-9,115.17-9.76,119.87-10.12s33.81-8.32,33.81-8.32c-18.63-8.49-66.17-28.38-66.17-28.38-.91-2-4.71-21.7-5.25-22.78s-8.13-7-8.13-7L122.58,25,91.66,0,83.89.54C82.08,1.63,68,4.7,68,4.7l-8.32,9.94c3.8,1.81,9.77,1.63,9.77,1.63l7.95,2.53c6.15,14.47,7.23,18.08,7.23,18.08-.18,4.52-.54,14.65-.54,14.65l-4.52,3.61c.18,1.63-9.22,52.61-9.22,52.61Z"/></g></g></svg>